<?xml version="1.0" encoding="UTF-8" standalone="no"?>
<!-- Created with Inkscape (http://www.inkscape.org/) -->

<svg
   width="32"
   height="32"
   viewBox="0 0 32 32"
   version="1.1"
   id="svg1"
   xmlns="http://www.w3.org/2000/svg"
   xmlns:svg="http://www.w3.org/2000/svg">
  <defs
     id="defs1" />
  <path
     id="rect1"
     style="fill:#010101;fill-opacity:0.99959;stroke:none;stroke-width:0.3;stroke-dasharray:none"
     d="m 15.999165,4.0001596 c -1.379924,-1e-7 -2.636696,0.4305202 -3.5625,1.1484375 -0.925804,0.7179174 -1.525391,1.7410529 -1.525391,2.8808594 h 0.05078 L 9.1964294,18.019691 c -2.0431166,0.387815 -3.5581067,0.917738 -4.4628908,1.583984 -0.47877,0.352545 -0.809028,0.762317 -0.8769532,1.248047 -0.013333,0.09534 -0.011043,0.190647 -0.00195,0.285156 -0.070075,1.181351 0.4297131,2.328815 1.3593749,3.30664 1.0080178,1.06024 2.5158264,1.946371 4.4121095,2.578126 3.7925662,1.263509 8.5337972,1.305513 12.4003902,0.111328 1.933297,-0.597092 3.492244,-1.456327 4.5625,-2.494141 1.050292,-1.018454 1.630536,-2.2315 1.556641,-3.496094 0.01051,-0.10254 0.01014,-0.205188 -0.0059,-0.308593 -0.07502,-0.484805 -0.409485,-0.892796 -0.892578,-1.244141 C 26.340082,18.930291 24.830675,18.40466 22.80186,18.01969 l -1.765625,-9.9902331 0.05078,-6e-7 c 0,-1.1398063 -0.599586,-2.1629418 -1.52539,-2.8808592 -0.925804,-0.7179172 -2.182577,-1.1484375 -3.5625,-1.1484375 z m -10e-7,0.7500001 c 1.222766,0 2.321747,0.3874763 3.101563,0.9921875 0.402354,0.3120061 0.717768,0.6771741 0.929687,1.0781247 C 19.828729,6.755377 19.60375,6.6980903 19.350727,6.6466444 18.475514,6.4686891 17.299606,6.3634409 15.999165,6.3634409 c -1.300442,0 -2.47635,0.1052482 -3.351563,0.2832032 -0.253023,0.051447 -0.478001,0.1087326 -0.679688,0.1738281 0.21192,-0.4009507 0.527335,-0.766119 0.929689,-1.0781251 0.779816,-0.6047112 1.878796,-0.9921876 3.101561,-0.9921874 z m 10e-7,2.3632811 c 1.259234,6e-7 2.400904,0.1064183 3.203124,0.2695313 0.40111,0.081557 0.717848,0.179901 0.904297,0.269531 0.0252,0.012116 0.02494,0.017859 0.04492,0.029298 -0.01977,0.011292 -0.02007,0.015398 -0.04492,0.027344 -0.18645,0.08963 -0.503187,0.1899271 -0.904297,0.271484 -0.80222,0.1631126 -1.94389,0.267578 -3.203125,0.2675784 -1.259234,-5e-7 -2.400904,-0.1044646 -3.203124,-0.2675786 -0.40111,-0.081557 -0.717848,-0.181854 -0.904297,-0.2714841 -0.02485,-0.011945 -0.02515,-0.016051 -0.04492,-0.027344 0.01998,-0.011438 0.01972,-0.017181 0.04492,-0.029297 0.18645,-0.08963 0.503187,-0.1879743 0.904297,-0.2695312 0.80222,-0.1631127 1.94389,-0.2695312 3.203125,-0.2695318 z m -4.345704,1.3124997 c 0.268517,0.1165044 0.600457,0.2090165 0.994141,0.2890626 0.875214,0.1779554 2.051121,0.2832034 3.351563,0.2832037 1.300441,-6e-7 2.476349,-0.1052488 3.351562,-0.2832034 0.393684,-0.080047 0.725625,-0.1725591 0.99414,-0.2890622 l 2.027344,11.4726558 c -0.01042,0.01107 -0.01812,0.02078 -0.03125,0.0332 -0.108179,0.102419 -0.304474,0.228078 -0.574218,0.347656 -0.539489,0.239157 -1.368879,0.46028 -2.404297,0.613281 -2.070837,0.306003 -4.655726,0.306003 -6.726563,10e-7 -1.035419,-0.153001 -1.864808,-0.374125 -2.404297,-0.613282 -0.2697439,-0.119578 -0.4660388,-0.245237 -0.5742183,-0.347656 -0.013125,-0.01243 -0.020833,-0.02213 -0.03125,-0.0332 z m 11.28711,10.3828125 c 1.828976,0.373076 3.165734,0.879937 3.865235,1.388672 0.390982,0.284355 0.562609,0.550711 0.59375,0.751953 0.0048,0.03121 0.0024,0.06368 0.002,0.0957 l -4.210938,-1.126953 c 0.01176,-0.05531 0.01953,-0.111419 0.01953,-0.169922 h -0.103515 z m -13.8828126,0.002 -0.1660156,0.937499 H 8.7882271 c 0,0.0585 0.00777,0.114617 0.019531,0.169922 l -4.1914062,1.123047 c 0.0036,-0.03319 0.00312,-0.06638 0.00781,-0.09961 l -0.019531,-0.002 c 0.034672,-0.198373 0.1989244,-0.456071 0.5742187,-0.732422 0.6947276,-0.511569 2.03772,-1.021025 3.8789063,-1.396484 z m 0.056641,1.638671 c 0.0092,0.0092 0.01791,0.01841 0.027344,0.02734 0.2021924,0.191427 0.46483,0.346281 0.7851563,0.488282 0.6406523,0.284003 1.5201283,0.508456 2.5996093,0.667968 0.187671,0.02773 0.380085,0.05326 0.574219,0.07617 l -2.990235,1.724569 C 9.7389643,23.374192 9.3761935,23.310488 9.0323677,23.240394 7.1248028,22.851503 5.6720546,22.278808 5.0147896,21.711096 l 4.1406251,-1.109374 z m 13.7695316,0 -0.04102,0.152344 4.140626,1.109374 c -0.652319,0.563213 -2.09009,1.132821 -3.980469,1.521485 -0.35498,0.07298 -0.730423,0.139458 -1.115234,0.201172 l -2.990235,-1.72461 c 0.194135,-0.02291 0.386548,-0.04844 0.574219,-0.07617 1.079481,-0.159513 1.958956,-0.383967 2.599609,-0.667969 0.320326,-0.142001 0.582964,-0.296855 0.785156,-0.488281 0.0094,-0.0089 0.01814,-0.01816 0.02735,-0.02734 z m -8.642579,1.365234 c 1.153072,0.07777 2.360537,0.07768 3.513672,0 l -0.04297,0.07422 2.970704,1.714844 c -1.435087,0.172565 -3.015824,0.268618 -4.660157,0.269531 -1.66098,8.97e-4 -3.257727,-0.09529 -4.707031,-0.269531 l 2.970704,-1.712891 z m -9.4218744,0.697266 c 0.8975229,0.634642 2.3041054,1.106365 4.0624999,1.464844 0.4122336,0.08404 0.8472299,0.159673 1.2949215,0.228516 l 0.02344,0.04102 0.05273,-0.0293 c 1.730919,0.261601 3.700495,0.4074 5.769531,0.40625 2.052699,-0.0012 4.006874,-0.146666 5.72461,-0.40625 l 0.05078,0.0293 0.02344,-0.04102 c 0.462061,-0.07102 0.909913,-0.149139 1.333984,-0.236329 1.73625,-0.356975 3.126769,-0.823332 4.017579,-1.451171 -0.217037,0.546285 -0.583705,1.078036 -1.105469,1.583984 -0.956214,0.927228 -2.414307,1.743886 -4.261719,2.314453 -3.694822,1.14109 -8.325899,1.099658 -11.9433591,-0.105514 C 8.0537158,25.70812 6.6504784,24.865733 5.756977,23.92594 5.323168,23.469657 5.0110292,22.996381 4.8194772,22.511878 Z" />
</svg>
