<?xml version="1.0" encoding="UTF-8" standalone="no"?>
<svg
   version="1.1"
   viewBox="0 0 32 32"
   id="svg1"
   width="32"
   height="32"
   xmlns="http://www.w3.org/2000/svg"
   xmlns:svg="http://www.w3.org/2000/svg">
  <defs
     id="defs1" />
  <path
     d="M 5,4 V 4.75 7.5 8.25 28 H 5.75 25.5 V 27.25 26.5 H 27 v -0.75 -20 H 6.5 V 6.5 H 26.25 V 25.75 H 25.5 V 7.5 H 5.75 V 4.75 H 26.5 V 4 H 5.75 Z m 0.75,4.25 h 19 v 17.5 0.75 0.75 h -19 z m 9.5,1 c -3.516366,0 -6.375,2.858634 -6.375,6.375 0,3.516366 2.858634,6.375 6.375,6.375 3.516366,0 6.375,-2.858634 6.375,-6.375 0,-3.516366 -2.858634,-6.375 -6.375,-6.375 z m 0,0.75 c 3.111037,0 5.625,2.513963 5.625,5.625 0,3.111037 -2.513963,5.625 -5.625,5.625 -3.111037,0 -5.625,-2.513963 -5.625,-5.625 C 9.625,12.513963 12.138963,10 15.25,10 Z m -0.546875,1 v 1.384766 h 1.09375 V 11 Z m 0,2.591797 V 20.25 h 1.09375 V 13.591797 Z M 7.75,23 v 0.75 h 15 V 23 Z m 2.5,1.75 v 0.75 h 10 v -0.75 z"
     id="path1"
     style="fill:#000000;fill-opacity:1" />
</svg>
