<?xml version="1.0" encoding="UTF-8" standalone="no"?>
<!-- Created with Inkscape (http://www.inkscape.org/) -->

<svg
   width="32"
   height="32"
   viewBox="0 0 32 32"
   version="1.1"
   id="svg1"
   xmlns="http://www.w3.org/2000/svg"
   xmlns:svg="http://www.w3.org/2000/svg">
  <defs
     id="defs1" />
  <path
     id="rect3"
     style="fill:#000000;fill-opacity:0.999776;stroke-width:0"
     d="m 15.996087,3.9999998 -0.0098,0.011719 -12.7206684,9.3964842 0.4453126,0.603515 1.1914062,-0.880859 V 27.939453 28 H 27.152337 v -0.75 h -0.0078 V 13.166015 l 1.144532,0.845703 0.445312,-0.603515 -12.720703,-9.3964844 -0.0098,-0.011719 -0.0039,0.00195 z m 0.0039,0.9355469 10.394531,7.6777343 V 27.25 H 5.6523374 V 12.578125 Z m 1.023438,4.2421875 c -1.523131,-0.00806 -2.817792,1.0704468 -3.208985,2.5488278 -0.486507,-0.32273 -1.031955,-0.519957 -1.591796,-0.583984 -0.754345,-0.08627 -1.532993,0.06718 -2.2246096,0.474609 -1.3832332,0.814855 -2.123082,2.449912 -1.8710936,4.087891 0.2381642,1.548117 1.3212545,2.804391 2.7578122,3.195312 -0.178936,2.239107 0.860358,4.431102 2.738281,5.558594 a 0.375,0.375 0 0 0 0.513672,-0.128906 0.375,0.375 0 0 0 -0.126953,-0.513672 C 12.173687,22.714044 11.23398,20.378734 11.7578,18.142578 c 0.523819,-2.236157 2.354267,-3.77893 4.441406,-3.794922 2.087139,-0.01599 3.937458,1.498898 4.490234,3.726562 0.552778,2.227666 -0.355718,4.576358 -2.177734,5.707032 a 0.375,0.375 0 0 0 -0.121088,0.515625 0.375,0.375 0 0 0 0.464844,0.136718 c 0.19758,0.711953 0.762236,1.260742 1.484375,1.291016 0.887266,0.0372 1.595281,-0.73384 1.673828,-1.673828 0.06938,-0.830234 -0.350634,-1.626505 -1.050781,-1.917969 0.03171,-0.06386 0.06235,-0.128314 0.0918,-0.193359 l 2.476562,-0.5 -1.970703,-0.695313 2.423828,-0.304687 -2.384765,-0.964844 c 0.0066,-0.524848 -0.05116,-1.056198 -0.181641,-1.582031 -0.103901,-0.418714 -0.250374,-0.816545 -0.431641,-1.189453 0.519887,-0.148174 0.968667,-0.405314 1.306641,-0.744141 0.436627,-0.437729 0.684408,-1.028118 0.607422,-1.646484 -0.142795,-1.146931 -1.268378,-1.949525 -2.599613,-2.066407 -0.194352,-1.724155 -1.591808,-3.0594429 -3.277343,-3.0683588 z m -0.0039,0.75 c 1.319773,0.007 2.428984,1.0732178 2.544922,2.4902338 a 0.375,0.375 0 0 0 0.04883,0.152344 0.375,0.375 0 0 0 -0.0059,0.0332 0.375,0.375 0 0 0 0.373047,0.376953 c 1.180998,0.0063 2.083791,0.68494 2.175781,1.423828 0.046,0.369444 -0.08989,0.719982 -0.394531,1.025391 -0.269458,0.270138 -0.672842,0.491528 -1.162109,0.597656 -0.991644,-1.49682 -2.615235,-2.44341 -4.40625,-2.429687 -2.453375,0.0188 -4.568718,1.833506 -5.164063,4.375 -0.01357,0.05794 -0.02524,0.115778 -0.03711,0.173828 -1.0945496,-0.337737 -1.9346874,-1.317616 -2.1249998,-2.554688 -0.2069255,-1.345059 0.4075813,-2.677684 1.5117188,-3.328124 1.104136,-0.650442 2.455292,-0.496929 3.408203,0.392578 a 0.375,0.375 0 0 0 0.484375,0.01563 0.375,0.375 0 0 0 0.18164,-0.28125 c 0.129415,-1.415671 1.246635,-2.4698718 2.566406,-2.4628908 z m 0.78125,7.3593748 a 0.75045705,0.75045705 0 0 0 -0.75,0.75 0.75045705,0.75045705 0 0 0 0.75,0.75 0.75045705,0.75045705 0 0 0 0.75,-0.75 0.75045705,0.75045705 0 0 0 -0.75,-0.75 z m 2.78125,5.507813 c 0.401372,0.113289 0.732637,0.606447 0.683594,1.193359 -0.05121,0.61282 -0.467595,1.00618 -0.894531,0.988281 -0.413594,-0.01734 -0.800694,-0.427835 -0.837891,-1.013672 0.404069,-0.339457 0.75668,-0.732591 1.048828,-1.167968 z" />
</svg>
