<svg width="156" height="180" viewBox="0 0 156 180" fill="none" xmlns="http://www.w3.org/2000/svg">
<g filter="url(#filter0_i_416_319)">
<path d="M145.772 8.25742C146.05 9.66404 146.252 10.6915 146.344 11.4471C146.391 11.8236 146.407 12.1128 146.396 12.3351C146.385 12.5597 146.348 12.683 146.312 12.7499C146.024 13.2881 145.438 13.5981 144.832 13.5339C144.756 13.526 144.633 13.4879 144.441 13.3708C144.251 13.2549 144.021 13.0788 143.735 12.829C143.162 12.3277 142.426 11.5833 141.418 10.5638C139.858 8.98611 138.704 7.81859 137.935 6.94763C137.55 6.51197 137.275 6.16565 137.097 5.89039C136.911 5.60116 136.872 5.45212 136.87 5.39794C136.847 4.73116 137.268 4.12947 137.902 3.92146C137.953 3.90455 138.106 3.88934 138.442 3.96537C138.762 4.03773 139.182 4.1766 139.723 4.38799C140.806 4.81058 142.299 5.49243 144.317 6.41418C144.83 6.64845 145.004 6.73201 145.141 6.8435C145.312 6.98264 145.45 7.15779 145.546 7.35648C145.623 7.51568 145.664 7.70416 145.772 8.25742Z" fill="white" stroke="#F4F4F4"/>
<path d="M152.3 15.0618C153.188 16.1354 153.845 16.9296 154.294 17.5142C154.519 17.8064 154.684 18.0365 154.797 18.2165C154.917 18.4069 154.953 18.5013 154.959 18.5306C155.177 19.4971 154.414 20.4054 153.425 20.3586C153.395 20.3571 153.296 20.3382 153.087 20.2532C152.891 20.1729 152.635 20.0504 152.309 19.8799C151.655 19.539 150.759 19.0295 149.548 18.3408C149.271 18.1835 149.177 18.1285 149.097 18.0666C148.871 17.8906 148.701 17.6535 148.605 17.3836C148.572 17.2887 148.55 17.1819 148.488 16.8697C148.286 15.8444 148.138 15.0918 148.054 14.5398C148.012 14.2644 147.987 14.051 147.979 13.8864C147.971 13.7165 147.982 13.6283 147.992 13.5896C148.226 12.6834 149.224 12.2103 150.073 12.6026C150.11 12.6193 150.185 12.6666 150.311 12.7805C150.434 12.8908 150.584 13.0445 150.77 13.2513C151.144 13.6658 151.633 14.2567 152.3 15.0618Z" fill="white" stroke="#F4F4F4"/>
<path d="M157.037 131.986C157.645 130.665 158.085 129.711 158.476 129.051C158.877 128.374 159.157 128.131 159.389 128.058C159.722 127.953 160.081 127.968 160.404 128.1C160.628 128.192 160.888 128.457 161.231 129.165C161.567 129.856 161.926 130.843 162.423 132.209C162.758 133.13 162.862 133.447 162.84 133.743C162.826 133.918 162.782 134.09 162.71 134.25C162.587 134.521 162.343 134.749 161.607 135.395C159.67 137.096 158.241 138.35 157.169 139.151C156.633 139.552 156.209 139.821 155.873 139.976C155.529 140.134 155.345 140.14 155.254 140.118C154.862 140.021 154.525 139.77 154.321 139.422C154.273 139.341 154.226 139.162 154.28 138.787C154.332 138.421 154.47 137.938 154.701 137.31C155.163 136.054 155.959 134.327 157.037 131.986Z" fill="white" stroke="#F4F4F4"/>
<path d="M138.319 142.67C138.484 142.689 138.657 142.749 139.158 142.936C140.492 143.431 141.47 143.794 142.161 144.1C142.506 144.252 142.763 144.383 142.95 144.5C143.141 144.621 143.225 144.707 143.259 144.757C143.663 145.356 143.583 146.157 143.069 146.664C143.026 146.707 142.927 146.775 142.716 146.855C142.51 146.934 142.232 147.012 141.864 147.093C141.126 147.257 140.096 147.42 138.691 147.644C137.25 147.873 136.192 148.04 135.422 148.116C135.037 148.154 134.742 148.167 134.516 148.156C134.285 148.145 134.169 148.11 134.116 148.084C133.467 147.757 133.146 147.012 133.353 146.316C133.37 146.259 133.425 146.15 133.576 145.975C133.723 145.804 133.935 145.598 134.226 145.344C134.81 144.836 135.659 144.182 136.814 143.291C137.238 142.965 137.385 142.856 137.537 142.788C137.782 142.679 138.052 142.638 138.319 142.67Z" fill="white" stroke="#F4F4F4"/>
<path d="M79.7273 68.1126C79.8705 66.9796 79.9724 66.1838 80.1314 65.6046C80.2867 65.0386 80.4729 64.7729 80.7215 64.6164C80.9702 64.4598 81.2902 64.4067 81.8677 64.5112C82.4587 64.6181 83.2205 64.8701 84.3041 65.2305L94.0334 68.4662C96.0239 69.1282 97.4637 69.6083 98.423 70.0847C99.4013 70.5706 99.6804 70.9568 99.7057 71.3359C99.7309 71.7151 99.5055 72.1348 98.6003 72.7462C97.7126 73.3457 96.3493 74.0125 94.4641 74.9326L83.6588 80.2066C82.1778 80.9295 81.1181 81.4453 80.3077 81.7024C79.4984 81.9591 79.0898 81.9076 78.8021 81.7016C78.5144 81.4957 78.3338 81.1255 78.3159 80.2767C78.298 79.4267 78.4445 78.2573 78.6513 76.6222L79.7273 68.1126Z" fill="white" stroke="#F4F4F4"/>
<path d="M85.6353 113.75C85.7863 113.453 86.0885 113.227 86.8029 113.051C87.5254 112.872 88.538 112.774 89.9642 112.637L101.555 111.528C103.793 111.314 105.418 111.16 106.562 111.207C107.737 111.256 108.164 111.51 108.333 111.856C108.502 112.201 108.442 112.694 107.76 113.652C107.096 114.585 105.978 115.774 104.436 117.412L96.9168 125.398C96.0702 126.297 95.4723 126.93 94.9657 127.332C94.4689 127.726 94.1428 127.83 93.8367 127.796C93.5306 127.762 93.2351 127.589 92.8367 127.096C92.4305 126.593 91.9858 125.844 91.3567 124.781L87.2857 117.904C86.5559 116.671 86.0388 115.795 85.7577 115.106C85.4798 114.424 85.4843 114.047 85.6353 113.75Z" fill="white" stroke="#F4F4F4"/>
<path d="M117.653 128.553C117.851 128.845 117.892 129.254 117.617 130.053C117.342 130.854 116.803 131.896 116.048 133.353L112.718 139.779C112.173 140.832 111.788 141.572 111.426 142.078C111.071 142.573 110.796 142.76 110.5 142.816C110.205 142.873 109.88 142.801 109.368 142.472C108.844 142.136 108.213 141.59 107.318 140.814L100.995 135.331C99.4785 134.017 98.3844 133.066 97.7116 132.291C97.0282 131.504 96.9182 131.053 97.0324 130.694C97.1466 130.336 97.4971 130.032 98.51 129.785C99.5073 129.541 100.949 129.399 102.947 129.204L112.6 128.259C114.233 128.1 115.401 127.987 116.247 128.028C117.091 128.07 117.455 128.26 117.653 128.553Z" fill="white" stroke="#F4F4F4"/>
<path d="M115.932 135.751C116.876 133.93 117.559 132.614 118.167 131.76C118.786 130.891 119.205 130.677 119.582 130.708C119.959 130.739 120.337 131.018 120.807 131.975C121.269 132.917 121.73 134.326 122.367 136.276L124.43 142.599C124.97 144.256 125.357 145.444 125.508 146.328C125.66 147.215 125.544 147.625 125.288 147.88C125.032 148.135 124.622 148.25 123.736 148.096C122.853 147.943 121.665 147.554 120.01 147.01L115.447 145.51C114.396 145.164 113.659 144.921 113.136 144.663C112.626 144.411 112.403 144.185 112.294 143.918C112.185 143.651 112.186 143.334 112.374 142.797C112.567 142.247 112.923 141.557 113.432 140.575L115.932 135.751Z" fill="white" stroke="#F4F4F4"/>
<path d="M84.2789 108.965C83.9037 108.902 83.5463 108.584 83.1601 107.554C82.7817 106.545 82.4484 105.054 81.9895 102.993L79.6911 92.6701C79.2635 90.7495 78.9562 89.3639 78.8792 88.3598C78.8011 87.3418 78.9774 86.9186 79.2791 86.697C79.5808 86.4754 80.0375 86.4337 80.9854 86.8128C81.9205 87.1868 83.1507 87.8945 84.8554 88.8771L91.2348 92.5545C92.0851 93.0446 92.6781 93.3878 93.0899 93.706C93.4901 94.0153 93.6559 94.2546 93.7212 94.512C93.7866 94.7695 93.755 95.0588 93.5507 95.5216C93.3406 95.9977 92.9829 96.5821 92.4694 97.4184L88.3883 104.064C87.2833 105.863 86.4826 107.165 85.7961 107.996C85.0957 108.844 84.6542 109.028 84.2789 108.965Z" fill="white" stroke="#F4F4F4"/>
<path d="M85.8601 61.5654C84.5349 61.6581 83.5971 61.7224 82.9062 61.6694C82.2261 61.6173 81.9037 61.4587 81.7032 61.2084C81.5028 60.9582 81.4183 60.609 81.5159 59.9339C81.6149 59.248 81.8823 58.3469 82.2619 57.0738L83.884 51.634C84.6744 48.9836 85.2538 47.0441 85.8177 45.7625C86.0997 45.1217 86.3599 44.6888 86.6105 44.4213C86.849 44.1668 87.0535 44.0866 87.2556 44.087C87.4577 44.0874 87.6619 44.1684 87.8993 44.4239C88.1489 44.6924 88.4073 45.1264 88.6866 45.7684C89.2453 47.0523 89.8167 48.9941 90.5962 51.6478L92.1293 56.8669C92.4573 57.9834 92.6867 58.7688 92.7738 59.3739C92.8589 59.9656 92.792 60.2874 92.6223 60.5314C92.4526 60.7755 92.1743 60.9502 91.5899 61.0764C90.9923 61.2053 90.1761 61.2636 89.0153 61.3448L85.8601 61.5654Z" fill="white" stroke="#F4F4F4"/>
<path d="M102.072 28.2623L102.072 28.2623C102.06 28.2857 102.047 28.3088 102.034 28.3316C101.956 28.4626 101.842 28.5865 101.632 28.7488C101.413 28.9169 101.121 29.1041 100.695 29.3762C98.0523 31.0627 96.1067 32.3037 94.6808 33.011C93.9668 33.3653 93.4221 33.5653 93.0104 33.6312C92.6082 33.6956 92.3985 33.6234 92.2668 33.5135C92.2117 33.4674 92.16 33.4175 92.112 33.3641C91.9975 33.2365 91.9178 33.0294 91.9678 32.6252C92.019 32.2114 92.1996 31.6599 92.5282 30.9337C93.1843 29.4836 94.3552 27.495 95.9465 24.7942C97.4112 22.3085 98.4873 20.4838 99.37 19.3115C99.8117 18.725 100.179 18.3373 100.495 18.1137C100.802 17.897 101.016 17.8633 101.189 17.8992C101.258 17.9135 101.326 17.9327 101.393 17.9566C101.559 18.0164 101.724 18.157 101.872 18.5018C102.025 18.8575 102.136 19.3803 102.206 20.1111C102.346 21.5718 102.311 23.6899 102.261 26.5746C102.253 27.0803 102.246 27.4274 102.217 27.7014C102.189 27.9658 102.143 28.1274 102.072 28.2623Z" fill="white" stroke="#F4F4F4"/>
<path d="M114.232 6.47752L114.232 6.47753C114.229 6.50797 114.22 6.57183 114.195 6.73947C114.188 6.78583 114.185 6.80185 114.183 6.81596C114.09 7.35393 113.713 7.79922 113.197 7.97864L113.362 8.45086L113.197 7.97864C113.184 7.98334 113.168 7.98838 113.124 8.00287C112.833 8.09749 112.712 8.13635 112.679 8.14536C111.166 8.5519 110.121 6.65815 111.272 5.59491L110.933 5.22764L111.272 5.59491C111.297 5.57136 111.394 5.49035 111.63 5.2945C111.76 5.18606 111.81 5.14487 111.834 5.12638C112.88 4.33291 114.369 5.17156 114.232 6.47752Z" fill="white" stroke="#F4F4F4"/>
<path d="M117.249 1.62231C117.925 1.50313 118.425 1.41507 118.786 1.35853C119.169 1.29857 119.338 1.28451 119.392 1.28797C120.676 1.37102 121.266 2.92605 120.361 3.84031C120.323 3.87841 120.187 3.98018 119.861 4.18951C119.553 4.38688 119.121 4.65276 118.536 5.01247C117.974 5.35816 117.763 5.48443 117.638 5.5309C116.686 5.88366 115.666 5.20883 115.618 4.19481C115.612 4.06122 115.645 3.81802 115.744 3.16537C115.781 2.91856 115.794 2.8331 115.813 2.76115C115.948 2.25107 116.34 1.84894 116.846 1.70205C116.918 1.68133 117.003 1.66562 117.249 1.62231Z" fill="white" stroke="#F4F4F4"/>
<path d="M127.718 24.9383C127.586 25.2741 127.257 25.544 126.386 25.759C125.517 25.9734 124.277 26.0943 122.546 26.261L110.369 27.4343C108.666 27.5984 107.446 27.7146 106.567 27.6703C105.686 27.626 105.314 27.4272 105.12 27.1259C104.925 26.8247 104.896 26.4043 105.218 25.5828C105.539 24.7626 106.146 23.6981 106.995 22.2133L112.169 13.163C112.807 12.0466 113.259 11.2587 113.674 10.73C114.081 10.2105 114.384 10.0318 114.698 9.99915C115.011 9.96654 115.344 10.0791 115.85 10.5036C116.364 10.9356 116.969 11.6136 117.823 12.5746L124.827 20.4516C125.982 21.7507 126.809 22.683 127.3 23.4309C127.792 24.181 127.849 24.6026 127.718 24.9383Z" fill="white" stroke="#F4F4F4"/>
<path d="M103.47 14.4306C103.48 13.8524 103.487 13.4533 103.522 13.1411C103.556 12.8385 103.612 12.6595 103.696 12.5159C103.75 12.424 103.813 12.338 103.886 12.2595C103.998 12.137 104.153 12.031 104.433 11.9102C104.721 11.7855 105.1 11.6616 105.65 11.4829C107.367 10.925 108.611 10.5216 109.533 10.3375C110.48 10.1483 110.906 10.2322 111.137 10.4193C111.298 10.5498 111.43 10.7124 111.525 10.8966C111.661 11.1605 111.656 11.5948 111.278 12.4834C110.91 13.3482 110.262 14.4841 109.366 16.0513C108.09 18.2823 107.153 19.9206 106.384 20.999C106 21.5382 105.678 21.9079 105.399 22.1367C105.123 22.3636 104.933 22.4165 104.797 22.4108C104.569 22.4014 104.347 22.3402 104.146 22.2321C104.026 22.1673 103.89 22.0247 103.768 21.6883C103.646 21.3491 103.558 20.8668 103.503 20.2071C103.394 18.8873 103.426 17 103.47 14.4306Z" fill="white" stroke="#F4F4F4"/>
<path d="M129.452 14.7993C129.553 17.1563 129.625 18.8706 129.516 20.0653C129.403 21.2974 129.116 21.7209 128.757 21.8665C128.397 22.012 127.897 21.9072 126.958 21.1008C126.048 20.3189 124.907 19.0375 123.34 17.2743L118.042 11.3158C117.297 10.4775 116.775 9.88826 116.448 9.39607C116.13 8.91545 116.052 8.60477 116.094 8.31735C116.136 8.02992 116.301 7.755 116.745 7.38679C117.199 7.0097 117.869 6.59624 118.825 6.00875L123.738 2.9875C125.045 2.1844 125.976 1.6133 126.706 1.30137C127.431 0.991537 127.825 0.996185 128.128 1.15739C128.432 1.3186 128.656 1.64234 128.805 2.41663C128.955 3.19613 129.003 4.28762 129.068 5.81953L129.452 14.7993Z" fill="white" stroke="#F4F4F4"/>
<path d="M135.588 23.1883C134.358 23.7296 133.487 24.1115 132.811 24.2971C132.146 24.4798 131.786 24.4381 131.512 24.2676C131.238 24.0971 131.042 23.7929 130.912 23.1152C130.781 22.4272 130.739 21.4768 130.681 20.1342L130.219 9.32345C130.125 7.12513 130.058 5.5312 130.165 4.41475C130.274 3.27101 130.545 2.86285 130.897 2.70954C131.249 2.55622 131.733 2.63485 132.645 3.33319C133.535 4.01488 134.658 5.14851 136.205 6.71321L143.793 14.3882C144.732 15.3378 145.395 16.0108 145.808 16.5722C146.213 17.1249 146.303 17.474 146.243 17.7899C146.183 18.1057 145.971 18.3975 145.39 18.7623C144.801 19.1328 143.936 19.5146 142.714 20.0525L135.588 23.1883Z" fill="white" stroke="#F4F4F4"/>
<path d="M126.258 26.908C127.262 26.8112 127.964 26.7447 128.498 26.7663C129.018 26.7873 129.296 26.8903 129.5 27.0686C129.704 27.247 129.843 27.5094 129.933 28.0213C130.026 28.5476 130.053 29.2523 130.091 30.2607L130.48 40.6226C130.546 42.3918 130.592 43.6614 130.494 44.5664C130.395 45.4754 130.168 45.8406 129.849 46.0142C129.531 46.1879 129.1 46.1812 128.283 45.7715C127.469 45.3636 126.427 44.6366 124.976 43.6221L111.905 34.4821C110.029 33.1699 108.667 32.2159 107.811 31.4248C106.93 30.6113 106.769 30.1355 106.868 29.762C106.966 29.3886 107.34 29.0534 108.506 28.778C109.641 28.5102 111.296 28.3496 113.575 28.13L126.258 26.908Z" fill="white" stroke="#F4F4F4"/>
<path d="M131.855 28.5829C132.171 28.4082 132.599 28.4115 133.411 28.8081C134.22 29.2034 135.258 29.9116 136.703 30.9005L148.368 38.8824C150.082 40.0551 151.321 40.9042 152.104 41.6198C152.901 42.3489 153.063 42.7941 152.985 43.165C152.906 43.536 152.578 43.8776 151.553 44.2213C150.548 44.5587 149.071 44.8337 147.029 45.2122L135.742 47.3048C134.669 47.5039 133.916 47.6423 133.34 47.6671C132.779 47.6913 132.478 47.6015 132.255 47.4231L131.943 47.8134L132.255 47.4231C132.032 47.2446 131.879 46.9703 131.779 46.4176C131.678 45.8509 131.648 45.0858 131.607 43.9947L131.229 33.9202C131.163 32.1703 131.118 30.9151 131.215 30.0195C131.313 29.1208 131.538 28.7575 131.855 28.5829Z" fill="white" stroke="#F4F4F4"/>
<path d="M136.653 29.6547C135.326 28.7464 134.378 28.0965 133.769 27.5319C133.161 26.9691 133.005 26.5949 133.037 26.2459C133.07 25.897 133.293 25.558 133.994 25.117C134.697 24.6745 135.748 24.2105 137.22 23.5627L144.392 20.4064C145.351 19.9847 146.022 19.6907 146.554 19.5398C147.072 19.3929 147.377 19.4069 147.631 19.5203C147.884 19.6336 148.098 19.8513 148.334 20.3356C148.576 20.8328 148.805 21.529 149.129 22.5242L152.517 32.9063C153.279 35.2401 153.832 36.9405 154.06 38.1664C154.295 39.4356 154.128 39.932 153.816 40.1657C153.504 40.3994 152.98 40.4207 151.828 39.8383C150.716 39.2757 149.239 38.2668 147.213 36.8805L136.653 29.6547Z" fill="white" stroke="#F4F4F4"/>
<path d="M161.015 26.3863C161.098 26.5925 161.118 26.8342 161.05 27.2307C160.98 27.6406 160.827 28.1553 160.606 28.8981L159.825 31.5171C159.07 34.0483 158.518 35.8973 157.975 37.1212C157.704 37.7326 157.453 38.1452 157.21 38.4009C156.98 38.6438 156.779 38.725 156.576 38.7276C156.373 38.7302 156.17 38.6542 155.933 38.4173C155.685 38.1678 155.423 37.7618 155.136 37.1575C154.562 35.9479 153.963 34.1137 153.144 31.6026L151.916 27.8419C151.235 25.7539 150.742 24.2397 150.545 23.1377C150.342 22.009 150.494 21.5433 150.791 21.3008C151.088 21.0583 151.574 21.0032 152.64 21.4276C153.68 21.842 155.064 22.628 156.974 23.7137L158.982 24.8554C159.656 25.2386 160.122 25.5046 160.456 25.752C160.779 25.9914 160.932 26.1801 161.015 26.3863Z" fill="white" stroke="#F4F4F4"/>
<path d="M116.279 57.0003C116.005 56.9169 115.759 56.7177 115.461 56.2365C115.156 55.7433 114.845 55.037 114.402 54.0293L108.916 41.5304C107.751 38.8774 106.898 36.9323 106.476 35.5291C106.265 34.8271 106.177 34.3057 106.193 33.9245C106.209 33.5607 106.316 33.3659 106.472 33.2387C106.627 33.1114 106.839 33.0442 107.198 33.0999C107.576 33.1583 108.07 33.3468 108.717 33.6909C110.011 34.3786 111.752 35.5949 114.126 37.2552L126.089 45.6206C127.212 46.4058 128.007 46.9633 128.526 47.4534C129.037 47.9366 129.189 48.2705 129.182 48.5963C129.175 48.9221 129.01 49.2493 128.478 49.7106C127.939 50.1784 127.122 50.7019 125.967 51.4391L119.49 55.5728C118.563 56.1648 117.911 56.5791 117.384 56.8196C116.869 57.0542 116.554 57.0836 116.279 57.0003Z" fill="white" stroke="#F4F4F4"/>
<path d="M113.209 53.7984C113.709 54.9375 114.061 55.7415 114.234 56.3694C114.403 56.9853 114.37 57.3276 114.218 57.5966C114.065 57.8656 113.788 58.0693 113.172 58.2395C112.544 58.4129 111.674 58.5233 110.44 58.678L100.042 59.9814C98.6986 60.1498 97.7472 60.2678 97.042 60.2523C96.3471 60.237 96.0132 60.093 95.7996 59.8496C95.586 59.6062 95.4865 59.2564 95.5616 58.5654C95.6378 57.8641 95.8782 56.9361 96.2195 55.6261L100.305 39.9444C100.913 37.6123 101.356 35.9151 101.82 34.7814C102.298 33.6099 102.702 33.2855 103.09 33.2547C103.478 33.2239 103.928 33.4803 104.586 34.5614C105.222 35.6076 105.929 37.2134 106.897 39.42L113.209 53.7984Z" fill="white" stroke="#F4F4F4"/>
<path d="M116.528 58.8812C116.607 58.7316 116.728 58.5916 116.96 58.4097C117.201 58.2211 117.527 58.0125 118.001 57.7096L118.423 57.4406C121.058 55.7582 122.996 54.5225 124.417 53.8335C125.128 53.4884 125.667 53.3024 126.072 53.2521C126.461 53.2039 126.673 53.285 126.817 53.4195C126.961 53.5539 127.056 53.7597 127.035 54.1509C127.012 54.5585 126.863 55.1091 126.568 55.8424C125.977 57.3066 124.876 59.324 123.377 62.0685L122.969 62.8158C121.535 65.4415 120.482 67.368 119.604 68.5991C119.165 69.2153 118.796 69.6178 118.477 69.8456C118.171 70.0634 117.949 70.0962 117.755 70.0496C117.562 70.0031 117.379 69.873 117.206 69.5401C117.024 69.1919 116.879 68.6658 116.768 67.9172C116.545 66.4217 116.483 64.227 116.399 61.2364L116.385 60.7581C116.37 60.1954 116.359 59.8088 116.38 59.5038C116.401 59.2096 116.448 59.0307 116.528 58.8812Z" fill="white" stroke="#F4F4F4"/>
<path d="M128.91 54.0246C129.555 52.8437 130.013 52.0083 130.435 51.4485C130.851 50.897 131.162 50.7106 131.483 50.6787C131.804 50.6468 132.145 50.7685 132.662 51.2274C133.186 51.6933 133.799 52.4224 134.664 53.4534L143.524 64.0198C144.473 65.1517 145.147 65.9575 145.547 66.6105C145.944 67.2575 145.999 67.6382 145.892 67.9587C145.785 68.2791 145.512 68.55 144.805 68.8277C144.092 69.1081 143.069 69.346 141.63 69.6787L124.885 73.5497C123.001 73.9852 121.643 74.2979 120.656 74.3811C119.657 74.4653 119.236 74.2954 119.011 73.9986C118.785 73.7017 118.735 73.2507 119.085 72.3112C119.431 71.3831 120.098 70.1592 121.025 68.462L128.91 54.0246Z" fill="white" stroke="#F4F4F4"/>
<path d="M133.604 49.4751C133.72 49.1509 134.01 48.8821 134.76 48.6245C135.515 48.3653 136.596 48.1636 138.113 47.8824L149.984 45.6816C151.502 45.4001 152.584 45.2007 153.383 45.1721C154.177 45.1436 154.544 45.2908 154.769 45.552C154.994 45.8131 155.085 46.198 154.939 46.9787C154.792 47.7642 154.434 48.8051 153.93 50.2648L149.931 61.8533C149.414 63.3501 149.044 64.4179 148.666 65.1441C148.29 65.867 147.975 66.1158 147.632 66.1791C147.29 66.2424 146.906 66.1227 146.297 65.5819C145.685 65.0387 144.957 64.1736 143.94 62.9603L136.069 53.5726C135.078 52.3907 134.372 51.5475 133.955 50.8671C133.54 50.191 133.487 49.7993 133.604 49.4751Z" fill="white" stroke="#F4F4F4"/>
<path d="M99.308 92.5219C99.1674 92.1596 99.2831 91.656 100.125 90.7184C100.94 89.8107 102.268 88.6767 104.094 87.1196L111.893 80.4711C112.974 79.5494 113.742 78.8962 114.368 78.5048C114.987 78.118 115.357 78.0576 115.674 78.1539C115.992 78.2502 116.266 78.5062 116.566 79.1716C116.869 79.8448 117.144 80.8148 117.531 82.1816L119.319 88.5C119.643 89.6459 119.87 90.4528 119.952 91.0722C120.033 91.6786 119.96 92.0043 119.782 92.2479C119.604 92.4914 119.317 92.6607 118.714 92.769C118.099 92.8796 117.262 92.9097 116.072 92.9507L106.486 93.281C104.087 93.3636 102.341 93.4227 101.128 93.3023C99.8738 93.178 99.4487 92.8843 99.308 92.5219Z" fill="white" stroke="#F4F4F4"/>
<path d="M133.351 72.619C136.343 71.9274 138.54 71.4202 140.082 71.2508C140.854 71.166 141.414 71.1722 141.806 71.26C142.182 71.3442 142.354 71.4901 142.446 71.6654C142.538 71.8406 142.561 72.0653 142.417 72.4223C142.267 72.7949 141.954 73.2596 141.446 73.8471C140.432 75.0205 138.767 76.5423 136.499 78.6133L125.635 88.5367C124.551 89.5269 123.779 90.23 123.148 90.6556C122.522 91.0771 122.145 91.1485 121.821 91.0562C121.497 90.9639 121.215 90.7048 120.905 90.0169C120.592 89.3223 120.307 88.3181 119.907 86.9053L117.939 79.9485C117.666 78.9863 117.477 78.3137 117.403 77.7892C117.332 77.279 117.382 76.9882 117.519 76.7565C117.656 76.5248 117.887 76.3405 118.368 76.1575C118.863 75.9693 119.544 75.8108 120.518 75.5856L133.351 72.619Z" fill="white" stroke="#F4F4F4"/>
<path d="M145.572 73.0942C145.748 73.1955 145.884 73.3631 145.968 73.6809C146.057 74.0158 146.079 74.4889 146.024 75.1424C145.915 76.4509 145.518 78.2988 144.973 80.8299L141.447 97.2051C141.203 98.3376 141.031 99.1335 140.819 99.7043C140.612 100.262 140.401 100.513 140.136 100.646C139.872 100.78 139.545 100.802 138.973 100.637C138.388 100.469 137.645 100.135 136.589 99.6598L126.942 95.3165C125.675 94.7458 124.776 94.34 124.167 93.9496C123.566 93.5643 123.355 93.2608 123.303 92.9367C123.251 92.6126 123.358 92.2583 123.809 91.7048C124.265 91.144 124.992 90.4783 126.019 89.5408L139.191 77.5089C141.103 75.7628 142.499 74.4888 143.575 73.7352C144.112 73.3588 144.531 73.1396 144.865 73.0475C145.182 72.9601 145.395 72.9929 145.572 73.0942Z" fill="white" stroke="#F4F4F4"/>
<path d="M146.388 79.0101C146.855 76.8443 147.194 75.2738 147.581 74.2131C147.977 73.1258 148.344 72.7983 148.724 72.7395C149.103 72.6807 149.553 72.8816 150.26 73.798C150.949 74.692 151.748 76.0861 152.848 78.0092L156.835 84.9796C157.247 85.7002 157.532 86.2008 157.703 86.6105C157.868 87.0074 157.9 87.2615 157.856 87.492C157.812 87.7224 157.689 87.9469 157.389 88.255C157.079 88.5731 156.63 88.9334 155.981 89.4516L149.353 94.7479C147.511 96.2197 146.171 97.289 145.143 97.9054C144.082 98.5409 143.571 98.5597 143.242 98.3556C142.912 98.1514 142.701 97.6858 142.797 96.4532C142.89 95.2579 143.25 93.5816 143.747 91.2768L146.388 79.0101Z" fill="white" stroke="#F4F4F4"/>
<path d="M155.123 111.945C154.798 112.081 154.39 112.04 153.663 111.614C152.935 111.187 152.024 110.456 150.749 109.431L145.096 104.884C144.186 104.153 143.548 103.637 143.129 103.189C142.72 102.75 142.591 102.447 142.592 102.149C142.592 101.852 142.722 101.549 143.133 101.112C143.552 100.665 144.193 100.151 145.105 99.4226L151.802 94.0711C153.409 92.7874 154.57 91.8606 155.475 91.3263C156.396 90.7825 156.866 90.7575 157.198 90.9391C157.53 91.1208 157.762 91.5304 157.8 92.5992C157.838 93.6493 157.683 95.1275 157.468 97.1725L156.424 107.071C156.252 108.697 156.128 109.859 155.918 110.676C155.708 111.492 155.449 111.81 155.123 111.945Z" fill="white" stroke="#F4F4F4"/>
<path d="M160.499 114.023C159.47 113.998 158.75 113.979 158.212 113.891C157.689 113.806 157.422 113.667 157.241 113.46C157.06 113.254 156.956 112.971 156.939 112.441C156.921 111.897 156.996 111.181 157.104 110.157L158.332 98.5062C158.572 96.2367 158.747 94.5887 159.024 93.4606C159.309 92.3008 159.647 91.9305 160.021 91.8352C160.395 91.74 160.869 91.9037 161.674 92.7859C162.457 93.644 163.399 95.0076 164.694 96.8862L172.888 108.767C173.873 110.194 174.577 111.218 174.972 112.018C175.367 112.821 175.373 113.246 175.201 113.563C175.03 113.879 174.671 114.107 173.783 114.216C172.897 114.324 171.655 114.295 169.922 114.253L160.499 114.023Z" fill="white" stroke="#F4F4F4"/>
<path d="M91.5894 111.477C89.8301 111.645 88.5675 111.765 87.6599 111.719C86.7483 111.673 86.3709 111.468 86.1789 111.16C85.987 110.852 85.9683 110.423 86.328 109.584C86.6861 108.749 87.3487 107.667 88.2736 106.161L92.9178 98.599C93.5171 97.6231 93.9393 96.938 94.324 96.4747C94.6999 96.0218 94.9798 95.8565 95.2714 95.8167C95.5631 95.777 95.8769 95.8614 96.3604 96.1971C96.855 96.5406 97.4451 97.0877 98.2838 97.8676L105.224 104.322C106.639 105.637 107.657 106.587 108.279 107.357C108.907 108.137 109.002 108.58 108.883 108.933C108.763 109.286 108.418 109.58 107.445 109.817C106.483 110.051 105.097 110.185 103.174 110.369L91.5894 111.477Z" fill="white" stroke="#F4F4F4"/>
<path d="M117.091 122.153C117.63 123.33 118.009 124.162 118.198 124.811C118.384 125.449 118.352 125.801 118.195 126.075C118.037 126.349 117.749 126.554 117.104 126.714C116.448 126.877 115.537 126.967 114.249 127.093L104.196 128.077C101.951 128.296 100.322 128.454 99.1749 128.41C97.9965 128.364 97.5686 128.11 97.3988 127.764C97.229 127.418 97.2897 126.924 97.9737 125.964C98.6398 125.028 99.7609 123.836 101.307 122.194L108.373 114.689C109.307 113.697 109.969 112.995 110.526 112.556C111.075 112.122 111.426 112.02 111.746 112.073C112.067 112.126 112.366 112.334 112.747 112.921C113.134 113.516 113.537 114.392 114.104 115.631L117.091 122.153Z" fill="white" stroke="#F4F4F4"/>
<path d="M153.98 117.874C154.305 118.079 154.513 118.524 154.447 119.678C154.383 120.803 154.074 122.378 153.647 124.548L150.676 139.641C150.381 141.137 150.17 142.202 149.905 142.946C149.642 143.685 149.373 143.97 149.05 144.085C148.727 144.199 148.338 144.146 147.67 143.736C146.996 143.323 146.163 142.627 144.994 141.647L136.893 134.861C135.99 134.104 135.355 133.571 134.942 133.11C134.539 132.659 134.416 132.351 134.424 132.051C134.432 131.752 134.571 131.451 134.999 131.022C135.436 130.584 136.098 130.085 137.041 129.378L148.113 121.072C149.882 119.745 151.166 118.783 152.152 118.237C153.163 117.677 153.655 117.67 153.98 117.874Z" fill="white" stroke="#F4F4F4"/>
<path d="M157.115 46.4085C157.456 46.3433 157.837 46.4583 158.446 46.9842C159.057 47.513 159.786 48.3571 160.805 49.5419L163.782 53.0007C164.481 53.8139 164.971 54.3844 165.277 54.8607C165.575 55.3251 165.65 55.6264 165.611 55.906C165.572 56.1856 165.418 56.4552 165.005 56.8207C164.581 57.1957 163.954 57.6113 163.059 58.2031L157.656 61.7764C155.605 63.1327 154.11 64.1198 152.987 64.6657C151.824 65.2309 151.301 65.2012 150.992 64.9624C150.684 64.7236 150.525 64.2239 150.783 62.9568C151.031 61.733 151.615 60.0394 152.417 57.7151L154.844 50.6831C155.354 49.2054 155.719 48.152 156.092 47.4348C156.463 46.7214 156.775 46.4736 157.115 46.4085Z" fill="white" stroke="#F4F4F4"/>
<path d="M173.445 64.1674C174.814 65.7462 175.804 66.889 176.384 67.785C176.975 68.6984 177.018 69.1718 176.847 69.5108C176.676 69.8498 176.27 70.0964 175.184 70.1638C174.119 70.2299 172.611 70.1132 170.528 69.9502L159.734 69.1057C157.311 68.9161 155.547 68.7769 154.339 68.5187C153.09 68.2516 152.698 67.909 152.6 67.5321C152.503 67.1552 152.68 66.6654 153.642 65.8263C154.574 65.0149 156.049 64.0377 158.077 62.6969L164.47 58.4691C165.178 58.0006 165.671 57.6762 166.078 57.4756C166.472 57.2813 166.728 57.2336 166.965 57.266C167.201 57.2983 167.435 57.4132 167.763 57.7062C168.101 58.0087 168.488 58.4535 169.045 59.095L173.445 64.1674Z" fill="white" stroke="#F4F4F4"/>
<path d="M176.342 72.3699C176.452 72.7373 176.316 73.2079 175.516 74.0291C174.734 74.8308 173.477 75.8085 171.741 77.1556L162.301 84.4848C161.442 85.1513 160.84 85.6176 160.342 85.9024C159.857 86.1802 159.55 86.239 159.27 86.1836C158.991 86.1283 158.729 85.9567 158.386 85.5149C158.035 85.062 157.656 84.4012 157.116 83.4578L152.286 75.012C151.452 73.5548 150.857 72.5111 150.542 71.7053C150.226 70.8995 150.253 70.4838 150.444 70.1828C150.634 69.8819 150.999 69.6802 151.862 69.6209C152.725 69.5616 153.923 69.6541 155.597 69.785L169.868 70.9016C172.058 71.073 173.646 71.1984 174.74 71.4383C175.86 71.6841 176.232 72.0026 176.342 72.3699Z" fill="white" stroke="#F4F4F4"/>
<path d="M146.655 145.489C146.556 145.847 146.232 146.16 145.287 146.453C144.352 146.743 142.994 146.96 141.109 147.26L133.553 148.46C132.127 148.686 131.113 148.846 130.364 148.854C129.622 148.861 129.271 148.717 129.051 148.465C128.831 148.214 128.734 147.847 128.839 147.113C128.945 146.37 129.237 145.387 129.65 144.003L131.447 137.978C131.844 136.646 132.127 135.702 132.433 135.046C132.735 134.4 133.007 134.149 133.322 134.055C133.636 133.961 134.001 134.019 134.61 134.392C135.226 134.771 135.983 135.403 137.048 136.295L142.807 141.12C144.271 142.346 145.324 143.23 145.977 143.96C146.636 144.697 146.754 145.131 146.655 145.489Z" fill="white" stroke="#F4F4F4"/>
<path d="M122.97 134.901C122.398 133.149 121.988 131.889 121.828 130.956C121.666 130.017 121.79 129.594 122.057 129.341C122.324 129.088 122.753 128.986 123.682 129.199C124.604 129.409 125.841 129.886 127.56 130.551L129.079 131.139C129.91 131.46 130.487 131.684 130.903 131.911C131.307 132.131 131.499 132.321 131.608 132.543C131.717 132.766 131.751 133.034 131.677 133.488C131.601 133.956 131.425 134.55 131.171 135.403L130.537 137.529C129.782 140.06 129.23 141.909 128.687 143.133C128.416 143.745 128.165 144.157 127.922 144.413C127.692 144.656 127.491 144.737 127.288 144.74C127.085 144.742 126.882 144.666 126.645 144.429C126.396 144.18 126.135 143.774 125.848 143.17C125.274 141.96 124.675 140.126 123.855 137.615L122.97 134.901Z" fill="white" stroke="#F4F4F4"/>
<path d="M102.478 100.403C100.958 98.9886 99.859 97.9652 99.1911 97.1415C98.5106 96.3022 98.4168 95.838 98.5494 95.4828C98.6821 95.1276 99.0571 94.8385 100.121 94.6506C101.166 94.4661 102.666 94.4132 104.741 94.3417L114.211 94.0155C115.78 93.9614 116.9 93.9241 117.707 94.0156C118.51 94.1067 118.854 94.3102 119.036 94.6055C119.219 94.9007 119.247 95.2995 118.969 96.0583C118.69 96.8209 118.156 97.8058 117.406 99.1855L114.108 105.251C113.534 106.306 113.128 107.049 112.751 107.554C112.381 108.048 112.099 108.23 111.8 108.279C111.501 108.328 111.175 108.245 110.668 107.894C110.15 107.535 109.529 106.96 108.649 106.142L102.478 100.403Z" fill="white" stroke="#F4F4F4"/>
<path d="M128.419 114.387C128.161 114.658 127.721 114.779 126.728 114.577C125.748 114.377 124.421 113.903 122.581 113.245L116.65 111.122C115.614 110.751 114.887 110.49 114.374 110.22C113.873 109.956 113.657 109.725 113.555 109.457C113.453 109.189 113.46 108.873 113.658 108.343C113.861 107.8 114.229 107.121 114.754 106.154L117.624 100.878C118.5 99.2662 119.132 98.1081 119.696 97.3542C120.265 96.5947 120.657 96.3951 121.023 96.4145C121.39 96.4339 121.758 96.6737 122.244 97.4891C122.726 98.2983 123.231 99.5166 123.933 101.212L126.994 108.611C127.742 110.417 128.279 111.72 128.526 112.689C128.777 113.671 128.677 114.117 128.419 114.387Z" fill="white" stroke="#F4F4F4"/>
<path d="M134.665 110.372C133.736 111.731 133.07 112.702 132.493 113.325C131.917 113.948 131.537 114.105 131.185 114.068C130.834 114.032 130.494 113.8 130.058 113.072C129.622 112.343 129.171 111.256 128.541 109.735L125.506 102.399C124.684 100.413 124.09 98.9739 123.815 97.9123C123.534 96.8272 123.646 96.357 123.921 96.0911C124.195 95.8253 124.668 95.7273 125.744 96.0416C126.797 96.3491 128.217 96.9872 130.177 97.8697L136.333 100.641C137.357 101.102 138.075 101.427 138.575 101.743C139.062 102.052 139.261 102.304 139.339 102.584C139.418 102.864 139.38 103.182 139.124 103.7C138.863 104.23 138.419 104.881 137.785 105.808L134.665 110.372Z" fill="white" stroke="#F4F4F4"/>
<path d="M133.666 115.132C133.479 114.815 133.477 114.372 133.9 113.508C134.319 112.651 135.073 111.547 136.122 110.012L138.867 105.998C139.447 105.15 139.853 104.558 140.218 104.156C140.573 103.765 140.835 103.616 141.106 103.576C141.377 103.536 141.67 103.602 142.124 103.874C142.59 104.153 143.15 104.602 143.95 105.246L148.143 108.618C149.788 109.941 150.979 110.9 151.716 111.686C152.469 112.488 152.596 112.949 152.487 113.314C152.377 113.678 152.016 113.992 150.946 114.245C149.897 114.493 148.375 114.635 146.272 114.83L139.334 115.473C137.483 115.644 136.152 115.766 135.199 115.717C134.239 115.667 133.852 115.45 133.666 115.132Z" fill="white" stroke="#F4F4F4"/>
<path d="M131.883 120.771C131.768 119.799 131.689 119.12 131.698 118.601C131.707 118.096 131.799 117.821 131.966 117.615C132.133 117.408 132.383 117.261 132.875 117.147C133.381 117.03 134.061 116.966 135.036 116.875L142.114 116.22C144.978 115.954 147.078 115.761 148.532 115.804C149.26 115.826 149.779 115.906 150.133 116.042C150.471 116.171 150.622 116.334 150.694 116.521C150.766 116.709 150.763 116.931 150.6 117.253C150.428 117.591 150.098 117.999 149.573 118.504C148.524 119.512 146.838 120.778 144.537 122.505L137.964 127.436C136.716 128.372 135.825 129.039 135.115 129.423C134.409 129.805 134.012 129.835 133.694 129.699C133.376 129.563 133.124 129.254 132.914 128.48C132.703 127.701 132.571 126.596 132.388 125.046L131.883 120.771Z" fill="white" stroke="#F4F4F4"/>
<path d="M129.899 119.505C130.238 119.629 130.515 119.952 130.749 120.821C130.983 121.687 131.131 122.928 131.335 124.66L131.431 125.468C131.607 126.958 131.731 128.019 131.707 128.796C131.684 129.567 131.519 129.919 131.25 130.127C130.981 130.336 130.599 130.409 129.847 130.239C129.088 130.068 128.092 129.684 126.692 129.143L126.012 128.88C124.661 128.357 123.701 127.985 123.047 127.613C122.399 127.246 122.168 126.944 122.105 126.615C122.041 126.286 122.143 125.92 122.607 125.337C123.075 124.749 123.827 124.046 124.887 123.057L125.471 122.511C126.746 121.322 127.661 120.47 128.399 119.96C129.139 119.448 129.559 119.38 129.899 119.505Z" fill="white" stroke="#F4F4F4"/>
<path d="M124.557 115.015C125.956 115.515 126.95 115.872 127.629 116.236C128.302 116.596 128.542 116.898 128.611 117.23C128.679 117.561 128.578 117.934 128.103 118.531C127.623 119.134 126.852 119.855 125.766 120.869L123.596 122.894C122.658 123.769 121.995 124.386 121.444 124.767C120.903 125.141 120.562 125.222 120.253 125.161C119.945 125.1 119.66 124.895 119.302 124.343C118.937 123.781 118.559 122.958 118.025 121.792L116.491 118.441C115.641 116.585 115.028 115.243 114.731 114.243C114.429 113.225 114.518 112.765 114.773 112.487C115.029 112.209 115.48 112.081 116.519 112.294C117.541 112.504 118.93 113 120.852 113.688L124.557 115.015Z" fill="white" stroke="#F4F4F4"/>
<path d="M88.2185 38.8892C88.2926 38.6874 88.4328 38.4991 88.7322 38.2542C89.0419 38.001 89.4755 37.7233 90.1029 37.3228L94.4013 34.5793C96.2307 33.4117 97.5569 32.5666 98.5631 32.1056C99.5924 31.6339 100.078 31.6632 100.387 31.8882C100.697 32.1132 100.874 32.566 100.742 33.6906C100.614 34.7899 100.219 36.3119 99.6713 38.4121L97.3139 47.4598C96.5914 50.2328 96.061 52.2645 95.527 53.6121C95.2599 54.2862 95.0082 54.7447 94.7609 55.0306C94.5252 55.3032 94.321 55.3897 94.1201 55.3941C93.9191 55.3985 93.7114 55.321 93.4639 55.059C93.2043 54.7842 92.9328 54.3372 92.6365 53.6754C92.0439 52.3525 91.4251 50.3459 90.5819 47.6072L88.6409 41.303C88.4219 40.5916 88.2712 40.0993 88.199 39.7058C88.1293 39.3254 88.1443 39.0911 88.2185 38.8892Z" fill="white" stroke="#F4F4F4"/>
<path d="M145.772 8.25742C146.05 9.66404 146.252 10.6915 146.344 11.4471C146.391 11.8236 146.407 12.1128 146.396 12.3351C146.385 12.5597 146.348 12.683 146.312 12.7499C146.024 13.2881 145.438 13.5981 144.832 13.5339C144.756 13.526 144.633 13.4879 144.441 13.3708C144.251 13.2549 144.021 13.0788 143.735 12.829C143.162 12.3277 142.426 11.5833 141.418 10.5638C139.858 8.98611 138.704 7.81859 137.935 6.94763C137.55 6.51197 137.275 6.16565 137.097 5.89039C136.911 5.60116 136.872 5.45212 136.87 5.39794C136.847 4.73116 137.268 4.12947 137.902 3.92146C137.953 3.90455 138.106 3.88934 138.442 3.96537C138.762 4.03773 139.182 4.1766 139.723 4.38799C140.806 4.81058 142.299 5.49243 144.317 6.41418C144.83 6.64845 145.004 6.73201 145.141 6.8435C145.312 6.98264 145.45 7.15779 145.546 7.35648C145.623 7.51568 145.664 7.70416 145.772 8.25742Z" fill="white" stroke="#F4F4F4"/>
<path d="M152.3 15.0618C153.188 16.1354 153.845 16.9296 154.294 17.5142C154.519 17.8064 154.684 18.0365 154.797 18.2165C154.917 18.4069 154.953 18.5013 154.959 18.5306C155.177 19.4971 154.414 20.4054 153.425 20.3586C153.395 20.3571 153.296 20.3382 153.087 20.2532C152.891 20.1729 152.635 20.0504 152.309 19.8799C151.655 19.539 150.759 19.0295 149.548 18.3408C149.271 18.1835 149.177 18.1285 149.097 18.0666C148.871 17.8906 148.701 17.6535 148.605 17.3836C148.572 17.2887 148.55 17.1819 148.488 16.8697C148.286 15.8444 148.138 15.0918 148.054 14.5398C148.012 14.2644 147.987 14.051 147.979 13.8864C147.971 13.7165 147.982 13.6283 147.992 13.5896C148.226 12.6834 149.224 12.2103 150.073 12.6026C150.11 12.6193 150.185 12.6666 150.311 12.7805C150.434 12.8908 150.584 13.0445 150.77 13.2513C151.144 13.6658 151.633 14.2567 152.3 15.0618Z" fill="white" stroke="#F4F4F4"/>
<path d="M153.945 128.214C154.494 125.423 154.898 123.378 155.347 122.011C155.571 121.327 155.794 120.857 156.022 120.559C156.24 120.275 156.438 120.176 156.638 120.159C156.839 120.142 157.051 120.206 157.313 120.45C157.588 120.705 157.887 121.13 158.223 121.767C158.896 123.039 159.638 124.987 160.65 127.646L162.236 131.813C162.478 132.451 162.645 132.892 162.737 133.249C162.826 133.593 162.831 133.812 162.783 134.006C162.735 134.2 162.628 134.391 162.388 134.654C162.14 134.926 161.787 135.237 161.274 135.688L158.365 138.242C156.521 139.861 155.178 141.039 154.141 141.731C153.069 142.447 152.547 142.488 152.209 142.294C151.871 142.1 151.645 141.627 151.726 140.34C151.803 139.096 152.147 137.343 152.621 134.936L153.945 128.214Z" fill="white" stroke="#F4F4F4"/>
<path d="M79.7224 68.1508C79.8667 67.0099 79.9693 66.2081 80.1295 65.6251C80.2861 65.0552 80.4737 64.7887 80.724 64.6324C80.9743 64.4761 81.2962 64.4246 81.877 64.5341C82.4711 64.6462 83.2365 64.906 84.3249 65.2774L93.7242 68.4841C95.6738 69.1492 97.0827 69.6312 98.0213 70.1074C98.9769 70.5922 99.2511 70.9755 99.2761 71.3532C99.3012 71.7308 99.0801 72.147 98.1969 72.7538C97.3295 73.3499 95.9966 74.0138 94.152 74.9307L83.6896 80.1315C82.2028 80.8706 81.1385 81.3981 80.3242 81.663C79.5106 81.9278 79.0998 81.8783 78.8105 81.6728C78.5213 81.4673 78.3393 81.0957 78.3213 80.2403C78.3033 79.3842 78.451 78.2056 78.6593 76.5583L79.7224 68.1508Z" fill="white" stroke="#F4F4F4"/>
<path d="M85.6353 113.75C85.7863 113.453 86.0885 113.227 86.8029 113.051C87.5254 112.872 88.538 112.774 89.9642 112.637L101.555 111.528C103.793 111.314 105.418 111.16 106.562 111.207C107.737 111.256 108.164 111.51 108.333 111.856C108.502 112.201 108.442 112.694 107.76 113.652C107.096 114.585 105.978 115.774 104.436 117.412L96.9168 125.398C96.0702 126.297 95.4723 126.93 94.9657 127.332C94.4689 127.726 94.1428 127.83 93.8367 127.796C93.5306 127.762 93.2351 127.589 92.8367 127.096C92.4305 126.593 91.9858 125.844 91.3567 124.781L87.2857 117.904C86.5559 116.671 86.0388 115.795 85.7577 115.106C85.4798 114.424 85.4843 114.047 85.6353 113.75Z" fill="white" stroke="#F4F4F4"/>
<path d="M117.653 128.553C117.851 128.845 117.892 129.254 117.617 130.053C117.342 130.854 116.803 131.896 116.048 133.353L112.718 139.779C112.173 140.832 111.788 141.572 111.426 142.078C111.071 142.573 110.796 142.76 110.5 142.816C110.205 142.873 109.88 142.801 109.368 142.472C108.844 142.136 108.213 141.59 107.318 140.814L100.995 135.331C99.4785 134.017 98.3844 133.066 97.7116 132.291C97.0282 131.504 96.9182 131.053 97.0324 130.694C97.1466 130.336 97.4971 130.032 98.51 129.785C99.5073 129.541 100.949 129.399 102.947 129.204L112.6 128.259C114.233 128.1 115.401 127.987 116.247 128.028C117.091 128.07 117.455 128.26 117.653 128.553Z" fill="white" stroke="#F4F4F4"/>
<path d="M115.932 135.751C116.876 133.93 117.559 132.614 118.167 131.76C118.786 130.891 119.205 130.677 119.582 130.708C119.959 130.739 120.337 131.018 120.807 131.975C121.269 132.917 121.73 134.326 122.367 136.276L124.43 142.599C124.97 144.256 125.357 145.444 125.508 146.328C125.66 147.215 125.544 147.625 125.288 147.88C125.032 148.135 124.622 148.25 123.736 148.096C122.853 147.943 121.665 147.554 120.01 147.01L115.447 145.51C114.396 145.164 113.659 144.921 113.136 144.663C112.626 144.411 112.403 144.185 112.294 143.918C112.185 143.651 112.186 143.334 112.374 142.797C112.567 142.247 112.923 141.557 113.432 140.575L115.932 135.751Z" fill="white" stroke="#F4F4F4"/>
<path d="M84.2789 108.965C83.9037 108.902 83.5463 108.584 83.1601 107.554C82.7817 106.545 82.4484 105.054 81.9895 102.993L79.6911 92.6701C79.2635 90.7495 78.9562 89.3639 78.8792 88.3598C78.8011 87.3418 78.9774 86.9186 79.2791 86.697C79.5808 86.4754 80.0375 86.4337 80.9854 86.8128C81.9205 87.1868 83.1507 87.8945 84.8554 88.8771L91.2348 92.5545C92.0851 93.0446 92.6781 93.3878 93.0899 93.706C93.4901 94.0153 93.6559 94.2546 93.7212 94.512C93.7866 94.7695 93.755 95.0588 93.5507 95.5216C93.3406 95.9977 92.9829 96.5821 92.4694 97.4184L88.3883 104.064C87.2833 105.863 86.4826 107.165 85.7961 107.996C85.0957 108.844 84.6542 109.028 84.2789 108.965Z" fill="white" stroke="#F4F4F4"/>
<path d="M85.9533 61.863C84.5458 62.0592 83.5464 62.1971 82.8078 62.1907C82.0778 62.1843 81.733 62.0361 81.5171 61.7841C81.3012 61.5322 81.2075 61.1687 81.313 60.4464C81.4197 59.7155 81.7091 58.7491 82.1185 57.3881L83.9596 51.2686C84.7374 48.6833 85.3071 46.7932 85.8629 45.5436C86.1407 44.919 86.397 44.4976 86.644 44.237C86.8787 43.9892 87.0816 43.909 87.2843 43.9084C87.487 43.9077 87.6904 43.9866 87.9267 44.2328C88.1753 44.4919 88.4344 44.9117 88.7162 45.5344C89.28 46.7804 89.8618 48.6668 90.6563 51.247L92.3871 56.8687C92.7126 57.926 92.9399 58.6681 93.0315 59.2437C93.1209 59.8054 93.0648 60.1176 92.9102 60.3606C92.7556 60.6035 92.4964 60.7866 91.9497 60.9434C91.3894 61.1041 90.6209 61.2124 89.5253 61.3651L85.9533 61.863Z" fill="white" stroke="#F4F4F4"/>
<path d="M102.072 28.2623L102.072 28.2623C102.06 28.2857 102.047 28.3088 102.034 28.3316C101.956 28.4626 101.842 28.5865 101.632 28.7488C101.413 28.9169 101.121 29.1041 100.695 29.3762C98.0523 31.0627 96.1067 32.3037 94.6808 33.011C93.9668 33.3653 93.4221 33.5653 93.0104 33.6312C92.6082 33.6956 92.3985 33.6234 92.2668 33.5135C92.2117 33.4674 92.16 33.4175 92.112 33.3641C91.9975 33.2365 91.9178 33.0294 91.9678 32.6252C92.019 32.2114 92.1996 31.6599 92.5282 30.9337C93.1843 29.4836 94.3552 27.495 95.9465 24.7942C97.4112 22.3085 98.4873 20.4838 99.37 19.3115C99.8117 18.725 100.179 18.3373 100.495 18.1137C100.802 17.897 101.016 17.8633 101.189 17.8992C101.258 17.9135 101.326 17.9327 101.393 17.9566C101.559 18.0164 101.724 18.157 101.872 18.5018C102.025 18.8575 102.136 19.3803 102.206 20.1111C102.346 21.5718 102.311 23.6899 102.261 26.5746C102.253 27.0803 102.246 27.4274 102.217 27.7014C102.189 27.9658 102.143 28.1274 102.072 28.2623Z" fill="white" stroke="#F4F4F4"/>
<path d="M114.232 6.47752L114.232 6.47753C114.229 6.50797 114.22 6.57183 114.195 6.73947C114.188 6.78583 114.185 6.80185 114.183 6.81596C114.09 7.35393 113.713 7.79922 113.197 7.97864L113.362 8.45086L113.197 7.97864C113.184 7.98334 113.168 7.98838 113.124 8.00287C112.833 8.09749 112.712 8.13635 112.679 8.14536C111.166 8.5519 110.121 6.65815 111.272 5.59491L110.933 5.22764L111.272 5.59491C111.297 5.57136 111.394 5.49035 111.63 5.2945C111.76 5.18606 111.81 5.14487 111.834 5.12638C112.88 4.33291 114.369 5.17156 114.232 6.47752Z" fill="white" stroke="#F4F4F4"/>
<path d="M117.249 1.62231C117.925 1.50313 118.425 1.41507 118.786 1.35853C119.169 1.29857 119.338 1.28451 119.392 1.28797C120.676 1.37102 121.266 2.92605 120.361 3.84031C120.323 3.87841 120.187 3.98018 119.861 4.18951C119.553 4.38688 119.121 4.65276 118.536 5.01247C117.974 5.35816 117.763 5.48443 117.638 5.5309C116.686 5.88366 115.666 5.20883 115.618 4.19481C115.612 4.06122 115.645 3.81802 115.744 3.16537C115.781 2.91856 115.794 2.8331 115.813 2.76115C115.948 2.25107 116.34 1.84894 116.846 1.70205C116.918 1.68133 117.003 1.66562 117.249 1.62231Z" fill="white" stroke="#F4F4F4"/>
<path d="M94.4704 92.6351C94.1957 92.7381 93.8722 92.7257 93.3288 92.5081C92.7727 92.2853 92.0789 91.8868 91.0922 91.318L83.9405 87.1955C82.5027 86.3667 81.4749 85.7727 80.8039 85.2414C80.1335 84.7106 79.9473 84.3412 79.9583 83.9866C79.9692 83.6321 80.1777 83.2749 80.8796 82.7863C81.582 82.2974 82.6444 81.7677 84.1305 81.029L94.4594 75.8947C96.3293 74.9651 97.6825 74.2939 98.6943 73.9572C99.7258 73.6141 100.195 73.6906 100.48 73.9409C100.766 74.1913 100.903 74.6463 100.697 75.7137C100.495 76.7608 100.006 78.1899 99.3277 80.165L96.1506 89.422C95.7808 90.4992 95.52 91.2556 95.2473 91.789C94.9808 92.3102 94.7451 92.5322 94.4704 92.6351Z" fill="white" stroke="#F4F4F4"/>
<path d="M114.861 59.6358C115.072 59.8161 115.216 60.0855 115.306 60.6176C115.399 61.1639 115.421 61.8975 115.452 62.9455L115.657 69.9251C115.695 71.2514 115.722 72.1898 115.641 72.8773C115.561 73.5539 115.39 73.8694 115.132 74.0596C114.874 74.2499 114.522 74.3203 113.852 74.1965C113.172 74.0708 112.283 73.7686 111.027 73.3398L96.1968 68.2759C92.9844 67.1789 90.6179 66.37 89.0694 65.6413C88.2934 65.2761 87.7666 64.9505 87.4478 64.6479C87.1394 64.3552 87.0733 64.1333 87.0923 63.9428C87.1113 63.7522 87.22 63.5478 87.5801 63.3217C87.9524 63.0881 88.5331 62.8729 89.3659 62.6682C91.0278 62.2597 93.5075 61.9341 96.8733 61.4933L111.499 59.5777C112.539 59.4415 113.266 59.3474 113.82 59.3519C114.36 59.3563 114.649 59.4555 114.861 59.6358Z" fill="white" stroke="#F4F4F4"/>
<path d="M105.847 84.311C103.595 86.2313 101.942 87.6394 100.695 88.4665C100.071 88.8805 99.5879 89.1217 99.2114 89.2188C98.8516 89.3117 98.6332 89.2638 98.4681 89.1514C98.3029 89.039 98.1783 88.8533 98.1328 88.4846C98.0851 88.0986 98.1324 87.5606 98.2888 86.8284C98.6012 85.3651 99.3053 83.311 100.266 80.5113L102.108 75.1441C102.426 74.2195 102.648 73.5744 102.881 73.1111C103.107 72.6607 103.309 72.4527 103.549 72.3391C103.788 72.2256 104.077 72.2004 104.569 72.3101C105.075 72.4229 105.716 72.6585 106.633 72.9975L109.739 74.146C111.18 74.6789 112.206 75.0598 112.904 75.4423C113.597 75.8222 113.836 76.1354 113.897 76.474C113.957 76.8126 113.84 77.1891 113.32 77.7846C112.797 78.3839 111.965 79.0953 110.796 80.0922L105.847 84.311Z" fill="white" stroke="#F4F4F4"/>
</g>
<g filter="url(#filter1_i_416_319)">
<path d="M35.9747 63.6226C36.5305 64.9401 36.9368 65.9023 37.2815 66.579C37.4532 66.9161 37.6009 67.1645 37.7338 67.3425C37.8681 67.5222 37.9679 67.6032 38.0346 67.6386C38.5765 67.9265 39.239 67.8552 39.7073 67.4588C39.7649 67.41 39.8452 67.3096 39.9382 67.1054C40.0303 66.9033 40.1218 66.6292 40.2179 66.2632C40.4109 65.5288 40.6033 64.5022 40.8664 63.0967C41.2727 60.9259 41.5731 59.3196 41.7219 58.1723C41.7963 57.5985 41.83 57.1595 41.8234 56.8332C41.8166 56.4902 41.7654 56.3457 41.7369 56.2999C41.3822 55.731 40.693 55.4665 40.0487 55.6521C39.9969 55.667 39.8622 55.7402 39.6276 55.9905C39.4044 56.2287 39.1358 56.5774 38.8072 57.0537C38.1502 58.006 37.2989 59.4009 36.1486 61.2861C35.8564 61.7651 35.7596 61.9309 35.7085 62.0991C35.6442 62.311 35.6276 62.5344 35.6598 62.7534L35.1652 62.8263L35.6598 62.7534C35.6854 62.9274 35.7566 63.1057 35.9747 63.6226Z" fill="white" stroke="#F4F4F4"/>
<path d="M34.382 72.9209C34.2484 74.2989 34.1496 75.3183 34.1052 76.0494C34.083 76.4149 34.0752 76.6961 34.082 76.9073C34.0892 77.1308 34.112 77.2285 34.1228 77.2563C34.4825 78.1834 35.6282 78.5103 36.4229 77.9126C36.4468 77.8946 36.5177 77.8237 36.6418 77.6376C36.759 77.4618 36.9008 77.2188 37.0748 76.8966C37.4228 76.2522 37.8768 75.3341 38.4904 74.0931C38.6304 73.81 38.6773 73.7124 38.7083 73.6174C38.7972 73.3445 38.806 73.0519 38.7335 72.7742C38.7083 72.6775 38.6674 72.5773 38.5446 72.2863C38.1403 71.3281 37.8434 70.6247 37.6058 70.1223C37.4872 69.8717 37.3885 69.6822 37.3035 69.5418C37.2158 69.3969 37.1578 69.3302 37.1282 69.3039C36.4262 68.6792 35.3292 68.8464 34.8452 69.652C34.8249 69.6859 34.7894 69.7669 34.7488 69.9313C34.7096 70.0906 34.6718 70.301 34.6333 70.5755C34.5561 71.1259 34.4823 71.8858 34.382 72.9209Z" fill="white" stroke="#F4F4F4"/>
<path d="M45.3149 99.2877C45.3127 98.9966 45.1874 98.701 44.797 98.2742C44.3973 97.8372 43.788 97.3344 42.9191 96.6195L39.5334 93.8342C37.949 92.5307 36.8031 91.5896 35.908 91.0438C34.997 90.4883 34.5279 90.4564 34.1935 90.6329C33.8591 90.8094 33.6208 91.2147 33.5654 92.2803C33.5109 93.3273 33.6414 94.8043 33.8236 96.8479L34.2925 102.107C34.4443 103.809 34.5543 105.028 34.7594 105.884C34.9649 106.741 35.2284 107.07 35.5602 107.206C35.8919 107.342 36.3102 107.293 37.0582 106.827C37.8051 106.362 38.7396 105.571 40.0427 104.466L42.9594 101.992C43.8175 101.264 44.4192 100.752 44.8123 100.309C45.1962 99.8762 45.3171 99.5788 45.3149 99.2877Z" fill="white" stroke="#F4F4F4"/>
<path d="M41.5667 116.839C41.5571 116.56 41.5529 116.464 41.5387 116.377C41.4877 116.064 41.3385 115.775 41.1127 115.551C41.0501 115.49 40.9745 115.431 40.7524 115.261C40.1612 114.809 39.7299 114.48 39.402 114.249C39.0601 114.009 38.8858 113.918 38.7971 113.892C37.866 113.616 36.9229 114.285 36.8741 115.255C36.8695 115.347 36.898 115.542 37.0115 115.944C37.1204 116.33 37.2884 116.846 37.5189 117.553C37.9835 118.979 38.3288 120.039 38.5926 120.782C38.7246 121.154 38.8329 121.437 38.9227 121.642C38.9676 121.745 39.0053 121.822 39.0363 121.879C39.0693 121.938 39.0862 121.958 39.0856 121.958C39.8277 122.793 41.1895 122.553 41.6012 121.514C41.6012 121.514 41.6012 121.514 41.6012 121.514C41.602 121.512 41.6105 121.486 41.6204 121.423C41.6304 121.359 41.6393 121.274 41.6464 121.162C41.6605 120.938 41.6654 120.635 41.6623 120.241C41.656 119.452 41.6179 118.338 41.5667 116.839L42.0664 116.822L41.5667 116.839Z" fill="white" stroke="#F4F4F4"/>
<path d="M66.6683 138.011C66.5303 137.674 66.1894 137.407 65.2859 137.212C64.3872 137.017 63.1055 136.928 61.3203 136.807L50.2993 136.057C48.6053 135.942 47.3921 135.861 46.5201 135.929C45.6472 135.998 45.2828 136.206 45.0961 136.511C44.9094 136.816 44.8904 137.235 45.2265 138.044C45.5624 138.851 46.187 139.894 47.0607 141.35L51.7775 149.209C52.4271 150.292 52.8868 151.055 53.3049 151.566C53.7154 152.068 54.0174 152.24 54.3279 152.268C54.6384 152.297 54.9668 152.184 55.4625 151.766C55.9675 151.341 56.5596 150.675 57.3972 149.731L63.7015 142.621C64.8886 141.282 65.7401 140.32 66.2441 139.551C66.7508 138.778 66.8064 138.348 66.6683 138.011Z" fill="white" stroke="#F4F4F4"/>
<path d="M68.8789 147.544C68.8998 145.284 68.9138 143.643 68.7678 142.502C68.6178 141.329 68.3267 140.925 67.9671 140.786C67.6075 140.648 67.1204 140.753 66.223 141.523C65.3494 142.272 64.2599 143.499 62.7604 145.19L56.966 151.724C56.3784 152.387 55.9706 152.848 55.7054 153.239C55.4484 153.617 55.3654 153.874 55.3697 154.12C55.374 154.366 55.4659 154.62 55.7361 154.989C56.0147 155.37 56.4385 155.817 57.0488 156.459L62.7276 162.428C64.1832 163.958 65.2375 165.065 66.082 165.735C66.9438 166.418 67.414 166.507 67.768 166.367C68.122 166.228 68.4053 165.842 68.5685 164.754C68.7284 163.688 68.7438 162.16 68.7633 160.048L68.8789 147.544Z" fill="white" stroke="#F4F4F4"/>
<path d="M88.4024 168.747L88.7073 168.353L88.4024 168.747C88.3631 168.717 88.3222 168.688 88.2801 168.662L88.5432 168.241L88.2801 168.662C88.0943 168.546 87.859 168.483 87.4503 168.479C87.0292 168.476 86.4877 168.534 85.7079 168.62C82.5691 168.963 80.2571 169.217 78.6881 169.558C77.9024 169.728 77.345 169.912 76.9763 170.117C76.6141 170.318 76.4947 170.504 76.4601 170.664C76.4405 170.755 76.4293 170.848 76.4268 170.941C76.4225 171.105 76.4943 171.313 76.7985 171.595C77.1081 171.881 77.606 172.192 78.3288 172.544C79.7723 173.247 81.9582 174.042 84.9259 175.12C86.3833 175.65 87.4263 176.028 88.2146 176.197C89.0046 176.366 89.3927 176.291 89.6483 176.093C89.7077 176.047 89.7635 175.997 89.8153 175.942C90.0384 175.708 90.1529 175.33 90.0661 174.527C89.9795 173.725 89.7112 172.649 89.3346 171.145C89.1441 170.384 89.011 169.856 88.8616 169.462C88.7165 169.08 88.5757 168.881 88.4024 168.747Z" fill="white" stroke="#F4F4F4"/>
<path d="M95.839 172.504C94.5996 171.75 93.7038 171.205 93.0119 170.876C92.3029 170.538 91.935 170.492 91.7035 170.56C91.3649 170.66 91.0722 170.875 90.8768 171.169C90.7431 171.37 90.6774 171.735 90.7892 172.512C90.8982 173.27 91.1522 174.288 91.5046 175.695C91.741 176.64 91.8318 176.959 92.0144 177.191C92.1241 177.33 92.2577 177.449 92.409 177.542C92.6606 177.696 92.9882 177.749 93.9539 177.874C96.5002 178.202 98.3789 178.444 99.7105 178.511C100.377 178.544 100.877 178.532 101.241 178.473C101.614 178.413 101.77 178.316 101.833 178.247C102.108 177.946 102.248 177.545 102.222 177.138C102.216 177.045 102.155 176.872 101.902 176.592C101.654 176.318 101.271 175.996 100.731 175.605C99.6497 174.825 98.0319 173.839 95.839 172.504Z" fill="white" stroke="#F4F4F4"/>
<path d="M117.278 170.916C117.152 171.024 117.042 171.171 116.731 171.607C115.906 172.76 115.301 173.607 114.9 174.245C114.701 174.563 114.561 174.815 114.473 175.016C114.382 175.222 114.361 175.34 114.361 175.401C114.361 176.123 114.875 176.743 115.585 176.876C115.645 176.887 115.765 176.888 115.984 176.837C116.198 176.787 116.471 176.696 116.821 176.559C117.522 176.283 118.465 175.844 119.751 175.245C121.07 174.631 122.038 174.181 122.717 173.814C123.056 173.631 123.308 173.477 123.488 173.342C123.673 173.204 123.75 173.111 123.779 173.059C124.135 172.425 123.985 171.628 123.424 171.166C123.378 171.128 123.272 171.069 123.049 171.007C122.833 170.948 122.542 170.895 122.16 170.848C121.394 170.752 120.328 170.683 118.876 170.59C118.342 170.555 118.158 170.547 117.995 170.576C117.73 170.623 117.482 170.74 117.278 170.916Z" fill="white" stroke="#F4F4F4"/>
<path d="M124.048 76.4127C123.295 75.552 122.765 74.9481 122.309 74.5562C121.863 74.1731 121.56 74.0569 121.266 74.0662C120.972 74.0755 120.677 74.2107 120.257 74.6211C119.826 75.0412 119.336 75.6774 118.639 76.5839L112.412 84.6837C111.136 86.3431 110.214 87.5443 109.687 88.4743C109.15 89.4225 109.135 89.8981 109.326 90.2264C109.517 90.5547 109.938 90.7766 111.028 90.7783C112.096 90.78 113.596 90.5723 115.669 90.2834L127.536 88.63C129.169 88.4025 130.336 88.2385 131.152 87.9991C131.967 87.76 132.278 87.489 132.401 87.1574C132.525 86.8258 132.468 86.4178 132.008 85.7036C131.548 84.9884 130.773 84.1001 129.687 82.8591L124.048 76.4127Z" fill="white" stroke="#F4F4F4"/>
<path d="M144.671 117.542C144.379 117.381 144.003 117.363 143.312 117.615C142.614 117.871 141.721 118.355 140.463 119.039L130.274 124.578C128.302 125.65 126.871 126.429 125.95 127.108C125.005 127.804 124.793 128.253 124.846 128.634C124.899 129.015 125.224 129.39 126.323 129.804C127.393 130.207 128.981 130.569 131.171 131.066L141.838 133.489C143.045 133.763 143.896 133.955 144.542 134.006C145.176 134.056 145.504 133.96 145.74 133.76C145.975 133.561 146.123 133.252 146.177 132.618C146.232 131.973 146.181 131.101 146.107 129.866L145.629 121.904C145.543 120.475 145.481 119.461 145.328 118.733C145.177 118.014 144.962 117.704 144.671 117.542Z" fill="white" stroke="#F4F4F4"/>
<path d="M126.476 147.677C126.475 148.03 126.669 148.392 127.342 148.901C128.017 149.411 129.044 149.975 130.483 150.761L136.818 154.226C137.861 154.796 138.595 155.196 139.179 155.414C139.751 155.627 140.084 155.628 140.361 155.51C140.637 155.391 140.867 155.149 141.107 154.588C141.353 154.015 141.571 153.208 141.878 152.061L144.038 144.001C144.556 142.065 144.93 140.668 145.052 139.65C145.177 138.617 145.016 138.182 144.721 137.949C144.426 137.716 143.965 137.66 142.989 138.021C142.028 138.376 140.755 139.063 138.992 140.017L130.497 144.612C129.055 145.392 128.025 145.95 127.348 146.457C126.672 146.963 126.477 147.324 126.476 147.677Z" fill="white" stroke="#F4F4F4"/>
<path d="M131.947 152.702C130.143 151.715 128.839 151.003 127.855 150.634C126.855 150.257 126.387 150.314 126.092 150.55C125.796 150.787 125.638 151.23 125.785 152.289C125.93 153.33 126.337 154.759 126.902 156.735L128.724 163.101C129.203 164.777 129.548 165.978 129.917 166.796C130.288 167.615 130.614 167.89 130.968 167.959C131.323 168.027 131.727 167.893 132.376 167.269C133.022 166.647 133.789 165.659 134.856 164.281L137.777 160.508C138.453 159.635 138.927 159.022 139.215 158.516C139.496 158.023 139.554 157.711 139.495 157.43C139.436 157.148 139.259 156.885 138.804 156.546C138.337 156.198 137.658 155.825 136.689 155.295L131.947 152.702Z" fill="white" stroke="#F4F4F4"/>
<path d="M143.111 112.81C143.387 112.549 143.506 112.085 143.249 111.013C142.997 109.963 142.438 108.537 141.664 106.568L137.805 96.7583C137.085 94.9256 136.564 93.604 136.065 92.7278C135.56 91.8394 135.177 91.5872 134.802 91.5725C134.428 91.5578 134.026 91.7792 133.453 92.6251C132.887 93.4595 132.264 94.7361 131.402 96.5067L128.193 103.094C127.764 103.974 127.466 104.589 127.303 105.082C127.145 105.562 127.142 105.852 127.232 106.102C127.321 106.352 127.509 106.574 127.936 106.843C128.375 107.12 128.996 107.405 129.887 107.811L136.954 111.034C138.879 111.912 140.273 112.546 141.308 112.853C142.365 113.166 142.835 113.072 143.111 112.81Z" fill="white" stroke="#F4F4F4"/>
<path d="M115.305 74.4047C116.454 73.741 117.267 73.2703 117.81 72.8403C118.344 72.4171 118.523 72.1056 118.549 71.7861C118.576 71.4667 118.451 71.1301 117.993 70.625C117.528 70.1118 116.804 69.5141 115.779 68.6707L111.423 65.0879C109.283 63.3269 107.716 62.0387 106.53 61.2888C105.937 60.9138 105.478 60.6994 105.12 60.6173C104.779 60.5391 104.565 60.5869 104.398 60.7002C104.23 60.8135 104.106 60.995 104.053 61.3403C103.996 61.7032 104.025 62.2085 104.153 62.8983C104.409 64.278 105.024 66.2114 105.865 68.8526L107.505 74.0031C107.858 75.1113 108.107 75.8902 108.373 76.4401C108.634 76.978 108.869 77.2071 109.146 77.3144C109.423 77.4217 109.752 77.4109 110.306 77.1888C110.874 76.9617 111.582 76.5538 112.59 75.9723L115.305 74.4047Z" fill="white" stroke="#F4F4F4"/>
<path d="M85.0523 55.987C88.1744 55.9112 90.4727 55.8548 92.0453 55.6467C92.8328 55.5425 93.3949 55.4052 93.7727 55.2309C94.1419 55.0606 94.2757 54.8844 94.3239 54.721C94.3455 54.6481 94.3614 54.5737 94.3716 54.4983C94.3945 54.3296 94.3445 54.114 94.0775 53.8074C93.8042 53.4938 93.3476 53.1383 92.6718 52.7208C91.3223 51.8871 89.2486 50.8945 86.4313 49.547C83.8332 48.3043 81.9252 47.3927 80.5406 46.9129C79.8479 46.6728 79.3269 46.556 78.9401 46.5462C78.5649 46.5368 78.3686 46.6277 78.2454 46.7528C78.1929 46.806 78.1445 46.8631 78.1005 46.9236C77.9973 47.0656 77.9397 47.2741 78.0104 47.6427C78.0833 48.0227 78.2837 48.5176 78.6337 49.1617C79.3334 50.4492 80.5447 52.1826 82.1954 54.5425C82.4839 54.9551 82.6824 55.2381 82.8588 55.4483C83.029 55.6511 83.157 55.7589 83.2904 55.8311L83.0524 56.2708L83.2904 55.8311C83.3151 55.8444 83.3401 55.8571 83.3654 55.869C83.5027 55.9337 83.6653 55.9728 83.9296 55.9897C84.2034 56.0071 84.549 55.9992 85.0523 55.987Z" fill="white" stroke="#F4F4F4"/>
<path d="M61.2891 44.8061L61.2891 44.8061C61.6665 45.2013 62.2288 45.3599 62.7571 45.2203C62.7706 45.2167 62.7858 45.2124 62.8297 45.1998C63.1161 45.1179 63.2342 45.0839 63.2662 45.073C64.7506 44.5662 64.5595 42.4087 63.0091 42.1708L63.0849 41.6766L63.0091 42.1708C62.9756 42.1657 62.8534 42.153 62.557 42.1227L62.6079 41.6253L62.557 42.1227C62.3926 42.1058 62.3299 42.0996 62.3002 42.0979C60.9872 42.0219 60.219 43.5522 61.0645 44.5596C61.0837 44.5825 61.1261 44.629 61.2379 44.7508L60.8694 45.0888L61.2379 44.7508C61.2687 44.7844 61.2794 44.7961 61.2891 44.8061Z" fill="white" stroke="#F4F4F4"/>
<path d="M55.8464 42.2131C55.2231 42.4905 54.7625 42.6956 54.4336 42.8495C54.0848 43.0128 53.9375 43.0951 53.8953 43.1277C52.8752 43.9138 53.2547 45.5352 54.5176 45.7869C54.57 45.7974 54.7385 45.8058 55.1235 45.7973C55.4866 45.7893 55.9903 45.7686 56.672 45.7406C57.3287 45.7136 57.5729 45.7009 57.7023 45.6697C58.6906 45.4314 59.1606 44.2999 58.6321 43.4315C58.5629 43.3178 58.3996 43.1358 57.9553 42.6514C57.7873 42.4683 57.7286 42.4053 57.673 42.3564C57.2764 42.0077 56.7256 41.8932 56.2229 42.055C56.1524 42.0777 56.0734 42.1121 55.8464 42.2131Z" fill="white" stroke="#F4F4F4"/>
<path d="M60.2297 67.3846C60.5267 67.589 60.95 67.6286 61.7912 67.3204C62.63 67.013 63.7244 66.4204 65.2501 65.5923L75.9601 59.779C77.4616 58.9641 78.5366 58.3791 79.2404 57.8511C79.9452 57.3223 80.142 56.9501 80.1352 56.5916C80.1283 56.2332 79.9176 55.8687 79.1931 55.3672C78.4697 54.8664 77.3732 54.3227 75.8418 53.5655L66.5168 48.9548C65.3615 48.3836 64.5447 47.9812 63.9042 47.7736C63.2747 47.5695 62.9232 47.5905 62.6448 47.7389C62.3665 47.8873 62.1531 48.1674 61.9716 48.8038C61.7869 49.4513 61.6657 50.3537 61.496 51.6313L60.1109 62.0553C59.8823 63.7761 59.7196 65.01 59.7321 65.9032C59.7446 66.799 59.9327 67.1802 60.2297 67.3846Z" fill="white" stroke="#F4F4F4"/>
<path d="M74.3987 45.1401C74.0686 44.6682 73.8403 44.3427 73.6378 44.1042C73.4415 43.8729 73.2956 43.7561 73.1463 43.6841C73.0487 43.637 72.9462 43.6007 72.8407 43.5757C72.6794 43.5375 72.4925 43.5363 72.1943 43.5921C71.8868 43.6496 71.5044 43.7585 70.9507 43.9168C69.2229 44.4111 67.9713 44.77 67.1075 45.1304C66.2201 45.5007 65.9138 45.8068 65.8264 46.0891C65.764 46.2906 65.7447 46.503 65.7699 46.7124C65.8053 47.0058 66.0516 47.3619 66.8581 47.8856C67.6431 48.3952 68.8099 48.9731 70.4209 49.7696C72.7198 50.9063 74.4087 51.7407 75.646 52.2062C76.2645 52.4389 76.7371 52.5662 77.0958 52.6009C77.4517 52.6354 77.6387 52.5737 77.748 52.494C77.9353 52.3574 78.0884 52.1792 78.1953 51.9735C78.2576 51.8534 78.2904 51.6593 78.2028 51.3127C78.1144 50.9633 77.9174 50.5152 77.5942 49.9388C76.9477 48.7857 75.8686 47.2416 74.3987 45.1401Z" fill="white" stroke="#F4F4F4"/>
<path d="M53.1151 59.925C54.3516 61.9391 55.252 63.4034 56.0121 64.3343C56.7961 65.2945 57.271 65.4856 57.6505 65.405C58.0299 65.3244 58.3862 64.9568 58.7123 63.7609C59.0284 62.6014 59.256 60.8976 59.5673 58.5547L60.6128 50.686C60.7602 49.5765 60.8625 48.7974 60.8571 48.2081C60.8518 47.6327 60.7428 47.3319 60.5472 47.1177C60.3516 46.9034 60.062 46.7675 59.4894 46.7099C58.903 46.6509 58.1179 46.682 56.9995 46.728L51.2676 46.9636C49.7341 47.0267 48.6414 47.0729 47.861 47.2218C47.0857 47.3697 46.7614 47.5937 46.5998 47.897C46.4381 48.2004 46.4331 48.5944 46.7428 49.3204C47.0546 50.0512 47.6256 50.984 48.4287 52.2919L53.1151 59.925Z" fill="white" stroke="#F4F4F4"/>
<path d="M52.726 70.3271C54.0495 70.0889 54.9862 69.919 55.6506 69.6954C56.305 69.4752 56.5801 69.2397 56.712 68.9451L57.1683 69.1495L56.712 68.9451C56.8439 68.6506 56.8365 68.2885 56.565 67.6537C56.2894 67.0091 55.7924 66.1971 55.0888 65.0511L49.4406 55.8514C48.2874 53.9731 47.4501 52.6117 46.7366 51.7441C46.0054 50.8552 45.5514 50.6686 45.1741 50.7383C44.7969 50.8081 44.4396 51.1446 44.0746 52.2362C43.7183 53.3016 43.4231 54.8723 43.0176 57.0387L41.0388 67.611C40.7936 68.921 40.6214 69.8483 40.5945 70.5429C40.5681 71.2267 40.6891 71.5658 40.9155 71.7937C41.1418 72.0216 41.48 72.145 42.164 72.1233C42.8587 72.1013 43.7872 71.9356 45.0989 71.6995L52.726 70.3271Z" fill="white" stroke="#F4F4F4"/>
<path d="M62.5461 68.1978C61.6592 68.6792 61.0399 69.0166 60.6094 69.333C60.1905 69.6409 60.0171 69.882 59.9478 70.1439C59.8785 70.4057 59.9098 70.7011 60.1215 71.1758C60.339 71.6639 60.7102 72.2635 61.2426 73.1207L66.707 81.9174C67.6425 83.4234 68.315 84.5036 68.9032 85.2C69.4941 85.8995 69.8873 86.0751 70.2488 86.0407C70.6102 86.0062 70.9632 85.7595 71.4114 84.961C71.8575 84.1662 72.314 82.9784 72.9484 81.3229L78.6387 66.4715C79.4565 64.337 80.0494 62.7864 80.3147 61.6534C80.5875 60.4885 80.4544 60.0048 80.1641 59.7503C79.8738 59.4959 79.3768 59.4273 78.2577 59.8504C77.1693 60.2618 75.7097 61.0528 73.7007 62.1432L62.5461 68.1978Z" fill="white" stroke="#F4F4F4"/>
<path d="M58.8449 72.7215C58.4846 72.7539 58.132 72.9962 57.6807 73.7811C57.231 74.563 56.7678 75.7326 56.1238 77.3637L50.9483 90.4713C50.1871 92.3993 49.6378 93.7938 49.3906 94.8234C49.1388 95.8722 49.254 96.3311 49.5265 96.5945C49.799 96.8579 50.2614 96.9576 51.3012 96.6706C52.3218 96.3888 53.697 95.7927 55.5983 94.9668L66.0859 90.411C67.0876 89.9759 67.7895 89.6697 68.2804 89.3686C68.7592 89.075 68.9589 88.8322 69.044 88.5595L69.515 88.7066L69.044 88.5595C69.1291 88.2869 69.1031 87.9736 68.8763 87.4597C68.6438 86.9329 68.2407 86.2818 67.6644 85.354L62.3523 76.8023C61.4269 75.3126 60.7621 74.2448 60.1798 73.5558C59.5954 72.8643 59.2052 72.689 58.8449 72.7215Z" fill="white" stroke="#F4F4F4"/>
<path d="M55.4784 76.2753C56.0679 74.7823 56.4876 73.7156 56.6758 72.9081C56.8632 72.1034 56.7837 71.706 56.5618 71.4352C56.3398 71.1643 55.9659 71.0081 55.14 71.0336C54.3113 71.0592 53.1829 71.2609 51.6031 71.5452L43.9232 72.9272C42.8916 73.1128 42.1697 73.2439 41.6433 73.4163C41.1306 73.5841 40.8856 73.7663 40.7386 74.0022C40.5917 74.2381 40.5363 74.5384 40.6117 75.0726C40.6891 75.621 40.8898 76.3267 41.178 77.3345L44.1753 87.8121C44.851 90.1744 45.3444 91.8951 45.8425 93.0393C46.3582 94.224 46.775 94.5417 47.1643 94.5607C47.5536 94.5797 47.9994 94.304 48.6279 93.1751C49.2349 92.0848 49.8933 90.4203 50.7957 88.1349L55.4784 76.2753Z" fill="white" stroke="#F4F4F4"/>
<path d="M33.5073 87.1608C33.5539 87.3777 33.6718 87.5892 33.9491 87.8796C34.2358 88.1799 34.6489 88.5209 35.2464 89.0124L37.3322 90.7283C39.3765 92.4102 40.8707 93.6382 42.0068 94.3519C42.5745 94.7086 43.0139 94.9111 43.3584 94.9881C43.6857 95.0613 43.8979 95.0162 44.0678 94.9048C44.2376 94.7934 44.3635 94.6167 44.4268 94.2874C44.4935 93.9407 44.4828 93.4569 44.3818 92.7942C44.1798 91.4678 43.6489 89.608 42.9208 87.0629L41.8454 83.3036C41.2409 81.1903 40.8015 79.6585 40.3483 78.6339C39.8841 77.5844 39.4976 77.2831 39.1157 77.2485C38.7338 77.2139 38.2996 77.4409 37.6544 78.39C37.0245 79.3166 36.3172 80.7446 35.343 82.7149L34.3326 84.7582C33.9897 85.4518 33.753 85.9324 33.6149 86.3238C33.4814 86.7025 33.4607 86.9438 33.5073 87.1608Z" fill="white" stroke="#F4F4F4"/>
<path d="M87.6061 87.5845C87.7875 87.3616 87.8795 87.0588 87.8568 86.4924C87.8337 85.9119 87.6959 85.151 87.498 84.0665L85.0519 70.6683C84.5312 67.816 84.1486 65.7253 83.7122 64.3255C83.4938 63.6251 83.2751 63.1433 83.0479 62.8363C82.8311 62.5434 82.6331 62.4422 82.4334 62.4236C82.2337 62.405 82.0204 62.4681 81.7534 62.716C81.4736 62.9759 81.1698 63.4091 80.8261 64.0573C80.1393 65.3527 79.3779 67.3371 78.3405 70.0446L73.1359 83.6285C72.6467 84.9052 72.3013 85.8103 72.1465 86.5053C71.9939 87.1906 72.0554 87.5515 72.243 87.8174C72.4307 88.0834 72.7502 88.2622 73.447 88.348C74.1537 88.435 75.1222 88.4128 76.489 88.3797L84.1397 88.1941C85.2418 88.1674 86.0148 88.1474 86.5879 88.0521C87.147 87.959 87.4248 87.8073 87.6061 87.5845Z" fill="white" stroke="#F4F4F4"/>
<path d="M88.3601 83.221C88.5834 84.4438 88.7421 85.306 88.9501 85.9226C89.1542 86.5273 89.3729 86.7925 89.6497 86.93C89.9266 87.0674 90.2701 87.0814 90.8752 86.8783C91.4921 86.6713 92.2748 86.2765 93.3839 85.7152L102.692 81.0036C103.899 80.3926 104.754 79.9588 105.329 79.5519C105.897 79.151 106.093 78.845 106.134 78.5239C106.175 78.2028 106.062 77.8572 105.614 77.3263C105.16 76.7875 104.442 76.1525 103.428 75.2571L91.3056 64.5545C89.495 62.956 88.1763 61.7931 87.1567 61.1099C86.1028 60.4038 85.5859 60.3604 85.2472 60.5517C84.9085 60.7429 84.6787 61.208 84.7392 62.4751C84.7976 63.701 85.1123 65.4308 85.5461 67.8068L88.3601 83.221Z" fill="white" stroke="#F4F4F4"/>
<path d="M88.686 88.8506L88.4543 89.2843C88.3052 89.2046 88.1266 89.1563 87.8328 89.1349C87.5282 89.1127 87.142 89.1216 86.5798 89.1352L86.1107 89.1466C82.9851 89.2224 80.688 89.279 79.125 89.5005C78.3422 89.6114 77.7911 89.7581 77.427 89.9426C77.0777 90.1196 76.9472 90.3051 76.9028 90.497C76.8585 90.689 76.8942 90.9129 77.1305 91.2253C77.3766 91.5509 77.8074 91.9246 78.462 92.3678C79.7692 93.2529 81.8083 94.3121 84.5835 95.7522L85.2935 96.1206C87.9539 97.5012 89.9068 98.5135 91.3248 99.0461C92.0345 99.3126 92.566 99.4412 92.959 99.4518C93.3349 99.462 93.5373 99.3653 93.6719 99.2185C93.8065 99.0717 93.8854 98.8617 93.8427 98.4881C93.7981 98.0975 93.6241 97.5791 93.2972 96.8951C92.6441 95.5284 91.4666 93.6704 89.8612 91.1393L89.6203 90.7595C89.3191 90.2847 89.1117 89.9587 88.924 89.7178C88.7429 89.4855 88.6034 89.3639 88.4543 89.2843L88.686 88.8506Z" fill="white" stroke="#F4F4F4"/>
<path d="M75.5187 92.1749C74.3218 91.5537 73.4737 91.1151 72.8093 90.886C72.1547 90.6602 71.7924 90.6792 71.5079 90.8326C71.2235 90.9859 71.0085 91.2782 70.8374 91.9492C70.6637 92.6302 70.5641 93.5798 70.4252 94.9211L69.0082 108.611C68.8563 110.078 68.7497 111.121 68.7835 111.886C68.8171 112.643 68.9844 112.989 69.2524 113.194C69.5204 113.399 69.8979 113.471 70.6378 113.307C71.3846 113.141 72.3645 112.767 73.7416 112.24L89.7342 106.113C91.5385 105.422 92.8383 104.923 93.7026 104.441C94.5773 103.953 94.8312 103.577 94.8522 103.205C94.8732 102.833 94.6633 102.431 93.8491 101.847C93.0446 101.271 91.8092 100.628 90.0942 99.7385L75.5187 92.1749Z" fill="white" stroke="#F4F4F4"/>
<path d="M69.0775 91.0119C68.7998 90.8085 68.4096 90.7478 67.6446 90.9533C66.8748 91.16 65.8676 91.5961 64.4551 92.2097L53.4257 97.0009C52.0103 97.6157 51.002 98.0552 50.3241 98.4776C49.6505 98.8973 49.4284 99.2245 49.3878 99.5666C49.3472 99.9087 49.4866 100.279 50.0433 100.844C50.6035 101.414 51.481 102.077 52.7133 103.006L62.4843 110.372C63.7514 111.327 64.6567 112.008 65.3769 112.4C66.0941 112.791 66.4953 112.821 66.8149 112.682C67.1345 112.542 67.3856 112.228 67.588 111.437C67.7912 110.642 67.9092 109.516 68.0726 107.937L69.331 95.7803C69.4895 94.2484 69.6012 93.1565 69.5659 92.3602C69.5309 91.5689 69.3552 91.2153 69.0775 91.0119Z" fill="white" stroke="#F4F4F4"/>
<path d="M121.501 107.57C121.415 107.191 121.038 106.838 119.819 106.531C118.638 106.233 116.907 106.034 114.527 105.762L104.379 104.602C102.965 104.44 101.961 104.327 101.222 104.352C100.492 104.376 100.15 104.533 99.9409 104.79C99.7313 105.048 99.6469 105.414 99.7713 106.134C99.8971 106.863 100.212 107.823 100.657 109.174L102.708 115.4C103.08 116.53 103.344 117.326 103.622 117.885C103.894 118.433 104.137 118.661 104.421 118.764C104.704 118.866 105.037 118.846 105.597 118.599C106.168 118.347 106.879 117.903 107.888 117.272L115.985 112.206C118.016 110.935 119.494 110.01 120.431 109.233C121.399 108.43 121.587 107.949 121.501 107.57Z" fill="white" stroke="#F4F4F4"/>
<path d="M82.2369 110.056C79.3735 111.153 77.2708 111.96 75.8996 112.68C75.2132 113.041 74.7529 113.358 74.4774 113.65C74.2134 113.929 74.152 114.146 74.1736 114.343C74.1951 114.54 74.302 114.739 74.62 114.955C74.952 115.18 75.4701 115.391 76.2183 115.594C77.7127 116.001 79.94 116.334 82.9728 116.786L97.4828 118.95C98.9375 119.167 99.9721 119.32 100.735 119.32C101.491 119.321 101.844 119.169 102.061 118.912C102.278 118.654 102.367 118.281 102.239 117.536C102.109 116.784 101.783 115.79 101.323 114.393L99.0647 107.537C98.7521 106.588 98.5327 105.925 98.3004 105.449C98.0746 104.987 97.8702 104.774 97.6272 104.659C97.3842 104.543 97.0903 104.519 96.5891 104.636C96.0737 104.757 95.4214 105.006 94.4884 105.363L82.2369 110.056Z" fill="white" stroke="#F4F4F4"/>
<path d="M72.3966 117.276C72.3068 117.459 72.2878 117.673 72.3956 117.984C72.5092 118.312 72.7553 118.717 73.166 119.229C73.9882 120.254 75.3509 121.566 77.2185 123.363L89.2708 134.955C90.107 135.76 90.6958 136.324 91.1908 136.68C91.6748 137.028 91.9904 137.117 92.2848 137.08C92.5792 137.043 92.8626 136.878 93.2448 136.42C93.6356 135.952 94.0653 135.259 94.675 134.272L100.215 125.302C100.943 124.122 101.459 123.285 101.744 122.622C102.026 121.967 102.031 121.598 101.893 121.301C101.755 121.003 101.469 120.769 100.788 120.562C100.097 120.352 99.1248 120.206 97.7529 120.001L80.161 117.378C77.598 116.996 75.7268 116.718 74.4129 116.693C73.7567 116.68 73.2856 116.733 72.9569 116.843C72.6448 116.947 72.4863 117.094 72.3966 117.276Z" fill="white" stroke="#F4F4F4"/>
<path d="M75.0387 122.653C73.4385 121.114 72.2771 119.999 71.362 119.333C70.4238 118.651 69.9353 118.585 69.5877 118.749C69.2401 118.912 68.9798 119.331 68.9074 120.489C68.8368 121.618 68.9561 123.224 69.1222 125.438L69.7207 133.416C69.7827 134.242 69.8266 134.815 69.9144 135.249C69.9995 135.67 70.1148 135.898 70.2799 136.064C70.4449 136.231 70.6724 136.348 71.0923 136.436C71.5259 136.526 72.0987 136.574 72.9244 136.642L81.3388 137.333C83.6901 137.526 85.4002 137.666 86.5983 137.603C87.8339 137.538 88.2684 137.269 88.4279 136.915C88.5875 136.562 88.5023 136.058 87.7334 135.088C86.9877 134.148 85.752 132.958 84.0516 131.323L75.0387 122.653Z" fill="white" stroke="#F4F4F4"/>
<path d="M86.2086 154.807C86.5545 154.737 86.87 154.474 87.2338 153.713C87.5982 152.95 87.9442 151.832 88.4263 150.266L90.5532 143.361C90.8961 142.248 91.1359 141.465 91.231 140.86C91.324 140.269 91.2611 139.946 91.0944 139.7C90.9277 139.454 90.6514 139.276 90.0681 139.142C89.4716 139.006 88.6555 138.938 87.4948 138.842L78.9883 138.144C76.937 137.975 75.4541 137.855 74.4043 137.916C73.3356 137.979 72.9313 138.221 72.7574 138.557C72.5836 138.893 72.6199 139.363 73.1861 140.272C73.7423 141.164 74.6976 142.305 76.0205 143.881L82.4001 151.485C83.4529 152.74 84.2066 153.637 84.8388 154.198C85.4699 154.758 85.8626 154.877 86.2086 154.807Z" fill="white" stroke="#F4F4F4"/>
<path d="M82.9191 159.541C83.7577 158.945 84.3435 158.527 84.7397 158.153C85.1253 157.79 85.2689 157.525 85.3038 157.253C85.3386 156.981 85.2664 156.688 84.9847 156.24C84.6954 155.779 84.2337 155.227 83.5724 154.439L76.0587 145.483C74.5889 143.731 73.5205 142.459 72.6585 141.677C71.7721 140.873 71.2844 140.754 70.9211 140.885C70.5577 141.015 70.2565 141.416 70.0835 142.601C69.9152 143.753 69.8987 145.413 69.8775 147.7L69.7444 162.092C69.7284 163.824 69.7183 165.066 69.8399 165.949C69.9618 166.834 70.1948 167.189 70.5141 167.356C70.8335 167.523 71.2579 167.511 72.054 167.105C72.848 166.699 73.8607 165.981 75.2723 164.977L82.9191 159.541Z" fill="white" stroke="#F4F4F4"/>
<path d="M138.471 118.984C140.022 118.141 141.134 117.534 141.86 116.99C142.589 116.443 142.787 116.062 142.774 115.699C142.761 115.337 142.537 114.97 141.772 114.476C141.009 113.983 139.857 113.457 138.251 112.724L130.195 109.05C129.15 108.574 128.416 108.24 127.837 108.07C127.271 107.904 126.946 107.923 126.681 108.054C126.417 108.184 126.204 108.43 125.991 108.98C125.773 109.543 125.59 110.329 125.332 111.447L123.205 120.658C122.771 122.537 122.459 123.892 122.377 124.877C122.293 125.873 122.462 126.294 122.759 126.519C123.055 126.744 123.506 126.795 124.443 126.448C125.37 126.105 126.592 125.442 128.287 124.52L138.471 118.984Z" fill="white" stroke="#F4F4F4"/>
<path d="M123.363 142.061C123.576 143.337 123.727 144.238 123.933 144.881C124.136 145.514 124.36 145.787 124.644 145.926C124.927 146.065 125.28 146.074 125.904 145.846C126.539 145.614 127.343 145.18 128.481 144.565L137.329 139.779C139.309 138.708 140.746 137.93 141.67 137.252C142.62 136.556 142.833 136.107 142.78 135.725C142.728 135.344 142.402 134.968 141.3 134.554C140.227 134.15 138.634 133.787 136.439 133.288L126.416 131.011C125.086 130.709 124.143 130.496 123.434 130.442C122.735 130.388 122.387 130.5 122.15 130.723C121.914 130.946 121.782 131.287 121.795 131.988C121.807 132.699 121.965 133.653 122.189 134.999L123.363 142.061Z" fill="white" stroke="#F4F4F4"/>
<path d="M90.4762 159.094C90.3205 159.445 90.3972 159.931 91.0967 160.852C91.7791 161.75 92.9154 162.884 94.4835 164.447L105.359 175.284C106.441 176.362 107.213 177.13 107.849 177.6C108.481 178.066 108.865 178.153 109.197 178.066C109.529 177.98 109.822 177.718 110.146 177.003C110.473 176.283 110.774 175.237 111.194 173.768L114.093 163.639C114.417 162.508 114.643 161.713 114.727 161.101C114.808 160.502 114.738 160.179 114.564 159.935C114.39 159.692 114.107 159.52 113.514 159.404C112.909 159.284 112.082 159.241 110.908 159.18L97.1337 158.472C94.9229 158.358 93.3196 158.277 92.1957 158.374C91.0437 158.474 90.6319 158.743 90.4762 159.094Z" fill="white" stroke="#F4F4F4"/>
<path d="M45.1057 109.284C45.3611 107.133 45.5449 105.574 45.5224 104.469C45.4994 103.339 45.2623 102.915 44.9253 102.734C44.5884 102.553 44.104 102.59 43.1494 103.195C42.2162 103.786 41.0183 104.801 39.3661 106.202L36.7179 108.448C36.2135 108.876 35.8662 109.172 35.6205 109.431C35.3833 109.681 35.2744 109.864 35.2213 110.052C35.1681 110.239 35.1648 110.452 35.2354 110.79C35.3086 111.139 35.4492 111.573 35.654 112.202L37.3997 117.56C38.5085 120.964 39.3274 123.475 40.066 125.12C40.4363 125.945 40.7678 126.508 41.0772 126.85C41.3784 127.183 41.6032 127.25 41.7893 127.232C41.9755 127.214 42.1828 127.104 42.413 126.718C42.6495 126.322 42.8645 125.705 43.0664 124.824C43.4691 123.066 43.7812 120.443 44.2031 116.888L45.1057 109.284Z" fill="white" stroke="#F4F4F4"/>
<path d="M47.927 101.594C47.6082 101.731 47.356 102.04 47.1462 102.818C46.9354 103.601 46.8048 104.71 46.6235 106.266L46.098 110.778C45.9742 111.841 45.8886 112.586 45.9018 113.151C45.9147 113.702 46.0213 113.993 46.2096 114.203C46.3979 114.412 46.6758 114.55 47.2219 114.622C47.782 114.696 48.5321 114.691 49.6027 114.682L56.0436 114.631C58.503 114.611 60.2946 114.595 61.5315 114.421C62.8122 114.241 63.2301 113.924 63.3523 113.554C63.4746 113.183 63.3276 112.68 62.4062 111.772C61.5164 110.896 60.0863 109.816 58.1224 108.336L52.2069 103.876C50.956 102.933 50.063 102.262 49.3515 101.874C48.6436 101.489 48.2457 101.458 47.927 101.594Z" fill="white" stroke="#F4F4F4"/>
<path d="M44.3515 125.424C44.1017 127.497 43.9223 128.996 43.9439 130.062C43.9659 131.149 44.195 131.565 44.5264 131.75C44.8578 131.935 45.3324 131.912 46.2692 131.361C47.1882 130.82 48.3709 129.881 50.0049 128.582L58.4462 121.868C60.3447 120.358 61.7264 119.258 62.581 118.37C63.4648 117.452 63.598 116.949 63.4682 116.582C63.3384 116.215 62.9188 115.908 61.6542 115.75C60.4313 115.596 58.6652 115.61 56.2395 115.629L48.5997 115.69C47.7487 115.697 47.1577 115.703 46.7072 115.764C46.2708 115.823 46.0312 115.927 45.8529 116.086C45.6746 116.246 45.5446 116.472 45.4372 116.899C45.3263 117.34 45.2547 117.927 45.1529 118.772L44.3515 125.424Z" fill="white" stroke="#F4F4F4"/>
<path d="M46.5392 133.839C46.6532 134.205 47.0282 134.519 48.1486 134.753C49.2427 134.982 50.8283 135.091 53.0157 135.24L64.9061 136.049C65.9925 136.123 66.7543 136.173 67.327 136.132C67.8857 136.091 68.1741 135.968 68.375 135.766C68.5759 135.563 68.6972 135.274 68.7338 134.715C68.7712 134.142 68.7153 133.381 68.6338 132.295L67.9071 122.608C67.7816 120.935 67.6905 119.737 67.5005 118.894C67.3105 118.05 67.0558 117.721 66.7294 117.578C66.403 117.435 65.9883 117.472 65.2401 117.906C64.4919 118.339 63.5513 119.086 62.2383 120.13L51.0747 129.009C49.3587 130.373 48.1155 131.363 47.3448 132.173C46.5554 133.002 46.4253 133.473 46.5392 133.839Z" fill="white" stroke="#F4F4F4"/>
<path d="M111.964 177.903C112.246 178.144 112.689 178.221 113.635 177.937C114.57 177.656 115.815 177.077 117.543 176.273L124.446 173.06C125.755 172.451 126.684 172.017 127.309 171.604C127.928 171.196 128.138 170.88 128.18 170.549C128.222 170.217 128.098 169.859 127.601 169.309C127.098 168.753 126.307 168.101 125.193 167.184L120.35 163.199C119.274 162.315 118.511 161.688 117.89 161.315C117.277 160.946 116.91 160.891 116.596 160.989C116.283 161.086 116.012 161.34 115.717 161.991C115.418 162.651 115.145 163.6 114.761 164.939L112.701 172.137C112.177 173.969 111.8 175.29 111.669 176.258C111.536 177.236 111.681 177.662 111.964 177.903Z" fill="white" stroke="#F4F4F4"/>
<path d="M125.628 155.915C125.121 154.142 124.755 152.868 124.366 152.005C123.974 151.135 123.634 150.855 123.272 150.794C122.909 150.734 122.496 150.89 121.845 151.587C121.199 152.278 120.441 153.366 119.389 154.88L118.474 156.196C117.967 156.926 117.615 157.434 117.397 157.854C117.186 158.262 117.133 158.527 117.167 158.772C117.201 159.017 117.323 159.258 117.637 159.593C117.961 159.938 118.438 160.332 119.124 160.896L120.813 162.286C122.857 163.967 124.352 165.195 125.488 165.909C126.055 166.266 126.495 166.468 126.839 166.545C127.167 166.619 127.379 166.573 127.549 166.462C127.718 166.351 127.844 166.174 127.908 165.845C127.974 165.498 127.964 165.014 127.863 164.352C127.661 163.025 127.13 161.165 126.402 158.62L125.628 155.915Z" fill="white" stroke="#F4F4F4"/>
<path d="M123.285 115.869C123.751 113.849 124.087 112.388 124.179 111.333C124.272 110.258 124.09 109.821 123.781 109.601C123.473 109.381 123.001 109.351 122.015 109.79C121.047 110.22 119.776 111.014 118.018 112.114L110.02 117.118C108.69 117.95 107.742 118.545 107.125 119.071C106.511 119.595 106.34 119.956 106.354 120.302C106.367 120.649 106.566 120.995 107.22 121.469C107.876 121.946 108.868 122.464 110.258 123.189L116.366 126.372C117.434 126.929 118.186 127.32 118.782 127.528C119.366 127.732 119.703 127.726 119.978 127.599C120.254 127.472 120.478 127.22 120.702 126.644C120.931 126.055 121.123 125.229 121.394 124.056L123.285 115.869Z" fill="white" stroke="#F4F4F4"/>
<path d="M109.656 141.936C110.021 142.016 110.454 141.87 111.164 141.146C111.864 140.431 112.699 139.295 113.855 137.719L117.559 132.667C118.208 131.781 118.663 131.159 118.936 130.649C119.203 130.151 119.253 129.84 119.188 129.561C119.123 129.281 118.941 129.024 118.481 128.695C118.011 128.358 117.328 128.001 116.354 127.494L111.05 124.729C109.42 123.879 108.247 123.27 107.356 122.959C106.458 122.645 106.021 122.698 105.728 122.92C105.434 123.141 105.263 123.546 105.317 124.496C105.371 125.438 105.635 126.733 106.004 128.535L107.603 136.351C107.995 138.266 108.279 139.646 108.617 140.588C108.959 141.542 109.291 141.856 109.656 141.936Z" fill="white" stroke="#F4F4F4"/>
<path d="M102.223 142.086C103.756 142.696 104.852 143.131 105.68 143.327C106.508 143.522 106.911 143.44 107.183 143.213C107.454 142.986 107.606 142.603 107.56 141.754C107.513 140.905 107.278 139.749 106.947 138.133L105.361 130.383C104.93 128.277 104.617 126.751 104.25 125.717C103.875 124.66 103.519 124.333 103.143 124.266C102.767 124.2 102.319 124.384 101.604 125.247C100.904 126.092 100.084 127.416 98.9543 129.246L95.4259 134.959C94.8372 135.912 94.4249 136.582 94.1887 137.123C93.958 137.651 93.9347 137.97 94.0258 138.246C94.1169 138.521 94.326 138.764 94.8258 139.05C95.3377 139.343 96.0681 139.635 97.1091 140.05L102.223 142.086Z" fill="white" stroke="#F4F4F4"/>
<path d="M105.732 145.486C105.71 145.119 105.464 144.75 104.632 144.27C103.807 143.794 102.567 143.299 100.842 142.612L96.3378 140.819C95.3818 140.438 94.7128 140.173 94.1843 140.043C93.6698 139.917 93.3695 139.94 93.1219 140.058C92.8743 140.177 92.6679 140.396 92.444 140.876C92.214 141.37 92.0011 142.057 91.6982 143.041L90.12 148.165C89.4994 150.18 89.0514 151.638 88.8809 152.701C88.707 153.785 88.8599 154.238 89.1546 154.478C89.4494 154.719 89.9237 154.778 90.9509 154.389C91.9578 154.009 93.2966 153.277 95.1459 152.265L101.228 148.934C102.857 148.043 104.027 147.4 104.788 146.827C105.556 146.249 105.755 145.854 105.732 145.486Z" fill="white" stroke="#F4F4F4"/>
<path d="M110.357 149.166C109.908 148.296 109.594 147.689 109.297 147.264C109.007 146.85 108.777 146.674 108.523 146.596C108.269 146.518 107.979 146.536 107.508 146.716C107.024 146.902 106.424 147.229 105.565 147.7L99.3603 151.097C96.8418 152.476 94.9966 153.488 93.8173 154.335C93.2273 154.76 92.843 155.116 92.6255 155.426C92.4181 155.721 92.384 155.941 92.4288 156.136C92.4736 156.332 92.5996 156.515 92.9148 156.691C93.2454 156.876 93.7464 157.03 94.462 157.155C95.8926 157.406 97.994 157.515 100.862 157.662L109.035 158.083C110.595 158.163 111.708 158.219 112.512 158.141C113.312 158.064 113.659 157.868 113.847 157.577C114.035 157.286 114.071 156.889 113.812 156.128C113.551 155.363 113.041 154.372 112.325 152.983L110.357 149.166Z" fill="white" stroke="#F4F4F4"/>
<path d="M111.298 147.012C111.086 147.304 111.037 147.728 111.329 148.581C111.62 149.43 112.193 150.544 112.993 152.096L113.357 152.802C114.045 154.136 114.536 155.086 114.99 155.717C115.441 156.344 115.775 156.543 116.115 156.565C116.454 156.588 116.811 156.434 117.34 155.872C117.874 155.305 118.485 154.428 119.342 153.195L119.747 152.612C120.572 151.425 121.157 150.581 121.49 149.908C121.82 149.242 121.842 148.863 121.711 148.556C121.58 148.248 121.292 148.001 120.584 147.777C119.868 147.551 118.854 147.387 117.426 147.159L116.657 147.036C114.933 146.76 113.696 146.563 112.798 146.552C111.897 146.54 111.51 146.719 111.298 147.012Z" fill="white" stroke="#F4F4F4"/>
<path d="M113.197 140.307C112.321 141.502 111.698 142.353 111.34 143.033C110.985 143.706 110.955 144.091 111.083 144.404C111.212 144.717 111.503 144.969 112.23 145.199C112.962 145.43 114.003 145.598 115.466 145.832L118.378 146.299C119.647 146.502 120.543 146.644 121.214 146.652C121.874 146.661 122.203 146.538 122.424 146.314C122.646 146.091 122.768 145.761 122.755 145.102C122.742 144.431 122.595 143.535 122.384 142.268L121.782 138.651C121.447 136.637 121.204 135.182 120.89 134.187C120.57 133.175 120.239 132.843 119.872 132.756C119.504 132.668 119.059 132.815 118.317 133.574C117.588 134.321 116.715 135.51 115.507 137.156L113.197 140.307Z" fill="white" stroke="#F4F4F4"/>
<path d="M100.685 56.914C100.511 56.7882 100.29 56.7105 99.9053 56.6746C99.5076 56.6375 98.9937 56.6492 98.2507 56.6672L93.1885 56.79C91.018 56.8426 89.4453 56.882 88.3528 57.0613C87.235 57.2447 86.8486 57.5401 86.7176 57.8996C86.5865 58.259 86.6923 58.7338 87.4299 59.5935C88.1508 60.4337 89.3294 61.4758 90.9569 62.9127L97.929 69.0681C100.082 70.9689 101.66 72.3611 102.858 73.1826C103.458 73.5935 103.924 73.8339 104.289 73.9332C104.637 74.0279 104.855 73.9856 105.024 73.8769C105.193 73.7683 105.322 73.5877 105.381 73.2313C105.442 72.8576 105.417 72.334 105.291 71.6182C105.041 70.1872 104.43 68.1734 103.594 65.4258L101.684 59.1476C101.468 58.4365 101.317 57.945 101.157 57.5791C101.002 57.2253 100.859 57.0398 100.685 56.914Z" fill="white" stroke="#F4F4F4"/>
<path d="M35.9747 63.6226C36.5305 64.9401 36.9368 65.9023 37.2815 66.579C37.4532 66.9161 37.6009 67.1645 37.7338 67.3425C37.8681 67.5222 37.9679 67.6032 38.0346 67.6386C38.5765 67.9265 39.239 67.8552 39.7073 67.4588C39.7649 67.41 39.8452 67.3096 39.9382 67.1054C40.0303 66.9033 40.1218 66.6292 40.2179 66.2632C40.4109 65.5288 40.6033 64.5022 40.8664 63.0967C41.2727 60.9259 41.5731 59.3196 41.7219 58.1723C41.7963 57.5985 41.83 57.1595 41.8234 56.8332C41.8166 56.4902 41.7654 56.3457 41.7369 56.2999C41.3822 55.731 40.693 55.4665 40.0487 55.6521C39.9969 55.667 39.8622 55.7402 39.6276 55.9905C39.4044 56.2287 39.1358 56.5774 38.8072 57.0537C38.1502 58.006 37.2989 59.4009 36.1486 61.2861C35.8564 61.7651 35.7596 61.9309 35.7085 62.0991C35.6442 62.311 35.6276 62.5344 35.6598 62.7534L35.1652 62.8263L35.6598 62.7534C35.6854 62.9274 35.7566 63.1057 35.9747 63.6226Z" fill="white" stroke="#F4F4F4"/>
<path d="M34.382 72.9209C34.2484 74.2989 34.1496 75.3183 34.1052 76.0494C34.083 76.4149 34.0752 76.6961 34.082 76.9073C34.0892 77.1308 34.112 77.2285 34.1228 77.2563C34.4825 78.1834 35.6282 78.5103 36.4229 77.9126C36.4468 77.8946 36.5177 77.8237 36.6418 77.6376C36.759 77.4618 36.9008 77.2188 37.0748 76.8966C37.4228 76.2522 37.8768 75.3341 38.4904 74.0931C38.6304 73.81 38.6773 73.7124 38.7083 73.6174C38.7972 73.3445 38.806 73.0519 38.7335 72.7742C38.7083 72.6775 38.6674 72.5773 38.5446 72.2863C38.1403 71.3281 37.8434 70.6247 37.6058 70.1223C37.4872 69.8717 37.3885 69.6822 37.3035 69.5418C37.2158 69.3969 37.1578 69.3302 37.1282 69.3039C36.4262 68.6792 35.3292 68.8464 34.8452 69.652C34.8249 69.6859 34.7894 69.7669 34.7488 69.9313C34.7096 70.0906 34.6718 70.301 34.6333 70.5755C34.5561 71.1259 34.4823 71.8858 34.382 72.9209Z" fill="white" stroke="#F4F4F4"/>
<path d="M45.3149 99.2877C45.3127 98.9966 45.1874 98.701 44.797 98.2742C44.3973 97.8372 43.788 97.3344 42.9191 96.6195L39.5334 93.8342C37.949 92.5307 36.8031 91.5896 35.908 91.0438C34.997 90.4883 34.5279 90.4564 34.1935 90.6329C33.8591 90.8094 33.6208 91.2147 33.5654 92.2803C33.5109 93.3273 33.6414 94.8043 33.8236 96.8479L34.2925 102.107C34.4443 103.809 34.5543 105.028 34.7594 105.884C34.9649 106.741 35.2284 107.07 35.5602 107.206C35.8919 107.342 36.3102 107.293 37.0582 106.827C37.8051 106.362 38.7396 105.571 40.0427 104.466L42.9594 101.992C43.8175 101.264 44.4192 100.752 44.8123 100.309C45.1962 99.8762 45.3171 99.5788 45.3149 99.2877Z" fill="white" stroke="#F4F4F4"/>
<path d="M66.6683 138.011C66.5303 137.674 66.1894 137.407 65.2859 137.212C64.3872 137.017 63.1055 136.928 61.3203 136.807L50.2993 136.057C48.6053 135.942 47.3921 135.861 46.5201 135.929C45.6472 135.998 45.2828 136.206 45.0961 136.511C44.9094 136.816 44.8904 137.235 45.2265 138.044C45.5624 138.851 46.187 139.894 47.0607 141.35L51.7775 149.209C52.4271 150.292 52.8868 151.055 53.3049 151.566C53.7154 152.068 54.0174 152.24 54.3279 152.268C54.6384 152.297 54.9668 152.184 55.4625 151.766C55.9675 151.341 56.5596 150.675 57.3972 149.731L63.7015 142.621C64.8886 141.282 65.7401 140.32 66.2441 139.551C66.7508 138.778 66.8064 138.348 66.6683 138.011Z" fill="white" stroke="#F4F4F4"/>
<path d="M68.8789 147.544C68.8998 145.284 68.9138 143.643 68.7678 142.502C68.6178 141.329 68.3267 140.925 67.9671 140.786C67.6075 140.648 67.1204 140.753 66.223 141.523C65.3494 142.272 64.2599 143.499 62.7604 145.19L56.966 151.724C56.3784 152.387 55.9706 152.848 55.7054 153.239C55.4484 153.617 55.3654 153.874 55.3697 154.12C55.374 154.366 55.4659 154.62 55.7361 154.989C56.0147 155.37 56.4385 155.817 57.0488 156.459L62.7276 162.428C64.1832 163.958 65.2375 165.065 66.082 165.735C66.9438 166.418 67.414 166.507 67.768 166.367C68.122 166.228 68.4053 165.842 68.5685 164.754C68.7284 163.688 68.7438 162.16 68.7633 160.048L68.8789 147.544Z" fill="white" stroke="#F4F4F4"/>
<path d="M86.0038 159.389C85.6997 159.274 85.3355 159.304 84.7115 159.622C84.0786 159.945 83.2904 160.504 82.1789 161.294L75.6737 165.919C74.296 166.898 73.3104 167.601 72.6818 168.204C72.0529 168.807 71.9025 169.197 71.9505 169.551C71.9984 169.905 72.2473 170.241 73.0142 170.655C73.7806 171.069 74.9177 171.484 76.5064 172.061L84.8049 175.076C86.3526 175.639 87.4598 176.04 88.2922 176.21C89.1233 176.38 89.5241 176.286 89.7885 176.051C90.0529 175.816 90.1936 175.429 90.1227 174.584C90.0517 173.737 89.7839 172.59 89.4076 170.987L87.6143 163.347C87.3026 162.019 87.0806 161.079 86.8189 160.418C86.5609 159.767 86.3079 159.503 86.0038 159.389Z" fill="white" stroke="#F4F4F4"/>
<path d="M96.3045 167.673C94.2848 165.66 92.8044 164.187 91.6656 163.301C91.096 162.858 90.6485 162.593 90.2918 162.472C89.9519 162.358 89.7323 162.387 89.5566 162.485C89.3809 162.583 89.2411 162.755 89.1599 163.104C89.0747 163.47 89.0658 163.991 89.1434 164.708C89.2986 166.142 89.775 168.176 90.4266 170.952L91.4376 175.259C91.5933 175.923 91.7015 176.38 91.8246 176.727C91.9435 177.061 92.0611 177.245 92.2094 177.379C92.3578 177.513 92.5526 177.611 92.8976 177.695C93.2547 177.783 93.721 177.843 94.3969 177.931L98.2012 178.422C100.636 178.736 102.41 178.964 103.657 178.96C104.948 178.955 105.404 178.698 105.576 178.348C105.748 177.998 105.671 177.48 104.885 176.456C104.125 175.468 102.859 174.204 101.12 172.471L96.3045 167.673Z" fill="white" stroke="#F4F4F4"/>
<path d="M124.073 76.4418C123.315 75.5751 122.781 74.9667 122.322 74.5723C121.873 74.1867 121.568 74.0704 121.273 74.0809C120.978 74.0914 120.682 74.229 120.262 74.6454C119.832 75.0715 119.342 75.7162 118.648 76.6345L112.677 84.5261C111.437 86.1653 110.542 87.3508 110.032 88.269C109.513 89.2036 109.5 89.6741 109.691 90.0011C109.881 90.328 110.296 90.5493 111.365 90.5596C112.416 90.5697 113.889 90.3766 115.926 90.1077L127.468 88.5848C129.115 88.3675 130.293 88.2107 131.117 87.9757C131.94 87.7408 132.253 87.4702 132.378 87.1382C132.503 86.8061 132.447 86.3961 131.983 85.6764C131.52 84.9561 130.738 84.0608 129.644 82.8105L124.073 76.4418Z" fill="white" stroke="#F4F4F4"/>
<path d="M144.671 117.542C144.379 117.381 144.003 117.363 143.312 117.615C142.614 117.871 141.721 118.355 140.463 119.039L130.274 124.578C128.302 125.65 126.871 126.429 125.95 127.108C125.005 127.804 124.793 128.253 124.846 128.634C124.899 129.015 125.224 129.39 126.323 129.804C127.393 130.207 128.981 130.569 131.171 131.066L141.838 133.489C143.045 133.763 143.896 133.955 144.542 134.006C145.176 134.056 145.504 133.96 145.74 133.76C145.975 133.561 146.123 133.252 146.177 132.618C146.232 131.973 146.181 131.101 146.107 129.866L145.629 121.904C145.543 120.475 145.481 119.461 145.328 118.733C145.177 118.014 144.962 117.704 144.671 117.542Z" fill="white" stroke="#F4F4F4"/>
<path d="M126.476 147.677C126.475 148.03 126.669 148.392 127.342 148.901C128.017 149.411 129.044 149.975 130.483 150.761L136.818 154.226C137.861 154.796 138.595 155.196 139.179 155.414C139.751 155.627 140.084 155.628 140.361 155.51C140.637 155.391 140.867 155.149 141.107 154.588C141.353 154.015 141.571 153.208 141.878 152.061L144.038 144.001C144.556 142.065 144.93 140.668 145.052 139.65C145.177 138.617 145.016 138.182 144.721 137.949C144.426 137.716 143.965 137.66 142.989 138.021C142.028 138.376 140.755 139.063 138.992 140.017L130.497 144.612C129.055 145.392 128.025 145.95 127.348 146.457C126.672 146.963 126.477 147.324 126.476 147.677Z" fill="white" stroke="#F4F4F4"/>
<path d="M131.947 152.702C130.143 151.715 128.839 151.003 127.855 150.634C126.855 150.257 126.387 150.314 126.092 150.55C125.796 150.787 125.638 151.23 125.785 152.289C125.93 153.33 126.337 154.759 126.902 156.735L128.724 163.101C129.203 164.777 129.548 165.978 129.917 166.796C130.288 167.615 130.614 167.89 130.968 167.959C131.323 168.027 131.727 167.893 132.376 167.269C133.022 166.647 133.789 165.659 134.856 164.281L137.777 160.508C138.453 159.635 138.927 159.022 139.215 158.516C139.496 158.023 139.554 157.711 139.495 157.43C139.436 157.148 139.259 156.885 138.804 156.546C138.337 156.198 137.658 155.825 136.689 155.295L131.947 152.702Z" fill="white" stroke="#F4F4F4"/>
<path d="M143.111 112.81C143.387 112.549 143.506 112.085 143.249 111.013C142.997 109.963 142.438 108.537 141.664 106.568L137.805 96.7583C137.085 94.9256 136.564 93.604 136.065 92.7278C135.56 91.8394 135.177 91.5872 134.802 91.5725C134.428 91.5578 134.026 91.7792 133.453 92.6251C132.887 93.4595 132.264 94.7361 131.402 96.5067L128.193 103.094C127.764 103.974 127.466 104.589 127.303 105.082C127.145 105.562 127.142 105.852 127.232 106.102C127.321 106.352 127.509 106.574 127.936 106.843C128.375 107.12 128.996 107.405 129.887 107.811L136.954 111.034C138.879 111.912 140.273 112.546 141.308 112.853C142.365 113.166 142.835 113.072 143.111 112.81Z" fill="white" stroke="#F4F4F4"/>
<path d="M115.392 74.7035C116.668 74.0796 117.574 73.6356 118.182 73.2176C118.783 72.8045 118.986 72.489 119.025 72.1595C119.063 71.83 118.938 71.4764 118.447 70.9365C117.95 70.3902 117.171 69.7505 116.072 68.8509L111.156 64.8264C109.062 63.1125 107.531 61.86 106.369 61.1321C105.789 60.7682 105.34 60.5613 104.989 60.4827C104.655 60.4081 104.442 60.455 104.274 60.5678C104.105 60.6805 103.981 60.8598 103.923 61.1968C103.862 61.5512 103.882 62.0452 103.997 62.7204C104.228 64.0714 104.803 65.9646 105.591 68.5532L107.293 74.1491C107.614 75.2067 107.841 75.9484 108.087 76.4763C108.327 76.9916 108.549 77.2189 108.813 77.3337C109.076 77.4486 109.393 77.4554 109.934 77.2798C110.488 77.1 111.185 76.7604 112.179 76.2748L115.392 74.7035Z" fill="white" stroke="#F4F4F4"/>
<path d="M85.0523 55.987C88.1744 55.9112 90.4727 55.8548 92.0453 55.6467C92.8328 55.5425 93.3949 55.4052 93.7727 55.2309C94.1419 55.0606 94.2757 54.8844 94.3239 54.721C94.3455 54.6481 94.3614 54.5737 94.3716 54.4983C94.3945 54.3296 94.3445 54.114 94.0775 53.8074C93.8042 53.4938 93.3476 53.1383 92.6718 52.7208C91.3223 51.8871 89.2486 50.8945 86.4313 49.547C83.8332 48.3043 81.9252 47.3927 80.5406 46.9129C79.8479 46.6728 79.3269 46.556 78.9401 46.5462C78.5649 46.5368 78.3686 46.6277 78.2454 46.7528C78.1929 46.806 78.1445 46.8631 78.1005 46.9236C77.9973 47.0656 77.9397 47.2741 78.0104 47.6427C78.0833 48.0227 78.2837 48.5176 78.6337 49.1617C79.3334 50.4492 80.5447 52.1826 82.1954 54.5425C82.4839 54.9551 82.6824 55.2381 82.8588 55.4483C83.029 55.6511 83.157 55.7589 83.2904 55.8311L83.0524 56.2708L83.2904 55.8311C83.3151 55.8444 83.3401 55.8571 83.3654 55.869C83.5027 55.9337 83.6653 55.9728 83.9296 55.9897C84.2034 56.0071 84.549 55.9992 85.0523 55.987Z" fill="white" stroke="#F4F4F4"/>
<path d="M61.2891 44.8061L61.2891 44.8061C61.6665 45.2013 62.2288 45.3599 62.7571 45.2203C62.7706 45.2167 62.7858 45.2124 62.8297 45.1998C63.1161 45.1179 63.2342 45.0839 63.2662 45.073C64.7506 44.5662 64.5595 42.4087 63.0091 42.1708L63.0849 41.6766L63.0091 42.1708C62.9756 42.1657 62.8534 42.153 62.557 42.1227L62.6079 41.6253L62.557 42.1227C62.3926 42.1058 62.3299 42.0996 62.3002 42.0979C60.9872 42.0219 60.219 43.5522 61.0645 44.5596C61.0837 44.5825 61.1261 44.629 61.2379 44.7508L60.8694 45.0888L61.2379 44.7508C61.2687 44.7844 61.2794 44.7961 61.2891 44.8061Z" fill="white" stroke="#F4F4F4"/>
<path d="M55.8464 42.2131C55.2231 42.4905 54.7625 42.6956 54.4336 42.8495C54.0848 43.0128 53.9375 43.0951 53.8953 43.1277C52.8752 43.9138 53.2547 45.5352 54.5176 45.7869C54.57 45.7974 54.7385 45.8058 55.1235 45.7973C55.4866 45.7893 55.9903 45.7686 56.672 45.7406C57.3287 45.7136 57.5729 45.7009 57.7023 45.6697C58.6906 45.4314 59.1606 44.2999 58.6321 43.4315C58.5629 43.3178 58.3996 43.1358 57.9553 42.6514C57.7873 42.4683 57.7286 42.4053 57.673 42.3564C57.2764 42.0077 56.7256 41.8932 56.2229 42.055C56.1524 42.0777 56.0734 42.1121 55.8464 42.2131Z" fill="white" stroke="#F4F4F4"/>
<path d="M125.563 104.96C125.849 104.892 126.11 104.7 126.439 104.214C126.776 103.718 127.128 102.997 127.628 101.971L131.23 94.5753C131.955 93.0866 132.473 92.0212 132.73 91.2069C132.988 90.3935 132.935 89.9837 132.728 89.6962C132.521 89.4086 132.149 89.2291 131.296 89.2158C130.442 89.2025 129.267 89.3561 127.626 89.5727L116.234 91.0759C114.164 91.349 112.666 91.5478 111.639 91.8336C110.592 92.125 110.245 92.4504 110.148 92.8174C110.051 93.1844 110.192 93.6384 110.959 94.4089C111.711 95.1648 112.915 96.0771 114.58 97.337L122.369 103.23C123.279 103.918 123.919 104.401 124.444 104.692C124.957 104.976 125.277 105.028 125.563 104.96Z" fill="white" stroke="#F4F4F4"/>
<path d="M90.2586 88.9787C90.1839 89.2465 90.2153 89.5503 90.4381 90.0418C90.6668 90.5464 91.0582 91.1673 91.6188 92.0535L95.3479 97.949C96.0579 99.0715 96.5614 99.865 97.0131 100.39C97.4578 100.907 97.7765 101.073 98.0968 101.086C98.4172 101.1 98.7485 100.961 99.2347 100.483C99.7287 99.9972 100.297 99.2484 101.098 98.189L110.52 85.728C112.563 83.0261 114.067 81.0351 114.94 79.5672C115.378 78.8315 115.631 78.2679 115.725 77.8395C115.817 77.4251 115.747 77.2043 115.625 77.0569C115.502 76.9095 115.298 76.8009 114.874 76.8146C114.435 76.8288 113.835 76.9746 113.032 77.2697C111.429 77.8587 109.195 78.9726 106.165 80.4856L93.0134 87.051C92.0752 87.5194 91.419 87.8482 90.9622 88.1617C90.5172 88.4671 90.3333 88.7108 90.2586 88.9787Z" fill="white" stroke="#F4F4F4"/>
<path d="M111.471 104.406C114.414 104.742 116.572 104.988 118.069 104.978C118.819 104.974 119.354 104.904 119.721 104.774C120.072 104.651 120.226 104.489 120.3 104.303C120.375 104.118 120.374 103.894 120.206 103.563C120.03 103.216 119.69 102.796 119.151 102.276C118.074 101.236 116.342 99.9241 113.981 98.1373L109.476 94.7293C108.695 94.1385 108.149 93.7269 107.697 93.4722C107.257 93.2245 106.972 93.165 106.71 93.2048C106.448 93.2445 106.194 93.3856 105.847 93.7525C105.49 94.1299 105.091 94.6847 104.52 95.4805L102.602 98.1544C101.708 99.4002 101.073 100.289 100.71 100.995C100.349 101.696 100.326 102.089 100.465 102.403C100.605 102.717 100.912 102.964 101.673 103.167C102.44 103.372 103.525 103.498 105.049 103.672L111.471 104.406Z" fill="white" stroke="#F4F4F4"/>
</g>
<defs>
<filter id="filter0_i_416_319" x="77.8145" y="0.548641" width="103.37" height="148.805" filterUnits="userSpaceOnUse" color-interpolation-filters="sRGB">
<feFlood flood-opacity="0" result="BackgroundImageFix"/>
<feBlend mode="normal" in="SourceGraphic" in2="BackgroundImageFix" result="shape"/>
<feColorMatrix in="SourceAlpha" type="matrix" values="0 0 0 0 0 0 0 0 0 0 0 0 0 0 0 0 0 0 127 0" result="hardAlpha"/>
<feOffset/>
<feGaussianBlur stdDeviation="0.5"/>
<feComposite in2="hardAlpha" operator="arithmetic" k2="-1" k3="1"/>
<feColorMatrix type="matrix" values="0 0 0 0 0 0 0 0 0 0 0 0 0 0 0 0 0 0 0.25 0"/>
<feBlend mode="normal" in2="shape" result="effect1_innerShadow_416_319"/>
</filter>
<filter id="filter1_i_416_319" x="32.9847" y="41.4829" width="113.715" height="137.977" filterUnits="userSpaceOnUse" color-interpolation-filters="sRGB">
<feFlood flood-opacity="0" result="BackgroundImageFix"/>
<feBlend mode="normal" in="SourceGraphic" in2="BackgroundImageFix" result="shape"/>
<feColorMatrix in="SourceAlpha" type="matrix" values="0 0 0 0 0 0 0 0 0 0 0 0 0 0 0 0 0 0 127 0" result="hardAlpha"/>
<feOffset/>
<feGaussianBlur stdDeviation="0.5"/>
<feComposite in2="hardAlpha" operator="arithmetic" k2="-1" k3="1"/>
<feColorMatrix type="matrix" values="0 0 0 0 0 0 0 0 0 0 0 0 0 0 0 0 0 0 0.25 0"/>
<feBlend mode="normal" in2="shape" result="effect1_innerShadow_416_319"/>
</filter>
</defs>
</svg>
