<svg width="132" height="180" viewBox="0 0 132 180" fill="none" xmlns="http://www.w3.org/2000/svg">
<g filter="url(#filter0_i_416_267)">
<path d="M11.2179 56.1676C11.111 56.1044 10.9336 55.9532 10.4628 55.5434C10.1827 55.2996 10.0841 55.2121 10.0209 55.1391C9.50955 54.5489 9.53662 53.665 10.0831 53.1072C10.1507 53.0383 10.2545 52.9569 10.549 52.7307C11.0016 52.383 11.1702 52.2562 11.2767 52.2009C12.1694 51.7374 13.2563 52.2666 13.4421 53.2551C13.4643 53.373 13.4685 53.5839 13.4741 54.1547C13.4801 54.7787 13.48 55.0118 13.4587 55.1341C13.2784 56.1672 12.1207 56.7012 11.2179 56.1676Z" fill="white" stroke="#F4F4F4"/>
<path d="M9.1061 50.1149C9.20661 49.4573 9.84887 49.0269 10.4953 49.1841C11.4209 49.409 11.6739 50.6057 10.9184 51.1859C10.1077 51.8087 8.95164 51.1255 9.1061 50.1149Z" fill="white" stroke="#F4F4F4"/>
<path d="M18.3962 53.9198C17.842 54.51 17.4413 54.9364 17.1241 55.2372C16.7979 55.5467 16.6133 55.6697 16.4958 55.7131C15.783 55.9766 14.9858 55.6654 14.64 54.9888C14.583 54.8772 14.5305 54.6617 14.5002 54.2131C14.4707 53.7769 14.4648 53.1918 14.4569 52.3822C14.4493 51.5942 14.4528 51.3188 14.5174 51.1121C14.6671 50.6338 15.0456 50.2619 15.5265 50.1207C15.7343 50.0597 16.0097 50.061 16.7975 50.0826C17.533 50.1027 18.0622 50.1173 18.459 50.1517C18.8647 50.1868 19.0645 50.2385 19.1745 50.295C19.8256 50.6293 20.1403 51.3847 19.9192 52.0824C19.8818 52.2003 19.7779 52.3786 19.5172 52.6914C19.2621 52.9973 18.8998 53.3834 18.3962 53.9198Z" fill="white" stroke="#F4F4F4"/>
<path d="M17.6242 57.2598C17.5412 56.963 17.6422 56.5289 18.2358 55.7223C18.8132 54.9378 19.7438 53.9455 21.0283 52.5775C21.5431 52.0293 21.9015 51.6487 22.2095 51.386C22.5093 51.1302 22.7182 51.025 22.9202 50.9875C23.0291 50.9673 23.1399 50.9592 23.2506 50.9634L23.2694 50.4637L23.2506 50.9634C23.4558 50.9711 23.6778 51.0447 24.0117 51.2541C24.3546 51.4692 24.7646 51.7937 25.3536 52.2611C26.7704 53.3855 27.7953 54.1999 28.4557 54.8688C29.1326 55.5543 29.2931 55.9587 29.2581 56.2632C29.2378 56.4397 29.1863 56.6113 29.106 56.7698C28.9676 57.0432 28.6109 57.2924 27.6684 57.4918C26.7487 57.6863 25.4447 57.8017 23.643 57.9599C21.7736 58.124 20.4183 58.2421 19.4447 58.2109C18.4438 58.1789 18.0401 57.99 17.8581 57.7413C17.7519 57.5961 17.6726 57.433 17.6242 57.2598Z" fill="white" stroke="#F4F4F4"/>
<path d="M15.7276 63.5665C15.4575 62.5949 15.2687 61.9125 15.1922 61.3823C15.1171 60.8625 15.164 60.5721 15.2898 60.3496C15.3348 60.2701 15.3869 60.1949 15.4456 60.1249C15.6097 59.9289 15.8652 59.7831 16.3782 59.6709C16.9015 59.5565 17.6067 59.4936 18.6113 59.4054C21.3321 59.1665 23.3296 58.9919 24.7269 59.0203C25.4256 59.0345 25.9342 59.0995 26.2906 59.214C26.6394 59.3261 26.7917 59.4682 26.8653 59.609C26.9286 59.7304 26.9751 59.8598 27.0033 59.9938C27.0361 60.1492 27.0089 60.3557 26.8109 60.6641C26.6086 60.9791 26.2574 61.3525 25.7271 61.8078C24.6667 62.718 23.0138 63.8533 20.7619 65.3988C19.8113 66.0513 19.1392 66.5113 18.5964 66.7868C18.0609 67.0587 17.7404 67.1031 17.4734 67.0349L17.3497 67.5194L17.4734 67.0349C17.3775 67.0104 17.2843 66.9765 17.1951 66.9336C16.9467 66.8143 16.7298 66.5742 16.4943 66.0217C16.2556 65.4617 16.0364 64.6773 15.7276 63.5665Z" fill="white" stroke="#F4F4F4"/>
<path d="M27.0781 72.2965C26.9044 72.7739 26.2402 72.8029 26.0255 72.3425C25.7742 71.8034 25.2399 71.4527 24.6453 71.4364L19.4213 71.2937C19.2869 71.29 19.2404 71.2886 19.1995 71.285C18.697 71.2413 18.2501 70.9479 18.0102 70.5042C17.9906 70.4681 17.9708 70.4261 17.914 70.3042C17.8377 70.1408 17.8115 70.0836 17.7931 70.0349C17.5641 69.428 17.7512 68.7426 18.2569 68.3362C18.2974 68.3036 18.3491 68.2677 18.4978 68.1656L24.6924 63.9142C26.0723 62.9671 27.0787 62.277 27.8473 61.845C28.2302 61.6299 28.5323 61.4915 28.7752 61.417C29.0173 61.3428 29.1692 61.3418 29.2686 61.3649C29.6947 61.464 30.0564 61.7442 30.2587 62.132C30.3059 62.2225 30.3429 62.3699 30.3315 62.6229C30.32 62.8767 30.2615 63.2037 30.1488 63.6282C29.9224 64.4804 29.5055 65.6272 28.9331 67.2L27.0781 72.2965Z" fill="white" stroke="#F4F4F4"/>
<path d="M31.2779 96.4162C30.2391 95.7063 29.5067 95.2042 29.0227 94.7581C28.5476 94.3203 28.3941 94.0095 28.3832 93.6985C28.3722 93.3874 28.5034 93.0667 28.9464 92.5964C29.3978 92.1173 30.0929 91.5648 31.0791 90.7834L35.8765 86.982C36.9467 86.134 37.7057 85.5342 38.3217 85.1788C38.929 84.8285 39.2914 84.7789 39.6012 84.878C39.911 84.9772 40.1773 85.2279 40.4684 85.8657C40.7636 86.5127 41.0335 87.4417 41.4126 88.7535L43.9623 97.576C44.6121 99.8244 45.0834 101.459 45.2574 102.637C45.4367 103.85 45.2596 104.328 44.9458 104.555C44.6319 104.782 44.1234 104.801 43.0268 104.251C41.9627 103.717 40.5573 102.758 38.6251 101.437L31.2779 96.4162Z" fill="white" stroke="#F4F4F4"/>
<path d="M27.1587 75.588C27.1616 75.2283 27.1643 75.106 27.1853 74.9894C27.2063 74.8729 27.2466 74.7573 27.3697 74.4193L29.217 69.3439C30.0872 66.953 30.723 65.2093 31.3179 64.0637C31.6149 63.4917 31.8816 63.11 32.1317 62.8776C32.3688 62.6572 32.5717 62.5871 32.7751 62.594C32.9786 62.6009 33.1762 62.6845 33.3979 62.9205C33.6317 63.1693 33.8719 63.5681 34.1296 64.1589C34.6456 65.3422 35.1619 67.125 35.8683 69.5692L39.0124 80.4483C39.196 81.0836 39.3219 81.5217 39.3832 81.8735C39.4424 82.2132 39.432 82.4257 39.3726 82.6113C39.3132 82.7968 39.1984 82.9759 38.953 83.2181C38.6988 83.4689 38.3419 83.7526 37.8236 84.1633L32.7528 88.1813C31.3183 89.3179 30.2864 90.1339 29.4735 90.6051C28.6546 91.0798 28.2166 91.1101 27.887 90.9491C27.5575 90.7881 27.3121 90.424 27.1832 89.4864C27.0551 88.5555 27.0645 87.2399 27.0793 85.4097L27.1587 75.588Z" fill="white" stroke="#F4F4F4"/>
<path d="M48.4987 125.449C48.3974 125.294 48.3319 125.102 48.2935 124.778C48.2536 124.442 48.2472 124.012 48.2388 123.387L48.2013 120.605C48.1665 118.023 48.1421 116.138 48.2931 114.837C48.3685 114.187 48.4834 113.729 48.6362 113.419C48.7812 113.124 48.9472 112.987 49.1401 112.922C49.3329 112.857 49.5482 112.867 49.8413 113.014C50.1502 113.17 50.5182 113.466 50.9701 113.939C51.875 114.886 52.9921 116.404 54.5214 118.485L57.5859 122.656C59.4235 125.156 60.7729 126.994 61.5471 128.357C61.9347 129.039 62.1535 129.561 62.2292 129.959C62.3018 130.341 62.2352 130.558 62.1106 130.711C61.9859 130.864 61.7875 130.973 61.3987 130.979C60.9933 130.985 60.4378 130.877 59.6912 130.635C58.2002 130.153 56.1273 129.203 53.3066 127.909L50.2795 126.521C49.7115 126.261 49.3207 126.081 49.0297 125.909C48.7489 125.742 48.5999 125.605 48.4987 125.449Z" fill="white" stroke="#F4F4F4"/>
<path d="M46.1228 120.565C45.9298 120.625 45.7104 120.608 45.4064 120.432C45.087 120.247 44.7099 119.905 44.2509 119.37C43.3331 118.298 42.207 116.597 40.6699 114.272L38.1838 110.512C35.9984 107.207 34.3823 104.761 33.4543 102.997C32.9889 102.112 32.7193 101.44 32.6261 100.942C32.5341 100.45 32.629 100.228 32.755 100.104C32.881 99.9802 33.1038 99.8887 33.5943 99.9882C34.0912 100.089 34.7591 100.369 35.6367 100.848C37.3863 101.803 39.8067 103.456 43.0782 105.692L45.5363 107.372C45.9638 107.664 46.2568 107.865 46.4742 108.044C46.6838 108.217 46.7949 108.349 46.8691 108.487C46.9433 108.625 46.9912 108.791 47.0195 109.061C47.0489 109.341 47.0542 109.697 47.0611 110.214L47.0892 112.295C47.1267 115.081 47.1533 117.121 46.9974 118.524C46.9194 119.225 46.7999 119.719 46.6399 120.052C46.4875 120.368 46.3158 120.506 46.1228 120.565Z" fill="white" stroke="#F4F4F4"/>
<path d="M12.864 61.0931C13.2727 60.7061 13.9464 60.8931 14.0971 61.4354L15.7837 67.5016C15.8354 67.6874 15.8528 67.7518 15.8637 67.8091C15.9576 68.3065 15.7943 68.8177 15.4295 69.1686C15.3874 69.2091 15.3358 69.2514 15.186 69.3729C14.7349 69.7387 14.5648 69.874 14.4651 69.9302C13.5283 70.4579 12.3568 69.8576 12.238 68.7889C12.2254 68.6752 12.2359 68.4581 12.2693 67.8783L12.6319 61.5925C12.6428 61.4025 12.7258 61.2239 12.864 61.0931Z" fill="white" stroke="#F4F4F4"/>
<path d="M21.5989 43.6976C21.6825 43.812 21.771 44.0384 21.859 44.5222C21.9447 44.9934 22.0183 45.6308 22.1199 46.5138C22.1737 46.9806 22.2111 47.3077 22.2243 47.5644C22.2374 47.8182 22.2242 47.9656 22.1946 48.0763C22.0682 48.5501 21.718 48.9323 21.257 49.0995C21.1493 49.1386 21.0036 49.1647 20.7497 49.1737C20.4928 49.1829 20.1637 49.1742 19.6939 49.1613C18.9374 49.1407 18.3955 49.1256 17.9877 49.0869C17.5735 49.0477 17.3664 48.9887 17.2464 48.9212C16.6863 48.606 16.3893 47.969 16.5078 47.3374C16.5332 47.2019 16.6211 47.0054 16.8573 46.6629C17.0899 46.3257 17.4267 45.9008 17.8971 45.3081C18.4496 44.6119 18.8486 44.1094 19.1703 43.7545C19.5004 43.3901 19.6951 43.2446 19.8265 43.1915C20.4635 42.9345 21.1937 43.143 21.5989 43.6976Z" fill="white" stroke="#F4F4F4"/>
<path d="M25.7153 44.6778L25.7153 44.6778L25.7475 44.7142L25.7475 44.7142C26.287 45.3345 26.2267 46.2735 25.6122 46.8197L25.6122 46.8197L25.5756 46.8516C25.5365 46.8855 25.5221 46.8979 25.5136 46.9051C24.6067 47.6663 23.2168 47.1259 23.0621 45.9521L22.5664 46.0174L23.0621 45.952C23.0607 45.941 23.0585 45.9221 23.0526 45.8707C23.0434 45.7912 23.0399 45.7602 23.0387 45.7474C22.9018 44.3184 24.6573 43.532 25.6325 44.5853L25.9994 44.2457L25.6325 44.5853C25.6413 44.5948 25.662 44.618 25.7153 44.6778Z" fill="white" stroke="#F4F4F4"/>
<path d="M44.3518 49.2971C44.3935 49.4964 44.3595 49.708 44.1843 49.9787C43.9995 50.2642 43.6714 50.5917 43.1619 50.9816C42.1413 51.7627 40.5415 52.6864 38.3475 53.9516L35.0482 55.8542C34.4684 56.1885 34.0682 56.4185 33.7374 56.5636C33.4179 56.7037 33.2068 56.7442 33.0106 56.7297C32.8143 56.7152 32.6115 56.6441 32.3161 56.4584C32.0103 56.2662 31.6483 55.9798 31.1241 55.5638L26.7005 52.0533C25.9982 51.4959 25.5057 51.1041 25.1663 50.7648C24.8326 50.4311 24.7009 50.1994 24.6566 49.9803C24.6213 49.8058 24.6174 49.6265 24.645 49.4506C24.6796 49.2298 24.801 48.9925 25.1198 48.6446C25.444 48.2907 25.9189 47.8777 26.5961 47.2901C27.1407 46.8177 27.3297 46.6619 27.5426 46.5756C27.6199 46.5442 27.6997 46.5193 27.7812 46.5012C28.0054 46.4514 28.2495 46.4721 28.966 46.5516L36.9849 47.441C39.5022 47.7201 41.3381 47.9248 42.5862 48.2311C43.2094 48.384 43.6413 48.5524 43.925 48.7398C44.1941 48.9176 44.3101 49.0978 44.3518 49.2971Z" fill="white" stroke="#F4F4F4"/>
<path d="M47.2959 49.9459C47.8212 49.643 48.183 49.4351 48.4828 49.3009C48.7721 49.1715 48.9652 49.1292 49.1458 49.134C49.3265 49.1388 49.517 49.1911 49.7991 49.3357C50.0915 49.4855 50.4417 49.7122 50.9503 50.0424L54.6606 52.4514C57.3585 54.2031 59.3426 55.4923 60.5941 56.5261C61.221 57.0439 61.6265 57.468 61.8471 57.8239C62.0593 58.1662 62.0719 58.3943 62.0082 58.5789C61.9445 58.7635 61.794 58.9353 61.4159 59.074C61.0228 59.2181 60.4421 59.302 59.6292 59.3233C58.0065 59.3656 55.6496 59.1574 52.4454 58.8732L45.609 58.2669C43.0029 58.0357 41.0998 57.8659 39.8044 57.5807C39.1573 57.4383 38.7073 57.2759 38.4108 57.0907C38.1294 56.9149 38.0096 56.7349 37.9658 56.5364C37.9219 56.3379 37.9548 56.1241 38.136 55.8461C38.327 55.5534 38.6668 55.2166 39.1937 54.815C40.2487 54.0109 41.9033 53.0555 44.1698 51.7485L47.2959 49.9459Z" fill="white" stroke="#F4F4F4"/>
<path d="M68.2884 61.2807L68.2884 61.2807C68.3807 61.2856 68.4732 61.2854 68.5655 61.2801C68.6098 61.2775 68.6535 61.2734 68.7164 61.2675L68.7246 61.2667C70.0068 61.1468 70.9499 61.0586 71.6342 61.0274C71.9758 61.0118 72.2385 61.0111 72.438 61.0254C72.6448 61.0402 72.7455 61.0689 72.7862 61.0875C73.5737 61.4478 73.8934 62.3981 73.4838 63.1611C73.4627 63.2006 73.3998 63.2843 73.244 63.4211C73.0937 63.5531 72.884 63.7114 72.6024 63.9054C72.0384 64.2941 71.2338 64.794 70.1398 65.4734L64.5804 68.9261C64.1407 69.1992 63.8388 69.3861 63.5869 69.5125C63.3441 69.6343 63.1792 69.683 63.0228 69.695C62.8663 69.7071 62.6959 69.6843 62.4372 69.6012C62.1689 69.5151 61.8419 69.3767 61.3655 69.1744L56.4569 67.0895C52.036 65.2117 48.7531 63.8168 46.6236 62.6857C45.5552 62.1182 44.8169 61.6371 44.375 61.2183C43.9248 60.7916 43.8921 60.5398 43.9288 60.3928C43.9656 60.2458 44.113 60.039 44.7111 59.8744C45.2981 59.7129 46.176 59.6361 47.3857 59.6383C49.797 59.6427 53.35 59.9573 58.1344 60.3817L68.1292 61.2682C68.1967 61.2742 68.2422 61.2783 68.2884 61.2807Z" fill="white" stroke="#F4F4F4"/>
<path d="M77.4394 69.9282C74.5249 69.9318 72.3879 69.9335 70.9247 69.757C70.1926 69.6687 69.6765 69.5404 69.3318 69.372C69.0028 69.2112 68.8674 69.0344 68.8134 68.8414C68.7594 68.6485 68.7833 68.4271 68.9811 68.1189C69.1882 67.796 69.5627 67.4183 70.1426 66.9628C71.3015 66.0524 73.1289 64.9445 75.6218 63.4345L93.3567 52.6924C93.8743 52.3789 94.2308 52.1636 94.5271 52.0233C94.8131 51.8878 95.0048 51.8414 95.1852 51.8422L95.1872 51.343L95.1852 51.8422C95.3656 51.8429 95.557 51.8908 95.8419 52.0285C96.1371 52.1712 96.4918 52.3893 97.007 52.7069L114.357 63.4052C116.795 64.9087 118.581 66.0111 119.712 66.9166C120.278 67.3695 120.642 67.7445 120.843 68.0646C121.034 68.3699 121.057 68.5904 121.003 68.7838C120.948 68.9773 120.813 69.1531 120.49 69.3129C120.151 69.4805 119.644 69.609 118.925 69.6985C117.487 69.8772 115.388 69.8808 112.524 69.8844L77.4394 69.9282Z" fill="white" stroke="#F4F4F4"/>
<path d="M66.3078 71.8441C66.457 71.4997 66.8333 71.2328 67.8547 71.0854C68.8612 70.9401 70.2956 70.9371 72.2833 70.9346L115.943 70.8801C118.198 70.8773 119.834 70.8764 120.971 71.0313C122.14 71.1903 122.541 71.4841 122.677 71.8445C122.813 72.205 122.705 72.6907 121.932 73.581C121.18 74.4481 119.95 75.5272 118.254 77.0127L94.228 98.0607C93.5292 98.6729 93.0417 99.0986 92.6305 99.3725C92.2313 99.6383 91.9639 99.719 91.7088 99.7063C91.4537 99.6936 91.1957 99.5867 90.8249 99.2826C90.4429 98.9693 90 98.4973 89.3654 97.8188L69.7314 76.8253C68.3737 75.3736 67.3948 74.3251 66.8124 73.4914C66.2213 72.6455 66.1586 72.1884 66.3078 71.8441Z" fill="white" stroke="#F4F4F4"/>
<path d="M94.6408 100.157C94.5429 99.8046 94.6517 99.3809 95.2625 98.6651C95.8692 97.9542 96.8521 97.0914 98.221 95.8922L110.007 85.5672C113.256 82.7205 115.665 80.6112 117.425 79.3401C118.307 78.7024 118.99 78.3034 119.509 78.1205C120.028 77.9376 120.264 78.0086 120.394 78.1126C120.524 78.2166 120.644 78.4314 120.579 78.9779C120.514 79.5242 120.274 80.2775 119.844 81.2782C118.987 83.273 117.455 86.0838 115.386 89.8761L109.202 101.211C108.863 101.832 108.628 102.261 108.409 102.572C108.197 102.874 108.028 103.023 107.842 103.112C107.656 103.201 107.434 103.239 107.066 103.215C106.686 103.191 106.205 103.105 105.508 102.979L99.9065 101.969C98.1154 101.646 96.8285 101.413 95.9424 101.116C95.0502 100.817 94.7386 100.51 94.6408 100.157Z" fill="white" stroke="#F4F4F4"/>
<path d="M64.5578 81.907C64.3531 79.5008 64.2051 77.7492 64.264 76.5234C64.3249 75.2565 64.5981 74.8156 64.9535 74.6576C65.3089 74.4995 65.8193 74.592 66.8008 75.3954C67.7504 76.1727 68.952 77.4558 70.6015 79.2195L83.0622 92.5431C84.7712 94.3705 86.0163 95.7034 86.7554 96.7363C87.5218 97.8075 87.58 98.3343 87.3935 98.6774C87.207 99.0205 86.7333 99.2583 85.4175 99.1977C84.1488 99.1394 82.3531 98.8195 79.8901 98.3793L68.3881 96.3234C67.6499 96.1914 67.1394 96.0993 66.7539 95.9823C66.3811 95.8691 66.1788 95.7473 66.033 95.5875C65.8872 95.4276 65.7845 95.215 65.7061 94.8334C65.625 94.4387 65.5802 93.9219 65.5166 93.1747L64.5578 81.907Z" fill="white" stroke="#F4F4F4"/>
<path d="M139.642 44.3376C139.855 44.6374 139.896 45.0781 139.552 45.9741C139.21 46.8626 138.559 48.0269 137.651 49.6447L128.202 66.4866C127.716 67.353 127.376 67.9576 127.059 68.3777C126.75 68.7862 126.51 68.9553 126.251 69.0225C125.991 69.0897 125.699 69.0584 125.231 68.8511C124.75 68.6379 124.159 68.2747 123.313 67.7533L104.34 56.054C102.454 54.8911 101.087 54.0467 100.216 53.328C99.3236 52.5913 99.1377 52.1354 99.209 51.7581C99.2803 51.3807 99.6198 51.0241 100.72 50.664C101.793 50.3126 103.374 50.0253 105.554 49.6308L133.975 44.4881C135.801 44.1578 137.114 43.9215 138.065 43.8886C139.024 43.8554 139.428 44.0377 139.642 44.3376Z" fill="white" stroke="#F4F4F4"/>
<path d="M139.595 37.9929C140.106 39.0882 140.465 39.8601 140.647 40.4669C140.826 41.0612 140.804 41.3978 140.664 41.6678C140.525 41.9379 140.263 42.15 139.674 42.347C139.073 42.5482 138.236 42.701 137.047 42.9161L117.703 46.4163C113.372 47.1999 110.162 47.7803 107.959 47.9711C106.854 48.0669 106.048 48.0597 105.499 47.9498C104.948 47.8395 104.782 47.6555 104.726 47.5016C104.669 47.3477 104.677 47.1002 105.026 46.6599C105.374 46.2212 105.984 45.6948 106.889 45.0535C108.693 43.7753 111.518 42.1428 115.329 39.9416L131.854 30.3959C132.751 29.8778 133.379 29.5163 133.886 29.3101C134.38 29.1093 134.682 29.0893 134.945 29.1722C135.208 29.2551 135.444 29.4446 135.734 29.8924C136.031 30.3523 136.339 31.0086 136.776 31.9474L139.595 37.9929Z" fill="white" stroke="#F4F4F4"/>
<path d="M157.403 46.1191C157.313 46.3379 157.144 46.5341 156.783 46.7761C156.41 47.026 155.89 47.2881 155.139 47.6646L144.275 53.1137C141.918 54.2956 140.196 55.1582 138.935 55.6002C138.305 55.8211 137.834 55.9206 137.482 55.9191C137.148 55.9178 136.951 55.827 136.81 55.6809C136.669 55.5348 136.585 55.3349 136.595 55.001C136.606 54.6494 136.721 54.1815 136.964 53.5595C137.449 52.3144 138.371 50.6232 139.633 48.3089L141.712 44.498C141.731 44.4636 141.75 44.4296 141.768 44.396C142.189 43.6257 142.482 43.0898 142.501 42.4924C142.519 41.895 142.261 41.3418 141.89 40.5464C141.873 40.5118 141.857 40.4767 141.84 40.4411L140.832 38.2783C140.613 37.8078 140.462 37.4847 140.367 37.2188C140.275 36.9623 140.246 36.7923 140.253 36.6351C140.26 36.4779 140.303 36.311 140.417 36.0636C140.536 35.807 140.714 35.4983 140.973 35.0487L145.395 27.3928C146.359 25.7231 147.055 24.5205 147.666 23.7443C148.284 22.959 148.695 22.7674 149.065 22.8048C149.436 22.8422 149.8 23.1119 150.249 24.005C150.692 24.8876 151.134 26.2051 151.745 28.0338L156.89 43.4266C157.156 44.223 157.34 44.7762 157.427 45.2163C157.512 45.6426 157.493 45.9003 157.403 46.1191Z" fill="white" stroke="#F4F4F4"/>
<path d="M152.8 49.9567C154.131 49.2889 155.079 48.8149 155.813 48.5738C156.54 48.3349 156.925 48.3701 157.213 48.5503C157.5 48.7305 157.7 49.0619 157.801 49.8207C157.904 50.5862 157.89 51.646 157.869 53.1354L157.587 72.754C157.575 73.6504 157.561 73.9527 157.443 74.2141C157.325 74.4755 157.108 74.6865 156.446 75.2904L150.923 80.3252C150.153 81.027 149.614 81.5174 149.159 81.8288C148.717 82.1322 148.425 82.2161 148.149 82.1904C147.874 82.1646 147.602 82.028 147.224 81.6481C146.835 81.2579 146.396 80.6762 145.769 79.8439L133.187 63.1322C132.762 62.5683 132.621 62.3713 132.55 62.17C132.453 61.8955 132.439 61.5988 132.508 61.316C132.558 61.1087 132.68 60.8988 133.046 60.2957C133.206 60.0331 133.262 59.9441 133.325 59.8671C133.412 59.7623 133.512 59.6698 133.624 59.5921C133.706 59.5349 133.799 59.4868 134.074 59.349L152.8 49.9567Z" fill="white" stroke="#F4F4F4"/>
<path d="M116.267 92.8412C116.021 92.548 115.959 92.065 116.36 91.0027C116.752 89.9647 117.506 88.5797 118.548 86.6694L129.017 67.4803C129.695 66.2384 130.177 65.3576 130.62 64.7706C131.058 64.1906 131.381 64.0021 131.711 63.978C132.041 63.9538 132.389 64.0934 132.906 64.6035C133.43 65.1198 134.035 65.9212 134.886 67.0514L144.282 79.5319C145.052 80.5544 145.595 81.2773 145.916 81.8645C146.231 82.4413 146.275 82.7889 146.183 83.0892C146.09 83.3894 145.856 83.6511 145.271 83.9494C144.675 84.2531 143.819 84.5436 142.606 84.9531L122.741 91.6617C120.679 92.3579 119.184 92.8614 118.094 93.0681C116.978 93.2796 116.514 93.1343 116.267 92.8412Z" fill="white" stroke="#F4F4F4"/>
<path d="M113.31 96.2069C113.461 95.9589 113.695 95.772 113.97 95.6791L146.843 84.5777C147.534 84.3445 147.77 84.2718 148.005 84.2745C148.241 84.2773 148.475 84.3555 149.16 84.6048L150.651 85.1474C151.286 85.3785 151.724 85.5387 152.051 85.7004C152.366 85.8566 152.534 85.9937 152.649 86.1552C152.765 86.3168 152.84 86.52 152.885 86.8693C152.932 87.231 152.941 87.6972 152.953 88.3729L153.24 104.235C153.263 105.478 153.277 106.355 153.195 107C153.115 107.634 152.952 107.937 152.708 108.126C152.464 108.316 152.13 108.397 151.496 108.317C150.85 108.236 150.005 108.003 148.806 107.671L114.035 98.0371C113.246 97.8185 112.885 96.9063 113.31 96.2069Z" fill="white" stroke="#F4F4F4"/>
<path d="M112.089 98.8657C112.292 98.7817 112.53 98.7579 112.922 98.8176C113.327 98.8793 113.836 99.0195 114.571 99.2232L147.576 108.368C148.968 108.753 149.957 109.029 150.643 109.333C151.321 109.634 151.58 109.911 151.676 110.231C151.772 110.552 151.708 110.926 151.307 111.55C150.902 112.181 150.228 112.955 149.278 114.043L127.508 138.963C126.516 140.099 125.808 140.907 125.213 141.413C124.623 141.916 124.25 142.029 123.914 141.968C123.579 141.908 123.269 141.672 122.891 140.994C122.511 140.312 122.13 139.308 121.598 137.897L109.388 105.557C109.046 104.652 108.941 104.344 108.965 104.037C108.988 103.73 109.139 103.441 109.615 102.599L110.589 100.875C110.964 100.21 111.225 99.7511 111.467 99.4209C111.701 99.1017 111.887 98.9498 112.089 98.8657Z" fill="white" stroke="#F4F4F4"/>
<path d="M103.551 105.383C103.994 104.632 104.153 104.379 104.36 104.218C104.555 104.065 104.786 103.963 105.031 103.922C105.289 103.878 105.583 103.931 106.437 104.111L106.54 103.622L106.437 104.111C107.098 104.25 107.323 104.302 107.506 104.405C107.681 104.503 107.834 104.634 107.957 104.791C108.086 104.957 108.173 105.171 108.412 105.803L121.066 139.32C121.518 140.518 121.836 141.364 121.979 142.017C122.12 142.659 122.065 143.005 121.892 143.267C121.719 143.529 121.421 143.715 120.776 143.837C120.119 143.962 119.216 144.001 117.937 144.054L103.881 144.638C103.109 144.67 102.848 144.674 102.611 144.596C102.374 144.519 102.165 144.363 101.56 143.883L89.8242 134.57C89.1634 134.045 88.7052 133.68 88.3901 133.358C88.0849 133.046 87.9602 132.818 87.9169 132.585C87.8736 132.351 87.9085 132.094 88.0815 131.693C88.2602 131.28 88.5571 130.775 88.9861 130.048L103.551 105.383Z" fill="white" stroke="#F4F4F4"/>
<path d="M115.277 156.046C114.897 155.993 114.526 155.673 114.115 154.601C113.713 153.556 113.35 152.004 112.852 149.863L112.732 149.35C112.473 148.236 112.292 147.453 112.239 146.853C112.189 146.267 112.271 145.953 112.45 145.72C112.63 145.487 112.912 145.326 113.491 145.225C114.084 145.121 114.887 145.094 116.031 145.058L116.444 145.045C118.026 144.995 119.155 144.961 119.968 145.056C120.777 145.15 121.122 145.356 121.303 145.654C121.484 145.951 121.509 146.352 121.22 147.114C120.931 147.879 120.382 148.867 119.61 150.249L119.317 150.775C118.246 152.694 117.468 154.085 116.793 154.979C116.101 155.895 115.656 156.1 115.277 156.046Z" fill="white" stroke="#F4F4F4"/>
<path d="M120.797 160.186C119.418 160.042 118.44 159.939 117.741 159.759C117.052 159.583 116.756 159.361 116.605 159.07C116.454 158.779 116.443 158.41 116.695 157.744C116.951 157.069 117.429 156.21 118.104 155L123.779 144.83C123.827 144.745 123.843 144.716 123.86 144.689L123.435 144.425L123.86 144.689C123.89 144.64 123.923 144.593 123.959 144.548C123.979 144.523 124 144.498 124.064 144.424C124.711 143.682 125.179 143.144 125.552 142.768C125.937 142.38 126.156 142.234 126.295 142.189C126.956 141.975 127.678 142.244 128.038 142.838C128.114 142.963 128.184 143.217 128.222 143.761C128.259 144.289 128.262 145.003 128.265 145.987L128.309 157.073C128.313 158.128 128.315 158.867 128.24 159.419C128.167 159.957 128.031 160.232 127.824 160.419C127.617 160.607 127.33 160.714 126.787 160.733C126.23 160.753 125.495 160.677 124.445 160.567L120.797 160.186Z" fill="white" stroke="#F4F4F4"/>
<path d="M119.777 167.496L119.554 167.944L119.777 167.496C119.61 167.413 119.438 167.258 119.204 166.924C118.967 166.586 118.703 166.118 118.328 165.452C117.769 164.461 117.37 163.752 117.128 163.196C116.883 162.634 116.843 162.326 116.892 162.112C116.972 161.76 117.177 161.448 117.468 161.235C117.645 161.105 117.944 161.019 118.556 161.02C119.162 161.021 119.972 161.105 121.103 161.224C122.416 161.361 123.363 161.46 124.049 161.602C124.75 161.747 125.052 161.913 125.196 162.089C125.439 162.387 125.558 162.766 125.53 163.149C125.513 163.376 125.361 163.686 124.87 164.206C124.389 164.715 123.67 165.339 122.673 166.205C122.095 166.706 121.689 167.058 121.352 167.297C121.02 167.532 120.806 167.62 120.621 167.642C120.331 167.677 120.038 167.626 119.777 167.496Z" fill="white" stroke="#F4F4F4"/>
<path d="M111.836 164.261C112.475 163.499 112.927 162.961 113.311 162.595C113.693 162.232 113.947 162.1 114.173 162.068C114.408 162.034 114.647 162.056 114.872 162.132C115.088 162.206 115.313 162.382 115.621 162.809C115.932 163.239 116.278 163.851 116.766 164.717C117.29 165.647 117.661 166.308 117.882 166.831C118.103 167.353 118.134 167.653 118.077 167.881C118.018 168.12 117.9 168.341 117.734 168.524C117.576 168.699 117.31 168.839 116.754 168.947C116.195 169.055 115.44 169.114 114.376 169.197L112.738 169.324C111.919 169.388 111.328 169.434 110.885 169.441C110.43 169.448 110.206 169.411 110.085 169.359C109.422 169.076 109.055 168.362 109.209 167.658C109.238 167.529 109.338 167.326 109.608 166.96C109.872 166.603 110.253 166.149 110.78 165.519L111.836 164.261Z" fill="white" stroke="#F4F4F4"/>
<path d="M107.948 174.336C107.852 174.186 107.772 173.952 107.559 173.291C107.347 172.633 107.276 172.399 107.266 172.221C107.23 171.555 107.639 170.944 108.27 170.724C108.438 170.666 108.682 170.642 109.37 170.589C110.286 170.518 110.959 170.466 111.45 170.445C111.968 170.423 112.199 170.443 112.286 170.47C113.27 170.778 113.657 171.964 113.044 172.793C112.99 172.866 112.815 173.019 112.384 173.306C111.976 173.579 111.401 173.934 110.62 174.417C110.028 174.783 109.816 174.909 109.646 174.96C109.004 175.155 108.311 174.9 107.948 174.336Z" fill="white" stroke="#F4F4F4"/>
<path d="M108.565 177.508C108.576 177.098 108.793 176.722 109.142 176.506C110.351 175.759 111.641 177.338 110.668 178.374C109.902 179.19 108.534 178.626 108.565 177.508Z" fill="white" stroke="#F4F4F4"/>
<path d="M106.924 174.581C107.03 174.91 107.066 175.026 107.083 175.122C107.191 175.751 106.89 176.379 106.332 176.689C106.247 176.736 106.134 176.78 105.811 176.904C105.286 177.104 104.9 177.252 104.616 177.353C104.316 177.459 104.176 177.496 104.117 177.503C102.938 177.646 102.069 176.426 102.589 175.357C102.614 175.304 102.696 175.184 102.894 174.935C103.082 174.699 103.347 174.383 103.708 173.952C104.101 173.484 104.247 173.314 104.353 173.23C105.077 172.651 106.147 172.86 106.599 173.668C106.665 173.786 106.736 173.999 106.924 174.581Z" fill="white" stroke="#F4F4F4"/>
<path d="M127.594 163.275L127.225 162.944L127.594 163.275C127.613 163.253 127.675 163.194 127.822 163.064C127.96 162.942 128.152 162.775 128.413 162.548C128.477 162.493 128.499 162.474 128.519 162.458C128.823 162.214 129.208 162.098 129.595 162.134C129.622 162.136 129.651 162.14 129.735 162.151C130.374 162.235 130.632 162.27 130.712 162.291L130.838 161.807L130.712 162.291C132.071 162.643 132.245 164.502 130.975 165.1C130.9 165.135 130.653 165.218 130.04 165.418C129.712 165.526 129.47 165.605 129.294 165.661C129.108 165.72 129.024 165.743 128.997 165.748C127.585 166.022 126.634 164.345 127.594 163.275Z" fill="white" stroke="#F4F4F4"/>
<path d="M102.462 103.99C102.596 104.281 102.594 104.64 102.336 105.272C102.075 105.913 101.598 106.722 100.923 107.866L90.7932 125.021C89.827 126.658 89.1301 127.835 88.5198 128.594C87.9031 129.362 87.4949 129.549 87.126 129.51C86.7571 129.472 86.3962 129.205 85.951 128.327C85.5104 127.458 85.0714 126.162 84.4634 124.361L77.6626 104.223C77.1762 102.782 76.8309 101.756 76.6913 100.981C76.5527 100.212 76.6441 99.8307 76.8672 99.571C77.0903 99.3113 77.4531 99.1636 78.2346 99.1847C79.0218 99.2059 80.0885 99.3925 81.5859 99.6563L98.5167 102.639C99.8243 102.87 100.749 103.034 101.406 103.252C102.053 103.467 102.328 103.699 102.462 103.99Z" fill="white" stroke="#F4F4F4"/>
<path d="M69.536 100.899C69.5773 100.164 69.6068 99.65 69.6685 99.2575C69.7292 98.8719 69.8132 98.6622 69.9266 98.5128C70.0725 98.3205 70.2627 98.1662 70.481 98.0631C70.6506 97.983 70.8731 97.944 71.2629 97.9642C71.6598 97.9849 72.1688 98.0621 72.8963 98.1733C73.769 98.3067 74.0647 98.3609 74.298 98.5009C74.4334 98.5822 74.5552 98.6844 74.6588 98.8038C74.8371 99.0093 74.9416 99.2911 75.2241 100.128L84.7056 128.204C85.0807 129.315 85.3434 130.097 85.4552 130.702C85.5646 131.294 85.5096 131.62 85.348 131.871C85.1864 132.122 84.9128 132.307 84.3284 132.453C83.7311 132.602 82.9108 132.687 81.7446 132.806L71.7414 133.826C70.6433 133.938 69.8728 134.015 69.2916 133.992C68.7245 133.97 68.4296 133.854 68.2217 133.656C68.0138 133.457 67.8847 133.168 67.8368 132.602C67.7877 132.023 67.83 131.25 67.8919 130.147L69.536 100.899Z" fill="white" stroke="#F4F4F4"/>
<path d="M65.9991 96.9379C66.5827 97.0605 66.6868 97.8492 66.155 98.119L56.931 102.8C54.8987 103.832 53.4223 104.58 52.326 104.96C51.1991 105.35 50.7051 105.269 50.4218 105.007C50.1385 104.745 50.0181 104.259 50.3192 103.105C50.6122 101.982 51.2423 100.451 52.1116 98.3446L57.2571 85.8727C58.51 82.8358 59.433 80.6007 60.2339 79.1499C60.6352 78.423 60.9836 77.9354 61.2977 77.6466C61.6006 77.3683 61.8239 77.3148 62.0155 77.3444C62.2071 77.374 62.404 77.4923 62.6087 77.8491C62.8212 78.2191 63.0063 78.7891 63.1696 79.6032C63.4955 81.228 63.7014 83.6374 63.9799 86.9108L64.709 95.4796C64.7701 96.1971 65.2944 96.7897 65.9991 96.9379Z" fill="white" stroke="#F4F4F4"/>
<path d="M67.8768 99.2093C68.1665 99.3986 68.3612 99.7458 68.4343 100.545C68.5078 101.348 68.4467 102.459 68.3592 104.017L67.2552 123.656C67.1239 125.992 67.0272 127.691 66.8015 128.86C66.5688 130.065 66.2437 130.456 65.8724 130.567C65.501 130.677 65.0149 130.526 64.1623 129.644C63.3349 128.788 62.3263 127.418 60.9404 125.532L50.7291 111.636C50.0717 110.741 49.6114 110.113 49.3347 109.597C49.0647 109.095 49.0152 108.78 49.0821 108.5C49.1489 108.219 49.3346 107.961 49.8023 107.633C50.2814 107.298 50.9755 106.945 51.9654 106.442L63.2807 100.699C64.6717 99.9933 65.6643 99.491 66.4297 99.2354C67.1908 98.9813 67.587 99.02 67.8768 99.2093Z" fill="white" stroke="#F4F4F4"/>
<path d="M136.23 1.1137C136.569 1.10605 136.918 1.27277 137.42 1.84961C137.927 2.43153 138.498 3.32279 139.3 4.57649L146.739 16.2122C147.274 17.0484 147.647 17.633 147.867 18.1104C148.082 18.5746 148.118 18.8658 148.055 19.1261C147.993 19.3864 147.828 19.6291 147.425 19.9444C147.011 20.2686 146.413 20.6192 145.556 21.1198L124.187 33.6016C121.561 35.1359 119.632 36.2616 118.223 36.8745C117.517 37.1813 116.985 37.3396 116.588 37.3712C116.208 37.4014 116.001 37.3139 115.86 37.174C115.719 37.034 115.631 36.8269 115.659 36.4466C115.689 36.0494 115.844 35.5168 116.148 34.8098C116.754 33.3976 117.87 31.4631 119.391 28.829L133.32 4.71148C134.064 3.42289 134.595 2.50675 135.075 1.90255C135.55 1.30364 135.891 1.12135 136.23 1.1137Z" fill="white" stroke="#F4F4F4"/>
<path d="M53.4014 76.2876C55.4825 75.1541 56.9968 74.3306 58.1224 73.9007C59.2838 73.4572 59.7916 73.5283 60.0803 73.7876C60.369 74.0469 60.4942 74.5441 60.1778 75.7463C59.8712 76.9116 59.2148 78.5055 58.311 80.6961L51.4347 97.3632C50.5207 99.5784 49.8546 101.19 49.2445 102.244C48.6144 103.333 48.1718 103.599 47.7837 103.577C47.3957 103.556 46.9849 103.243 46.4781 102.092C45.9873 100.977 45.5021 99.3023 44.8368 97.0001L41.6103 85.8358C41.3931 85.0841 41.2434 84.5632 41.1764 84.1491C41.1115 83.7483 41.1348 83.505 41.221 83.2984C41.3073 83.0918 41.4638 82.9041 41.7943 82.6684C42.1359 82.4247 42.6114 82.1647 43.2985 81.7905L53.4014 76.2876Z" fill="white" stroke="#F4F4F4"/>
<path d="M55.2675 67.6708C56.9377 68.3802 58.1373 68.8911 58.9335 69.3756C59.7349 69.8632 59.9704 70.231 59.9882 70.5964C60.0059 70.9618 59.8071 71.3506 59.0568 71.9137C58.3113 72.4731 57.1669 73.0979 55.5734 73.9659L44.3722 80.0669C43.3489 80.6243 42.6287 81.0152 42.055 81.2285C41.4938 81.4371 41.1649 81.4396 40.8903 81.325C40.6157 81.2104 40.3861 80.9749 40.1398 80.4292C39.8878 79.8713 39.6592 79.0845 39.3356 77.9651L35.7584 65.587C35.2475 63.8193 34.8815 62.548 34.7527 61.6124C34.623 60.6695 34.7619 60.2515 35.0368 60.0078C35.3117 59.7641 35.7433 59.6765 36.6638 59.9184C37.5773 60.1585 38.7955 60.6745 40.4891 61.3938L55.2675 67.6708Z" fill="white" stroke="#F4F4F4"/>
<path d="M13.3647 44.0528C13.749 43.8736 14.0316 43.7419 14.2392 43.6491C14.4581 43.5512 14.5596 43.5126 14.5988 43.502C15.8724 43.1584 16.9375 44.5078 16.3073 45.6667C16.288 45.7024 16.2268 45.7921 16.0808 45.9823C15.9422 46.1627 15.7484 46.407 15.4848 46.7391C15.2753 47.0031 15.1995 47.0971 15.1399 47.1558C14.5171 47.7693 13.5038 47.7223 12.9403 47.0539C12.8865 46.99 12.8196 46.8893 12.6354 46.6071C12.4789 46.3674 12.4242 46.282 12.39 46.2143C12.0372 45.5159 12.2806 44.6637 12.9489 44.2568C13.0137 44.2174 13.1052 44.1738 13.3647 44.0528Z" fill="white" stroke="#F4F4F4"/>
<path d="M24.4543 41.7593C24.0582 41.3146 24.4593 40.6222 25.0421 40.7447C25.2627 40.7911 25.4404 40.9539 25.5058 41.1696C25.6978 41.8026 24.8944 42.2531 24.4543 41.7593Z" fill="white" stroke="#F4F4F4"/>
</g>
<defs>
<filter id="filter0_i_416_267" x="8.59165" y="0.0435028" width="150.934" height="179.218" filterUnits="userSpaceOnUse" color-interpolation-filters="sRGB">
<feFlood flood-opacity="0" result="BackgroundImageFix"/>
<feBlend mode="normal" in="SourceGraphic" in2="BackgroundImageFix" result="shape"/>
<feColorMatrix in="SourceAlpha" type="matrix" values="0 0 0 0 0 0 0 0 0 0 0 0 0 0 0 0 0 0 127 0" result="hardAlpha"/>
<feOffset/>
<feGaussianBlur stdDeviation="0.5"/>
<feComposite in2="hardAlpha" operator="arithmetic" k2="-1" k3="1"/>
<feColorMatrix type="matrix" values="0 0 0 0 0 0 0 0 0 0 0 0 0 0 0 0 0 0 0.25 0"/>
<feBlend mode="normal" in2="shape" result="effect1_innerShadow_416_267"/>
</filter>
</defs>
</svg>
