<svg width="125" height="180" viewBox="0 0 125 180" fill="none" xmlns="http://www.w3.org/2000/svg">
<g filter="url(#filter0_i_416_475)">
<path d="M3.384 46.09C2.89216 45.2722 2.55007 44.7014 2.34901 44.2363C2.1537 43.7845 2.1231 43.5011 2.18559 43.2483C2.24808 42.9955 2.40719 42.759 2.79053 42.4503C3.18516 42.1324 3.7538 41.7867 4.57 41.2923L12.4564 36.5155C13.7168 35.7521 14.6137 35.2104 15.3187 34.9147C16.017 34.6218 16.401 34.6252 16.7012 34.7795C17.0014 34.9338 17.2277 35.2442 17.3958 35.9825C17.5655 36.7279 17.6469 37.7726 17.7594 39.2419L18.9823 55.2068C19.1841 57.8418 19.3305 59.767 19.2621 61.1048C19.2279 61.7731 19.1413 62.2484 19.0065 62.5742C18.8785 62.8835 18.7198 63.0313 18.531 63.1065C18.3423 63.1816 18.1254 63.1833 17.8198 63.0466C17.4981 62.9026 17.1085 62.6169 16.6243 62.1549C15.6551 61.2303 14.4383 59.7312 12.7739 57.6785L3.40248 46.1207L3.384 46.09Z" fill="white" stroke="#F4F4F4"/>
<path d="M31.4132 37.6436C31.5359 37.8929 31.5613 38.197 31.4336 38.7208C31.3024 39.2585 31.0331 39.9405 30.6469 40.9142L26.3793 51.6728C25.1147 54.8609 24.182 57.2101 23.3719 58.7374C22.9658 59.5028 22.6121 60.0189 22.292 60.3262C21.982 60.6237 21.7564 60.6786 21.5679 60.65C21.3794 60.6214 21.1802 60.502 20.9724 60.1259C20.7579 59.7376 20.5732 59.1397 20.4125 58.2883C20.0919 56.5895 19.8981 54.0693 19.6361 50.6496L18.6984 38.4068C18.5974 37.0889 18.5273 36.1566 18.5754 35.4686C18.6227 34.7916 18.7782 34.4691 19.0259 34.2668C19.2736 34.0645 19.6208 33.9767 20.2936 34.0657C20.9772 34.1561 21.8767 34.4112 23.1479 34.7737L28.3532 36.2579C29.3605 36.5451 30.0653 36.7472 30.5716 36.971C31.0648 37.1889 31.2904 37.3944 31.4132 37.6436Z" fill="white" stroke="#F4F4F4"/>
<path d="M27.7493 50.9313C28.8524 48.1501 29.6629 46.1094 30.384 44.7804C30.745 44.1153 31.0618 43.6707 31.3513 43.4057C31.6282 43.1522 31.8443 43.0926 32.0423 43.1152C32.2403 43.1378 32.4375 43.2446 32.6501 43.5539C32.8724 43.8775 33.0809 44.3819 33.2826 45.1114C33.6856 46.5687 34.0153 48.7395 34.4632 51.6978L35.3684 57.6758C35.4781 58.4 35.5531 58.9008 35.5665 59.2945C35.5795 59.675 35.5316 59.9017 35.4314 60.0887C35.3311 60.2758 35.1688 60.4411 34.8447 60.6409C34.5094 60.8477 34.0509 61.0624 33.387 61.3719L29.3669 63.2465C27.4221 64.1534 26.0131 64.8091 24.9665 65.1299C23.8968 65.4577 23.4225 65.3663 23.1448 65.1044C22.867 64.8425 22.7479 64.3744 23.0124 63.2873C23.2713 62.2236 23.8431 60.7786 24.6344 58.7839L27.7493 50.9313Z" fill="white" stroke="#F4F4F4"/>
<path d="M34.3358 39.0445C34.6123 38.83 35.011 38.761 35.8089 38.9685C36.6096 39.1768 37.6628 39.6226 39.1369 40.2488L55.9072 47.3717C58.0093 48.2646 59.5354 48.914 60.534 49.5094C61.5607 50.1214 61.8163 50.5528 61.798 50.9383C61.7797 51.3239 61.4843 51.7291 60.4042 52.2409C59.3536 52.7388 57.7727 53.2406 55.5954 53.9299L40.6215 58.6709C39.5706 59.0036 38.833 59.2359 38.26 59.3319C37.7009 59.4256 37.389 59.3724 37.1451 59.2205C36.9012 59.0686 36.7158 58.8121 36.5532 58.269C36.3865 57.7125 36.2696 56.9481 36.1045 55.8581L34.3081 43.9942C34.0683 42.4107 33.8984 41.2797 33.8958 40.4523C33.8933 39.6279 34.0593 39.2589 34.3358 39.0445Z" fill="white" stroke="#F4F4F4"/>
<path d="M38.0786 38.7128C36.8915 38.2086 36.0532 37.8511 35.4779 37.5004C34.9124 37.1558 34.6992 36.8753 34.6304 36.5673C34.5616 36.2593 34.6352 35.9148 35.0002 35.3622C35.3716 34.8 35.9781 34.1199 36.8378 33.1584L43.3327 25.8945C44.1345 24.9978 44.7001 24.3672 45.1836 23.9621C45.6572 23.5653 45.974 23.4528 46.2765 23.4741C46.579 23.4954 46.877 23.6512 47.2903 24.1104C47.7123 24.5793 48.1839 25.283 48.8521 26.2831L58.2007 40.2764C59.7259 42.5593 60.841 44.2301 61.4629 45.4735C61.7738 46.0951 61.9395 46.5684 61.9848 46.9298C62.028 47.2735 61.9598 47.4818 61.8307 47.6377C61.7016 47.7935 61.5097 47.8993 61.1639 47.9209C60.8004 47.9437 60.3045 47.869 59.6359 47.6793C58.2985 47.2998 56.4492 46.5155 53.9222 45.4422L38.0786 38.7128Z" fill="white" stroke="#F4F4F4"/>
<path d="M69.2881 20.5627C69.4962 20.7799 69.6123 21.0921 69.6143 21.7015C69.6164 22.3241 69.5011 23.151 69.3355 24.3257L67.0286 40.6907C66.7184 42.8918 66.4921 44.4883 66.182 45.5776C65.8641 46.6947 65.5202 47.0484 65.1456 47.1339C64.7709 47.2195 64.3076 47.0501 63.5363 46.1817C62.7842 45.3349 61.8875 43.9948 60.6526 42.1464L50.528 26.9916C49.6901 25.7374 49.0946 24.8437 48.7607 24.1372C48.4293 23.4361 48.4177 23.0465 48.5637 22.7382C48.7098 22.43 49.0186 22.1921 49.7709 22.0044C50.5292 21.8153 51.5979 21.7099 53.0991 21.5637L65.5307 20.3536C66.7114 20.2387 67.5425 20.159 68.1645 20.1879C68.7732 20.2161 69.0801 20.3456 69.2881 20.5627Z" fill="white" stroke="#F4F4F4"/>
<path d="M69.6967 28.928C69.9841 26.889 70.1931 25.4153 70.4846 24.4045C70.7814 23.3753 71.1064 23.0342 71.4726 22.9386C71.8388 22.8431 72.289 22.9821 73.0507 23.7351C73.7989 24.4747 74.7011 25.6586 75.9479 27.2973L85.7433 40.172C86.5627 41.2489 87.1419 42.0124 87.4822 42.6299C87.8176 43.2384 87.8606 43.5995 87.7574 43.9064C87.6541 44.2132 87.4016 44.4748 86.7665 44.7568C86.122 45.0429 85.1991 45.3009 83.8954 45.6634L71.8115 49.0231C70.4676 49.3967 69.5141 49.6605 68.794 49.7503C68.0831 49.839 67.7255 49.7406 67.4783 49.5239C67.2311 49.3071 67.0868 48.9655 67.0818 48.2491C67.0767 47.5235 67.2135 46.5437 67.4082 45.1624L69.6967 28.928Z" fill="white" stroke="#F4F4F4"/>
<path d="M75.5717 23.3019C75.6937 23.1461 75.8894 23.0335 76.2743 23.0182C76.6759 23.0022 77.2284 23.0969 77.9731 23.3192C79.4604 23.7632 81.5328 24.6576 84.3539 25.8764L95.1052 30.5215C96.259 31.02 97.0727 31.3729 97.6322 31.7182C98.1814 32.0572 98.3912 32.3327 98.4614 32.6357C98.5316 32.9388 98.4643 33.2785 98.12 33.8243C97.7692 34.3805 97.1935 35.0552 96.3763 36.0101L92.5557 40.4746C91.8014 41.356 91.2702 41.9749 90.812 42.377C90.364 42.7702 90.0586 42.8897 89.762 42.8812C89.4654 42.8726 89.1674 42.7358 88.7427 42.3175C88.3083 41.8898 87.8135 41.2414 87.1111 40.3182L80.1803 31.2086C78.3196 28.7629 76.9535 26.966 76.1652 25.6289C75.7706 24.9594 75.5459 24.4458 75.465 24.0521C75.3874 23.6748 75.4497 23.4578 75.5717 23.3019Z" fill="white" stroke="#F4F4F4"/>
<path d="M34.0387 34.7886C33.6258 35.2504 33.3411 35.5678 33.0929 35.7932C32.8533 36.0108 32.6795 36.1122 32.5027 36.1633C32.3258 36.2145 32.1247 36.2216 31.806 36.1657C31.4757 36.1077 31.0655 35.9914 30.4698 35.8216L29.4171 35.5214C27.0201 34.8379 25.2732 34.3387 24.1121 33.8356C22.9084 33.3141 22.5879 32.8935 22.5705 32.5035C22.5531 32.1135 22.8349 31.6661 23.9875 31.0395C25.0992 30.4351 26.7948 29.7824 29.1215 28.8884L31.134 28.1151C34.2113 26.9327 36.4768 26.0631 38.0863 25.6452C38.8927 25.4359 39.4883 25.3531 39.9153 25.3825C40.3271 25.4108 40.5195 25.5365 40.6295 25.6959C40.7395 25.8553 40.7887 26.0798 40.6691 26.4748C40.5451 26.8845 40.2563 27.412 39.7745 28.0916C38.8128 29.4481 37.1958 31.2577 34.9985 33.7152L34.0387 34.7886Z" fill="white" stroke="#F4F4F4"/>
<path d="M92.5749 5.53876L92.9844 5.82557L92.5749 5.53876C92.4978 5.64883 92.3839 5.75945 92.1706 5.90925C91.9519 6.06279 91.6607 6.23619 91.2401 6.486L71.0518 18.478C70.6516 18.7157 70.5142 18.7942 70.3691 18.8417C70.224 18.8892 70.0668 18.9073 69.6035 18.9524L68.4677 19.0629C64.2151 19.4769 61.064 19.7831 58.9166 19.7883C57.8393 19.7909 57.0609 19.7167 56.5386 19.5631C56.017 19.4096 55.8665 19.2154 55.821 19.054C55.7754 18.8925 55.802 18.6483 56.1664 18.2447C56.5313 17.8407 57.156 17.3704 58.0756 16.8092C59.9087 15.6907 62.7547 14.3038 66.596 12.4328L88.653 1.68928C89.228 1.40923 89.6305 1.21366 89.9547 1.08922C90.2738 0.966718 90.4695 0.932785 90.6297 0.942637C90.956 0.962701 91.2668 1.08881 91.5148 1.30176C91.6366 1.40635 91.7533 1.56704 91.8968 1.87725C92.0426 2.19237 92.1951 2.61311 92.4124 3.21462C92.5786 3.67468 92.6934 3.9936 92.7648 4.25106C92.8344 4.50226 92.8521 4.66002 92.8418 4.79401C92.8211 5.06167 92.7289 5.31886 92.5749 5.53876Z" fill="white" stroke="#F4F4F4"/>
<path d="M77.933 22.013C76.3435 21.3262 75.2046 20.8328 74.4467 20.364C73.6868 19.894 73.4567 19.5373 73.4337 19.1779C73.4106 18.8184 73.5932 18.4352 74.2868 17.8719C74.9786 17.3102 76.045 16.6751 77.5337 15.7909L89.395 8.74518C90.4726 8.10505 91.2336 7.65448 91.84 7.40456C92.4351 7.1593 92.7806 7.1508 93.0669 7.27115C93.3533 7.39151 93.589 7.64435 93.8301 8.2411C94.0758 8.8492 94.2863 9.70817 94.583 10.926L97.8962 24.5277C98.3148 26.2461 98.6139 27.4794 98.6986 28.3849C98.7837 29.2942 98.6341 29.6973 98.3568 29.9313C98.0796 30.1653 97.657 30.2451 96.7749 30.0083C95.8966 29.7726 94.7311 29.2705 93.1075 28.569L77.933 22.013Z" fill="white" stroke="#F4F4F4"/>
<path d="M92.588 43.2885C92.439 42.953 92.4857 42.5158 92.9923 41.7133C93.4952 40.9168 94.3519 39.9136 95.545 38.5194L97 36.8193C97.8449 35.832 98.443 35.135 98.9545 34.6891C99.4574 34.2506 99.791 34.1319 100.107 34.1605C100.422 34.1891 100.729 34.3659 101.145 34.8876C101.568 35.4183 102.031 36.2115 102.684 37.3347L103.713 39.1027C104.521 40.4903 105.096 41.482 105.404 42.2522C105.71 43.0198 105.691 43.4246 105.512 43.7258C105.334 44.0269 104.987 44.2375 104.167 44.3364C103.343 44.4355 102.197 44.4055 100.592 44.3617L98.1086 44.2938C96.2743 44.2437 94.9557 44.2064 94.0276 44.0451C93.0925 43.8827 92.7369 43.624 92.588 43.2885Z" fill="white" stroke="#F4F4F4"/>
<path d="M103.125 60.0256C101.247 60.9011 99.8893 61.5331 98.877 61.8416C97.8459 62.1559 97.3811 62.0686 97.1017 61.8126C96.8223 61.5566 96.6948 61.1012 96.9181 60.0466C97.1372 59.0112 97.6484 57.6032 98.357 55.6564L101.226 47.7735C101.468 47.1089 101.636 46.6502 101.806 46.3093C101.97 45.98 102.115 45.8075 102.285 45.6916C102.456 45.5756 102.669 45.5046 103.036 45.4728C103.415 45.44 103.904 45.4525 104.611 45.4719L105.272 45.4899C105.883 45.5066 106.304 45.5187 106.633 45.5618C106.949 45.6033 107.137 45.6692 107.29 45.7692C107.442 45.8691 107.577 46.0153 107.741 46.2896C107.911 46.5738 108.09 46.9551 108.348 47.5095L110.73 52.6174C111.135 53.4847 111.416 54.09 111.567 54.575C111.714 55.0462 111.715 55.3318 111.625 55.577C111.536 55.8222 111.352 56.0407 110.937 56.307C110.509 56.5812 109.905 56.8642 109.037 57.2687L103.125 60.0256Z" fill="white" stroke="#F4F4F4"/>
<path d="M112.351 77.1847C110.165 77.125 108.581 77.0805 107.482 76.897C106.356 76.7091 105.969 76.4109 105.84 76.0502C105.711 75.6895 105.821 75.2136 106.572 74.3541C107.305 73.5147 108.501 72.4752 110.153 71.0423L113.176 68.4193C114.107 67.612 114.763 67.0438 115.307 66.6956C115.839 66.3541 116.174 66.2836 116.474 66.3477C116.775 66.4118 117.052 66.6124 117.399 67.1413C117.753 67.6807 118.121 68.4673 118.642 69.5839L119.92 72.3243C120.54 73.654 120.979 74.5999 121.196 75.3296C121.411 76.0523 121.367 76.4327 121.182 76.7143C120.997 76.9959 120.665 77.1879 119.917 77.2782C119.161 77.3694 118.119 77.3423 116.652 77.3022L112.351 77.1847Z" fill="white" stroke="#F4F4F4"/>
<path d="M66.8136 54.7007C66.744 54.6019 66.6598 54.4264 66.434 53.9422C66.2752 53.6016 66.2202 53.4805 66.1916 53.385C65.9782 52.6734 66.3179 51.9129 66.9902 51.5968C67.0803 51.5544 67.2072 51.5145 67.5669 51.4055C67.9517 51.2888 68.2314 51.204 68.4414 51.1458C68.6594 51.0855 68.7671 51.0642 68.8207 51.0597C69.9488 50.9643 70.7719 52.1053 70.3256 53.1457C70.3044 53.1952 70.2502 53.2906 70.1242 53.4784C70.0028 53.6595 69.8341 53.8981 69.602 54.2265C69.2937 54.6627 69.1795 54.8204 69.0935 54.9053C68.4335 55.5562 67.3471 55.4587 66.8136 54.7007Z" fill="white" stroke="#F4F4F4"/>
<path d="M89.6449 45.1027C89.7312 45.0787 89.8207 45.0678 89.9102 45.0702C90.6508 45.0904 91.0504 45.9474 90.5899 46.5277L87.1113 50.911C86.182 52.0821 85.5051 52.9343 84.9624 53.5108C84.3986 54.1096 84.0766 54.2992 83.8714 54.3279C83.3783 54.3968 82.8832 54.2166 82.5497 53.8468C82.411 53.6929 82.2861 53.3407 82.2392 52.5196C82.194 51.7292 82.2233 50.6412 82.2641 49.1467C82.2889 48.2408 82.3064 47.9309 82.4154 47.6833C82.5162 47.4547 82.6724 47.2548 82.8699 47.1019C83.0839 46.9363 83.3804 46.8445 84.2535 46.6017L89.6449 45.1027Z" fill="white" stroke="#F4F4F4"/>
<path d="M95.8759 142.881C94.1454 144.153 92.8914 145.073 91.9272 145.593C90.9418 146.125 90.4586 146.128 90.1349 145.926C89.8112 145.723 89.6027 145.287 89.6497 144.169C89.6956 143.074 89.9742 141.544 90.3605 139.431L94.7437 115.46C95.3416 112.191 95.7826 109.784 96.2669 108.179C96.5096 107.375 96.7504 106.819 96.9992 106.466C97.2393 106.126 97.4474 106.028 97.6402 106.017C97.833 106.007 98.0505 106.082 98.326 106.394C98.6114 106.718 98.911 107.245 99.2393 108.018C99.8944 109.561 100.593 111.906 101.541 115.092L106.55 131.923C106.724 132.506 106.842 132.907 106.904 133.231C106.963 133.543 106.959 133.741 106.912 133.916C106.865 134.091 106.769 134.265 106.562 134.506C106.347 134.756 106.044 135.044 105.602 135.462L104.32 136.676L95.8759 142.881Z" fill="white" stroke="#F4F4F4"/>
<path d="M114.693 125.834C114.673 126.061 114.578 126.291 114.326 126.621C114.065 126.961 113.678 127.358 113.117 127.929L112.127 128.939C111.056 130.031 110.292 130.808 109.661 131.285C109.034 131.76 108.651 131.851 108.318 131.768C107.985 131.685 107.689 131.426 107.356 130.714C107.022 129.996 106.71 128.952 106.273 127.487L104.984 123.156C103.611 118.539 102.591 115.111 102.104 112.742C101.859 111.554 101.759 110.676 101.8 110.067C101.842 109.446 102.015 109.26 102.151 109.195C102.288 109.13 102.541 109.112 103.05 109.47C103.55 109.821 104.169 110.451 104.939 111.389C106.475 113.257 108.499 116.206 111.225 120.177L113.504 123.498C113.957 124.158 114.27 124.616 114.468 124.996C114.659 125.364 114.713 125.607 114.693 125.834Z" fill="white" stroke="#F4F4F4"/>
<path d="M130.154 94.2718C130.774 95.6014 131.214 96.5473 131.43 97.277C131.645 97.9997 131.601 98.3801 131.416 98.6617C131.231 98.9433 130.9 99.1353 130.151 99.2256C129.396 99.3168 128.353 99.2897 126.886 99.2496L111.529 98.83C108.632 98.7509 106.509 98.6919 105.059 98.4744C104.334 98.3656 103.825 98.223 103.487 98.0454C103.165 97.8759 103.035 97.6958 102.986 97.5012C102.937 97.3066 102.967 97.0863 103.171 96.7846C103.384 96.4684 103.766 96.1021 104.353 95.6636C105.528 94.787 107.372 93.7316 109.887 92.2931L121.857 85.4481C122.752 84.9359 123.38 84.5785 123.886 84.3752C124.379 84.1773 124.68 84.1583 124.942 84.2415C125.204 84.3248 125.44 84.5141 125.728 84.9602C126.024 85.4184 126.33 86.0721 126.766 87.0072L130.154 94.2718Z" fill="white" stroke="#F4F4F4"/>
<path d="M118.816 121.964C118.02 122.812 117.46 123.407 116.982 123.789C116.515 124.162 116.204 124.267 115.908 124.244C115.611 124.222 115.32 124.07 114.915 123.631C114.501 123.181 114.037 122.508 113.379 121.549L102.113 105.134C101.132 103.703 100.429 102.677 100.036 101.875C99.6425 101.071 99.6378 100.646 99.8101 100.33C99.9823 100.013 100.342 99.7864 101.231 99.6803C102.117 99.5746 103.36 99.6072 105.095 99.6546L130.857 100.359C131.469 100.375 131.89 100.387 132.218 100.43C132.535 100.472 132.723 100.538 132.875 100.638C133.027 100.738 133.163 100.884 133.327 101.158C133.497 101.442 133.675 101.824 133.934 102.378L134.019 102.56C134.301 103.165 134.494 103.582 134.61 103.923C134.722 104.252 134.744 104.465 134.713 104.659C134.682 104.852 134.594 105.048 134.385 105.326C134.169 105.614 133.855 105.949 133.398 106.435L118.816 121.964Z" fill="white" stroke="#F4F4F4"/>
<path d="M126.201 116.973C126.097 116.644 126.166 116.253 126.611 115.591C127.059 114.925 127.804 114.107 128.849 112.961L132.22 109.268C133.089 108.315 133.704 107.643 134.226 107.216C134.739 106.797 135.074 106.689 135.388 106.726C135.701 106.763 136.002 106.947 136.402 107.475C136.809 108.012 137.25 108.81 137.872 109.94L140.658 115.006C141.585 116.691 142.252 117.906 142.599 118.828C142.95 119.762 142.901 120.211 142.678 120.509C142.455 120.807 142.036 120.979 141.042 120.903C140.06 120.828 138.707 120.528 136.83 120.109L130.673 118.737C129.159 118.399 128.08 118.157 127.33 117.869C126.585 117.583 126.305 117.303 126.201 116.973Z" fill="white" stroke="#F4F4F4"/>
<path d="M141.394 145.509C141.317 145.787 141.124 146.037 140.647 146.347C140.16 146.665 139.458 146.993 138.457 147.46L133.043 149.985C131.893 150.521 131.081 150.898 130.446 151.088C129.822 151.275 129.475 151.248 129.201 151.097C128.928 150.946 128.719 150.667 128.544 150.039C128.366 149.401 128.252 148.513 128.092 147.255L126.441 134.293C126.02 130.985 125.711 128.548 125.686 126.867C125.674 126.024 125.735 125.419 125.866 125.007C125.992 124.608 126.161 124.451 126.341 124.383C126.521 124.315 126.752 124.322 127.11 124.537C127.48 124.76 127.926 125.175 128.473 125.815C129.566 127.094 130.943 129.127 132.812 131.889L139.876 142.326C140.495 143.241 140.929 143.884 141.184 144.407C141.433 144.917 141.471 145.232 141.394 145.509Z" fill="white" stroke="#F4F4F4"/>
<path d="M108.975 139.337C108.024 138.705 107.356 138.261 106.907 137.861C106.469 137.47 106.313 137.185 106.284 136.893C106.254 136.601 106.348 136.29 106.699 135.819C107.057 135.337 107.622 134.767 108.426 133.956L118.41 123.893C119.678 122.615 120.589 121.699 121.328 121.144C122.072 120.585 122.498 120.503 122.844 120.62C123.189 120.737 123.477 121.063 123.727 121.959C123.975 122.849 124.14 124.131 124.367 125.916L126.688 144.145C126.928 146.032 127.1 147.391 127.083 148.366C127.066 149.351 126.858 149.749 126.543 149.945C126.228 150.14 125.779 150.15 124.888 149.729C124.007 149.311 122.865 148.555 121.28 147.503L108.975 139.337Z" fill="white" stroke="#F4F4F4"/>
<path d="M116.577 156.538C115.699 156.862 115.087 157.086 114.601 157.195C114.13 157.301 113.85 157.28 113.615 157.175C113.381 157.071 113.178 156.876 112.942 156.454C112.7 156.02 112.458 155.414 112.113 154.544L109.812 148.743C108.841 146.295 108.133 144.507 107.803 143.214C107.639 142.568 107.581 142.09 107.613 141.74C107.643 141.407 107.751 141.219 107.909 141.091C108.067 140.963 108.273 140.897 108.604 140.936C108.953 140.977 109.409 141.132 110.007 141.427C111.204 142.017 112.807 143.08 115.001 144.536L121.443 148.811C122.893 149.774 123.932 150.465 124.598 151.063C125.266 151.663 125.429 152.056 125.387 152.415C125.346 152.773 125.096 153.118 124.307 153.548C123.521 153.977 122.351 154.41 120.718 155.011L116.577 156.538Z" fill="white" stroke="#F4F4F4"/>
<path d="M110.662 156C110.402 156.267 109.964 156.385 108.983 156.18C108.014 155.977 106.705 155.502 104.888 154.841L95.2516 151.334C93.6898 150.765 92.573 150.357 91.8192 149.949C91.0658 149.542 90.8185 149.21 90.7682 148.859C90.7178 148.507 90.862 148.119 91.4705 147.517C92.0795 146.914 93.0369 146.208 94.3762 145.224L100.761 140.532C101.734 139.818 102.42 139.315 102.978 139.017C103.525 138.726 103.859 138.681 104.151 138.765C104.444 138.849 104.703 139.064 105.012 139.602C105.327 140.15 105.642 140.94 106.087 142.062L109.339 150.262C110.051 152.058 110.564 153.354 110.794 154.317C111.027 155.292 110.922 155.733 110.662 156Z" fill="white" stroke="#F4F4F4"/>
<path d="M109.365 158.52C109.381 158.899 109.149 159.311 108.246 159.899C107.359 160.476 106.002 161.11 104.124 161.985L89.0564 169.012C87.3402 169.812 86.104 170.387 85.1744 170.667C84.2354 170.95 83.7938 170.873 83.5112 170.634C83.2287 170.394 83.0813 169.971 83.207 168.998C83.3315 168.036 83.6969 166.722 84.2062 164.898L87.3772 153.542C87.6531 152.554 87.8471 151.863 88.0632 151.365C88.2736 150.881 88.4735 150.656 88.7171 150.531C88.9608 150.406 89.2597 150.374 89.7761 150.485C90.3067 150.599 90.9813 150.843 91.9453 151.194L103.842 155.524C105.789 156.233 107.196 156.746 108.13 157.244C109.081 157.751 109.348 158.141 109.365 158.52Z" fill="white" stroke="#F4F4F4"/>
<path d="M72.0513 165.094C71.0171 164.274 70.2864 163.692 69.8149 163.19C69.351 162.696 69.2201 162.363 69.2398 162.044C69.2596 161.725 69.4307 161.41 69.9521 160.977C70.482 160.537 71.2789 160.05 72.4066 159.363L79.6573 154.948C81.5023 153.824 82.8396 153.011 83.8507 152.574C84.8848 152.126 85.3682 152.166 85.6729 152.396C85.9777 152.627 86.1464 153.082 85.9963 154.198C85.8495 155.29 85.4297 156.798 84.8488 158.878L82.5242 167.203C82.1536 168.531 81.8896 169.471 81.5976 170.127C81.3095 170.773 81.0433 171.027 80.7325 171.128C80.4216 171.229 80.057 171.18 79.4442 170.825C78.823 170.467 78.057 169.86 76.9775 169.004L72.0513 165.094Z" fill="white" stroke="#F4F4F4"/>
<path d="M72.8175 177.17C71.4786 177.889 70.5244 178.399 69.7837 178.665C69.0485 178.929 68.6578 178.903 68.3648 178.726C68.0717 178.549 67.8657 178.216 67.7563 177.443C67.6461 176.663 67.6522 175.581 67.6628 174.062L67.69 170.131C67.7025 168.33 67.7128 167.036 67.8531 166.121C67.9942 165.2 68.2415 164.843 68.5707 164.685C68.8999 164.527 69.3336 164.559 70.1391 165.026C70.9398 165.491 71.9543 166.294 73.3656 167.414L76.3095 169.75C77.3983 170.614 78.1695 171.228 78.6641 171.756C79.1522 172.277 79.283 172.623 79.2537 172.95C79.2245 173.277 79.0344 173.594 78.4616 174.02C77.8813 174.452 77.0134 174.919 75.7886 175.576L72.8175 177.17Z" fill="white" stroke="#F4F4F4"/>
<path d="M63.9418 168.206C63.9418 168.206 63.9394 168.202 63.9348 168.193C63.9296 168.183 63.9228 168.169 63.9144 168.15C63.8973 168.112 63.8763 168.06 63.8511 167.992C63.8005 167.857 63.7384 167.672 63.6619 167.432C63.5089 166.951 63.3061 166.272 63.033 165.356C62.9152 164.961 62.8752 164.821 62.861 164.711C62.7712 164.017 63.1736 163.353 63.8307 163.111C63.9347 163.073 64.0772 163.043 64.4818 162.965C64.9245 162.879 65.082 162.851 65.1993 162.848C65.9448 162.833 66.5883 163.367 66.71 164.103C66.7291 164.219 66.7299 164.379 66.7268 164.83C66.7201 165.785 66.7152 166.495 66.7024 166.999C66.6961 167.251 66.6879 167.445 66.6771 167.59C66.6718 167.662 66.6661 167.717 66.6604 167.759C66.6576 167.78 66.655 167.795 66.6528 167.806C66.6509 167.816 66.6497 167.82 66.6497 167.82C66.2902 169.062 64.6333 169.298 63.9416 168.206C63.9417 168.206 63.9418 168.206 63.9418 168.206Z" fill="white" stroke="#F4F4F4"/>
<path d="M57.3037 152.147C56.9233 151.331 56.8037 151.052 56.7961 150.764C56.7886 150.476 56.8934 150.191 57.2305 149.357L58.5867 146C59.1022 144.723 59.4688 143.819 59.8315 143.202C60.1893 142.592 60.4818 142.369 60.8017 142.304C61.1216 142.238 61.4783 142.327 62.0476 142.746C62.6249 143.17 63.3185 143.856 64.296 144.825L72.5015 152.959C73.3379 153.788 73.9254 154.372 74.2979 154.866C74.6624 155.349 74.759 155.666 74.726 155.963C74.6931 156.261 74.5296 156.549 74.0684 156.941C73.597 157.341 72.896 157.783 71.8986 158.409L67.6139 161.099C67.2834 161.307 67.17 161.376 67.0507 161.423C66.9313 161.47 66.8014 161.497 66.4183 161.571L64.7722 161.89C64.024 162.035 63.506 162.135 63.0979 162.164C62.7033 162.193 62.4678 162.15 62.2725 162.051L62.0459 162.495L62.2725 162.051C62.0772 161.951 61.9046 161.785 61.696 161.449C61.4802 161.102 61.2566 160.624 60.9345 159.933L57.3037 152.147Z" fill="white" stroke="#F4F4F4"/>
<path d="M54.6589 146.471C54.6426 146.44 54.6141 146.379 54.5385 146.217L54.5207 146.179C54.4139 145.942 54.3702 145.682 54.3939 145.424L53.896 145.378L54.3939 145.424L54.3982 145.382L54.3982 145.382L54.8898 140.644C54.9612 139.956 55.0127 139.462 55.0729 139.092C55.1344 138.715 55.1966 138.529 55.2576 138.425C55.6296 137.796 56.401 137.527 57.0839 137.787C57.1959 137.83 57.3603 137.937 57.6434 138.194C57.9211 138.446 58.2689 138.8 58.7532 139.294C59.106 139.654 59.2254 139.78 59.306 139.91C59.4973 140.218 59.5702 140.586 59.5112 140.944C59.4863 141.095 59.424 141.257 59.2353 141.724L57.4511 146.141C57.3842 146.307 57.3588 146.369 57.3441 146.4C56.8217 147.524 55.2395 147.565 54.6589 146.471Z" fill="white" stroke="#F4F4F4"/>
<path d="M54.3803 135.866C54.3071 136.571 54.2533 137.089 54.2036 137.466C54.1512 137.863 54.1102 138.039 54.0829 138.104C53.6402 139.156 52.2314 139.347 51.5236 138.452C51.4801 138.397 51.3935 138.238 51.237 137.87C51.0885 137.52 50.8981 137.035 50.6392 136.375C50.3466 135.63 50.131 135.08 49.9853 134.678C49.8311 134.253 49.7812 134.06 49.7762 133.99C49.6914 132.821 50.9206 132.011 51.9617 132.55C52.0235 132.582 52.1817 132.704 52.5114 133.013C52.8231 133.305 53.2433 133.72 53.8131 134.283C53.9681 134.436 54.0209 134.489 54.0647 134.542C54.2894 134.813 54.4117 135.154 54.4102 135.506C54.4099 135.575 54.4028 135.649 54.3803 135.866Z" fill="white" stroke="#F4F4F4"/>
<path d="M56.4093 133.692C56.4892 133.586 56.712 133.445 57.4111 133.571C58.0826 133.691 59.0171 134.03 60.2535 134.595C62.7184 135.722 66.2317 137.676 70.9535 140.303L81.7356 146.302C83.1004 147.061 84.0732 147.604 84.7139 148.096C85.3511 148.586 85.5405 148.936 85.5454 149.283C85.5503 149.629 85.3708 149.984 84.7477 150.492C84.1213 151.002 83.1642 151.572 81.8214 152.37L78.8438 154.138C78.1928 154.525 77.742 154.792 77.3703 154.957C77.0108 155.116 76.7762 155.156 76.5598 155.129C76.3434 155.102 76.1256 155.006 75.8161 154.764C75.496 154.513 75.1241 154.144 74.5874 153.61L66.7828 145.842C62.953 142.031 60.1038 139.194 58.3396 137.137C57.4546 136.105 56.8708 135.301 56.5694 134.689C56.2557 134.051 56.3294 133.798 56.4093 133.692Z" fill="white" stroke="#F4F4F4"/>
<path d="M75.4624 118.67C75.8494 118.671 76.271 118.952 76.8343 120.032C77.3813 121.081 77.955 122.671 78.7429 124.859L83.9719 139.379C84.7365 141.502 85.2904 143.043 85.529 144.168C85.7741 145.322 85.633 145.799 85.3394 146.049C85.0459 146.298 84.5519 146.361 83.4522 145.932C82.3812 145.516 80.9493 144.72 78.9773 143.623L70.234 138.759C69.5113 138.356 69.0104 138.077 68.6536 137.815C68.308 137.562 68.1493 137.362 68.0676 137.143C67.9858 136.924 67.9747 136.669 68.0701 136.251C68.1685 135.82 68.3639 135.28 68.6468 134.503L72.161 124.848C72.9563 122.663 73.5354 121.075 74.086 120.028C74.6529 118.949 75.0754 118.669 75.4624 118.67Z" fill="white" stroke="#F4F4F4"/>
<path d="M73.1254 116.695C73.3916 116.955 73.5082 117.392 73.3046 118.367C73.1035 119.331 72.631 120.633 71.9737 122.439L68.1449 132.958C67.767 133.996 67.5008 134.724 67.227 135.238C66.9598 135.739 66.7269 135.954 66.4573 136.055C66.1878 136.155 65.871 136.145 65.3408 135.941C64.7975 135.732 64.1196 135.357 63.1543 134.82L53.6283 129.52C52.0069 128.618 50.8413 127.968 50.0846 127.39C49.3215 126.807 49.1252 126.41 49.1501 126.043C49.175 125.675 49.4229 125.309 50.2575 124.834C51.0851 124.364 52.3277 123.877 54.0558 123.201L67.4107 117.982C69.2007 117.282 70.4909 116.779 71.4498 116.555C72.4199 116.329 72.8593 116.435 73.1254 116.695Z" fill="white" stroke="#F4F4F4"/>
<path d="M62.6153 82.6754C62.9858 82.7051 63.3544 82.9658 63.8211 83.8428C64.2826 84.71 64.7517 86.009 65.4013 87.8126L73.6801 110.801C73.9965 111.679 74.216 112.292 74.3211 112.777C74.4232 113.248 74.4003 113.528 74.2943 113.761C74.1883 113.994 73.9929 114.196 73.5711 114.429C73.1366 114.669 72.531 114.907 71.6612 115.247L53.1175 122.494C51.4979 123.127 50.3361 123.58 49.4642 123.781C48.5897 123.983 48.1742 123.89 47.905 123.65C47.6358 123.41 47.4968 123.008 47.5975 122.116C47.6979 121.227 48.0152 120.021 48.4596 118.34L54.3751 95.9597C54.4415 95.7084 54.4649 95.6231 54.4969 95.5435L54.033 95.3571L54.4969 95.5435C54.5289 95.4639 54.571 95.386 54.6969 95.1587L59.0464 87.3032C59.975 85.626 60.6451 84.4184 61.2388 83.6358C61.8393 82.8443 62.2447 82.6457 62.6153 82.6754Z" fill="white" stroke="#F4F4F4"/>
<path d="M79.6135 124.325C78.8383 122.173 78.2764 120.609 78.0338 119.47C77.7844 118.299 77.9273 117.817 78.2228 117.569C78.5183 117.32 79.0169 117.262 80.1279 117.709C81.2084 118.143 82.6525 118.965 84.64 120.099L89.9454 123.123C90.5504 123.468 90.9677 123.707 91.2708 123.928C91.5636 124.142 91.7082 124.311 91.7941 124.495C91.88 124.68 91.9162 124.899 91.8914 125.261C91.8658 125.635 91.7801 126.108 91.6548 126.793L90.235 134.558C89.6955 137.508 89.2987 139.673 88.8505 141.121C88.6262 141.846 88.402 142.345 88.1695 142.662C87.9471 142.966 87.7466 143.066 87.5482 143.083C87.3497 143.099 87.1354 143.033 86.8662 142.77C86.5848 142.495 86.2818 142.039 85.9416 141.361C85.2619 140.007 84.5153 137.936 83.4991 135.114L79.6135 124.325Z" fill="white" stroke="#F4F4F4"/>
<path d="M81.1863 116.978C79.9422 116.269 79.0594 115.764 78.4741 115.305C77.8954 114.851 77.7125 114.521 77.6966 114.188C77.6806 113.856 77.8311 113.51 78.3638 113.002C78.9024 112.489 79.733 111.902 80.9036 111.077L89.5449 104.987C91.2577 103.78 92.4976 102.907 93.4497 102.419C94.4205 101.921 94.8967 101.926 95.2167 102.13C95.5368 102.335 95.7408 102.765 95.6962 103.855C95.6525 104.924 95.381 106.416 95.0041 108.477L93.1797 118.454C92.9457 119.734 92.779 120.638 92.5609 121.282C92.3465 121.914 92.1176 122.185 91.8301 122.319C91.5427 122.453 91.1883 122.454 90.566 122.211C89.9331 121.964 89.1336 121.509 88.0033 120.865L81.1863 116.978Z" fill="white" stroke="#F4F4F4"/>
<path d="M67.0261 89.3728C66.2509 87.2203 65.689 85.6566 65.4464 84.5175C65.197 83.3463 65.3399 82.8652 65.6354 82.6167C65.9309 82.3682 66.4295 82.31 67.5405 82.7567C68.621 83.1912 70.0651 84.0132 72.0526 85.1464L91.5398 96.2566C92.7839 96.9659 93.6667 97.4708 94.252 97.9302C94.8307 98.3844 95.0136 98.7142 95.0296 99.0469C95.0455 99.3796 94.895 99.7254 94.3624 100.233C93.8237 100.746 92.9932 101.333 91.8226 102.158L79.4714 110.863C78.4737 111.566 77.7698 112.061 77.1995 112.35C76.6404 112.634 76.3029 112.671 76.0112 112.579C75.7195 112.487 75.4645 112.263 75.1694 111.71C74.8684 111.145 74.5758 110.336 74.1622 109.188L67.0261 89.3728Z" fill="white" stroke="#F4F4F4"/>
<path d="M50.4211 87.3489C52.9919 85.8173 54.8789 84.694 56.2611 84.0804C56.953 83.7733 57.4752 83.6142 57.8664 83.5807C58.2404 83.5486 58.4481 83.6332 58.5912 83.7719C58.7343 83.9105 58.8254 84.1154 58.8052 84.4903C58.7841 84.8823 58.6416 85.4093 58.3565 86.1105C57.7869 87.5115 56.724 89.4331 55.2745 92.0511L54.7468 93.004C54.458 93.5256 54.2589 93.8841 54.0746 94.1495C53.8968 94.4057 53.7559 94.5401 53.6017 94.6291C53.4475 94.7181 53.2607 94.7729 52.9499 94.7988C52.6279 94.8256 52.2179 94.8188 51.6218 94.8081L43.3948 94.6599C42.8403 94.6499 42.34 94.3248 42.1056 93.8222C41.7908 93.1471 42.0382 92.3432 42.6781 91.962L50.4211 87.3489Z" fill="white" stroke="#F4F4F4"/>
<path d="M60.2761 62.3891C60.1446 62.2699 60.0355 62.1093 59.9158 61.8226C59.7918 61.5253 59.6726 61.1344 59.5002 60.5659L58.6234 57.6745C58.3398 56.7392 58.1428 56.0861 58.0605 55.5743C57.9804 55.0769 58.0227 54.7899 58.1503 54.5577C58.2779 54.3256 58.4975 54.136 58.9604 53.937C59.4366 53.7323 60.0936 53.5485 61.0352 53.2867L62.8391 52.7852C63.339 52.6462 63.5135 52.6007 63.6632 52.5926C64.1582 52.5656 64.6345 52.7851 64.9358 53.1788L65.3329 52.8749L64.9358 53.1788C65.0269 53.2978 65.1057 53.46 65.325 53.9302L65.3307 53.9424C65.5215 54.3516 65.6723 54.6751 65.8037 54.9249C65.9353 55.1753 66.0657 55.3885 66.2259 55.5574C67.0925 56.4715 68.5037 56.5981 69.5192 55.853C69.7069 55.7152 69.8732 55.5287 70.0473 55.3057C70.221 55.0833 70.4271 54.7918 70.6877 54.4231L70.6954 54.4121L73.5308 50.4008C73.9579 49.7967 74.1079 49.5961 74.3035 49.4584C74.4991 49.3207 74.7385 49.2472 75.4514 49.049L78.358 48.2409C78.8116 48.1148 79.1314 48.0261 79.383 47.9714C79.6335 47.917 79.7783 47.9055 79.8845 47.9146C80.4766 47.9655 80.9829 48.3612 81.1753 48.9236C81.2098 49.0244 81.2336 49.1677 81.2412 49.424C81.249 49.6813 81.2401 50.0131 81.2272 50.4837L81.2268 50.5004C81.2019 51.4118 81.1826 52.1167 81.1967 52.6477C81.2104 53.1624 81.2548 53.6029 81.4122 53.929C82.0011 55.1491 83.4546 55.6781 84.69 55.122C85.0202 54.9733 85.3373 54.6644 85.6786 54.279C86.0308 53.8813 86.4692 53.3289 87.0359 52.6148L87.0463 52.6017L91.8692 46.5243C92.5105 45.7162 92.7361 45.4519 93.0319 45.3139C93.3277 45.176 93.6752 45.1731 94.7064 45.2013L96.181 45.2416C97.4629 45.2766 98.3684 45.3026 99.0286 45.4179C99.6772 45.5312 99.9773 45.7132 100.154 45.9733C100.331 46.2334 100.39 46.5794 100.257 47.2243C100.122 47.8807 99.813 48.7323 99.3743 49.9373L97.4173 55.3144L97.4014 55.3579C96.7119 57.2522 96.1753 58.7266 95.9397 59.8395C95.7065 60.9416 95.7202 61.9031 96.4261 62.5499C97.132 63.1967 98.091 63.1266 99.1686 62.7982C100.257 62.4665 101.679 61.8034 103.506 60.9514L103.548 60.9319L109.46 58.175C110.327 57.7706 110.932 57.4895 111.417 57.338C111.889 57.1909 112.174 57.1904 112.419 57.2797C112.665 57.3689 112.883 57.5529 113.149 57.9684C113.424 58.3962 113.707 59.0006 114.111 59.8679L115.125 62.0433C115.437 62.7121 115.652 63.1749 115.777 63.5516C115.897 63.9157 115.915 64.1482 115.871 64.357C115.826 64.5659 115.715 64.7709 115.457 65.0543C115.189 65.3474 114.805 65.6825 114.247 66.1661L109.497 70.287L109.463 70.3172C107.853 71.7137 106.603 72.7981 105.818 73.6962C105.046 74.5808 104.566 75.4598 104.898 76.3872C105.23 77.3145 106.158 77.6899 107.317 77.8833C108.493 78.0797 110.147 78.1249 112.278 78.1831L112.324 78.1843L121.408 78.4325C121.865 78.445 122.022 78.4517 122.158 78.4835C122.505 78.5642 122.811 78.7652 123.023 79.0508C123.106 79.163 123.175 79.3046 123.368 79.7186C123.557 80.1258 123.691 80.4128 123.783 80.641C123.874 80.8683 123.909 81.0027 123.918 81.1037C123.977 81.713 123.659 82.2967 123.116 82.5786C123.026 82.6253 122.894 82.6691 122.654 82.7159C122.412 82.763 122.099 82.8067 121.654 82.8684L108.835 84.6465C107.982 84.7648 107.693 84.796 107.426 84.726C107.159 84.6561 106.922 84.4872 106.236 83.966L85.2987 68.0497C85.2845 68.0389 85.2705 68.0283 85.2567 68.0177C84.9312 67.7702 84.7054 67.5985 84.445 67.4812C84.1846 67.3639 83.9064 67.3086 83.5054 67.2289C83.4883 67.2255 83.4711 67.2221 83.4536 67.2186L62.1666 62.9829C61.5839 62.867 61.1832 62.7866 60.8752 62.6923C60.5781 62.6012 60.4076 62.5084 60.2761 62.3891L59.9403 62.7596L60.2761 62.3891Z" fill="white" stroke="#F4F4F4"/>
<path d="M35.5365 82.8852L35.8739 83.2542C35.8468 83.2791 35.8374 83.2876 35.829 83.2956L35.4854 82.9324L35.829 83.2956C35.5366 83.5722 35.3676 83.9547 35.36 84.3571M35.5365 82.8852L35.36 84.3571M35.5365 82.8852L35.8739 83.2542C35.9684 83.1678 36.003 83.1364 36.0252 83.1177C36.8631 82.4146 38.1475 82.8158 38.4362 83.8708C38.4439 83.8988 38.4544 83.9443 38.4829 84.0691L40.0655 90.9961C40.1768 91.4835 40.2121 91.6513 40.2122 91.8066C40.2124 92.0876 40.1337 92.363 39.985 92.6014C39.9028 92.7332 39.7842 92.857 39.4321 93.2118C38.7919 93.8571 38.3294 94.3229 37.9623 94.6468C37.5854 94.9795 37.3712 95.1042 37.2321 95.1417C36.5756 95.319 35.882 95.0325 35.542 94.4436C35.4699 94.3188 35.4062 94.0793 35.3739 93.5776M35.5365 82.8852L35.3739 93.5776M35.36 84.3571C35.3598 84.3688 35.3597 84.3814 35.3596 84.4182L35.3454 91.5237M35.36 84.3571L35.3454 91.5237M35.3739 93.5776C35.3425 93.089 35.3436 92.4326 35.3454 91.5237M35.3739 93.5776L35.3454 91.5237" fill="white" stroke="#F4F4F4"/>
<path d="M45.3737 89.192C44.2812 89.8429 43.5092 90.3013 42.8947 90.5553C42.2912 90.8047 41.9423 90.8123 41.6544 90.6891C41.3665 90.5659 41.1312 90.3081 40.8951 89.6994C40.6546 89.0795 40.4534 88.2044 40.1702 86.9647L39.7281 85.0297C39.4775 83.9328 39.3028 83.1624 39.2536 82.5723C39.2056 81.9959 39.2871 81.6854 39.4633 81.4537C39.6396 81.222 39.917 81.0605 40.4853 80.9528C41.0672 80.8426 41.8563 80.8053 42.9802 80.7539L46.977 80.571C50.1656 80.4251 52.5105 80.3186 54.1176 80.4303C54.9226 80.4862 55.4946 80.5947 55.8783 80.7549C56.2471 80.9089 56.3902 81.0864 56.4464 81.2739C56.5027 81.4614 56.481 81.6883 56.2579 82.02C56.0258 82.365 55.608 82.7704 54.9668 83.2603C53.6867 84.2383 51.6706 85.4404 48.9284 87.0741L45.3737 89.192Z" fill="white" stroke="#F4F4F4"/>
<path d="M51.1058 71.0565C51.3295 71.0553 51.5632 71.1262 51.9088 71.3381C52.2661 71.5572 52.6907 71.893 53.3028 72.3788L54.2036 73.0936C55.9732 74.498 57.2571 75.5183 58.0526 76.3494C58.8696 77.203 59.001 77.6835 58.8825 78.0502C58.764 78.4168 58.3763 78.7296 57.2143 78.9437C56.0828 79.1522 54.4447 79.2283 52.1878 79.3315L50.299 79.418C47.7765 79.5334 45.9368 79.6165 44.6599 79.5082C44.0225 79.4541 43.571 79.3551 43.2624 79.2143C42.9697 79.0808 42.8271 78.9211 42.7547 78.7308C42.6823 78.5405 42.6827 78.3264 42.8126 78.0321C42.9497 77.7218 43.2212 77.3477 43.6615 76.8837C44.5435 75.954 45.9733 74.7934 47.9347 73.203L48.9228 72.4018C49.5299 71.9096 49.9508 71.5693 50.3058 71.3465C50.6492 71.131 50.8821 71.0577 51.1058 71.0565Z" fill="white" stroke="#F4F4F4"/>
<path d="M55.317 72.7006C54.4033 71.9754 53.7614 71.4645 53.3405 71.0191C52.9288 70.5835 52.7981 70.2814 52.7965 69.9836C52.795 69.6859 52.9225 69.3825 53.3296 68.9425C53.7458 68.4927 54.3823 67.9751 55.2884 67.2404L58.574 64.5763C59.3275 63.9653 59.5884 63.7681 59.8878 63.694C60.1873 63.62 60.5101 63.6729 61.4614 63.8622L73.2171 66.2014C75.5178 66.6592 77.1903 66.9931 78.3187 67.3808C79.4817 67.7803 79.8243 68.1576 79.8814 68.5409C79.9384 68.9241 79.7204 69.3848 78.7241 70.1056C77.7575 70.805 76.2546 71.6114 74.1869 72.7192L64.9631 77.6608C64.3917 77.9669 63.9976 78.1773 63.6729 78.3087C63.3593 78.4356 63.153 78.4703 62.9623 78.4532C62.7716 78.4361 62.5747 78.3652 62.2888 78.1845C61.9926 77.9974 61.6423 77.7202 61.1345 77.3173L55.317 72.7006Z" fill="white" stroke="#F4F4F4"/>
<path d="M101.386 82.9398C101.311 83.1229 101.153 83.2838 100.788 83.402C100.407 83.5254 99.8515 83.5831 99.0778 83.57C97.5322 83.5437 95.3052 83.2421 92.2729 82.8302L75.1793 80.5084C72.645 80.1641 70.796 79.9119 69.5437 79.5726C68.9183 79.4032 68.4865 79.223 68.2049 79.0273C67.9378 78.8417 67.8263 78.6579 67.7902 78.4576C67.7541 78.2573 67.7944 78.0462 67.9798 77.779C68.1753 77.4973 68.517 77.1776 69.0438 76.8004C70.0987 76.045 71.7431 75.1628 73.9975 73.9551L82.2329 69.543C82.7921 69.2434 83.1776 69.0377 83.4954 68.9084C83.8023 68.7837 84.0046 68.7485 84.192 68.7633C84.3794 68.7782 84.5737 68.8448 84.857 69.0163C85.1506 69.194 85.4988 69.4579 86.0039 69.8418L94.8621 76.5757C97.2982 78.4276 99.0868 79.7884 100.199 80.8622C100.755 81.3998 101.107 81.8331 101.29 82.1897C101.464 82.5312 101.462 82.7568 101.386 82.9398Z" fill="white" stroke="#F4F4F4"/>
<path d="M107.163 85.8498L107.181 85.3501L107.163 85.8498C107.226 85.8521 107.289 85.852 107.353 85.8495C107.476 85.8446 107.597 85.8278 107.772 85.8036L107.794 85.8005C110.629 85.4072 112.726 85.1167 114.204 85.025C114.944 84.9791 115.5 84.9853 115.901 85.0444C116.316 85.1054 116.478 85.2104 116.537 85.2788C116.791 85.573 116.921 85.9543 116.899 86.3425C116.894 86.4328 116.83 86.6149 116.54 86.9163C116.258 87.2085 115.822 87.5528 115.208 87.9686C113.982 88.7992 112.145 89.8502 109.66 91.2712L98.9907 97.3724C98.4983 97.654 98.1596 97.847 97.8787 97.9731C97.6077 98.0948 97.4261 98.1371 97.2557 98.1372C97.0853 98.1373 96.9036 98.0953 96.6325 97.9739C96.3513 97.8482 96.0124 97.6556 95.5197 97.3747L81.0457 89.1226C77.5713 87.1417 75.0009 85.6755 73.3607 84.511C72.538 83.9268 71.9882 83.445 71.6765 83.0394C71.3684 82.6386 71.3537 82.3976 71.4101 82.2312C71.4665 82.0647 71.6246 81.8823 72.1129 81.7511C72.6068 81.6185 73.3363 81.5699 74.3446 81.606C76.3549 81.6779 79.2872 82.0756 83.2503 82.6139L106.721 85.802L106.744 85.805C106.918 85.8288 107.039 85.8452 107.163 85.8498Z" fill="white" stroke="#F4F4F4"/>
<path d="M22.5453 71.2406C22.1696 70.4349 21.9084 69.8726 21.763 69.4209C21.6214 68.9811 21.6128 68.7126 21.6825 68.483C21.6983 68.4312 21.7168 68.3803 21.738 68.3305C21.8322 68.1097 22.0114 67.9096 22.4025 67.6637C22.8043 67.4111 23.3658 67.1483 24.1716 66.7725L24.355 66.687C25.839 65.995 26.9066 65.4983 27.7188 65.2409C28.5411 64.9802 28.9477 65.0174 29.2116 65.1846C29.323 65.2552 29.4247 65.3402 29.5139 65.4374L29.8822 65.0993L29.5139 65.4374C29.7251 65.6675 29.8337 66.0611 29.7227 66.9166C29.6131 67.7616 29.3132 68.9002 28.8948 70.4832L28.3382 72.589C28.2568 72.8969 28.3379 73.2209 28.5456 73.4531L24.5461 73.5255C23.9821 73.5357 23.465 73.2128 23.2265 72.7016L22.5453 71.2406Z" fill="white" stroke="#F4F4F4"/>
<path d="M35.2239 83.1711L34.8865 82.8021C34.5548 83.1054 34.3605 83.5305 34.3482 83.9798C34.3369 84.3948 33.9483 84.6954 33.5438 84.6021L29.8653 83.7538C28.8838 83.5275 28.5559 83.4397 28.3077 83.2388C28.0596 83.0378 27.9054 82.7354 27.4797 81.8225L26.0264 78.7059C25.5885 77.7667 25.2787 77.1005 25.1026 76.5767C24.9272 76.0551 24.9161 75.761 24.9854 75.5412C25.0618 75.2987 25.1986 75.0796 25.3829 74.9045C25.55 74.7458 25.8191 74.6267 26.3647 74.5553C26.9127 74.4836 27.6473 74.4695 28.6834 74.4507C29.2379 74.4407 29.4266 74.4411 29.6003 74.4834C29.6855 74.5041 29.7687 74.5322 29.8489 74.5675C30.0126 74.6394 30.1628 74.7537 30.5971 75.0985L35.2812 78.8156C35.6262 79.0894 35.8679 79.2815 36.0477 79.4422C36.2256 79.6012 36.316 79.7064 36.3716 79.7971C36.6468 80.2461 36.6664 80.8066 36.4232 81.2737C36.3741 81.368 36.2913 81.4793 36.1249 81.6504C35.9567 81.8232 35.729 82.0317 35.404 82.3289L34.8865 82.8021L35.2239 83.1711Z" fill="white" stroke="#F4F4F4"/>
<path d="M30.481 88.2587C30.2906 87.8504 30.1542 87.5576 30.0592 87.331C29.9625 87.1002 29.9251 86.9751 29.9133 86.8968C29.7814 86.0248 30.4267 85.2278 31.307 85.1752C31.3861 85.1705 31.5163 85.181 31.7621 85.2275C32.0035 85.2733 32.3183 85.3457 32.7573 85.447C33.152 85.538 33.2886 85.5713 33.3979 85.6173C33.8669 85.8147 34.2039 86.2364 34.2929 86.7374C34.3136 86.8542 34.316 86.9948 34.3177 87.3998L34.3342 91.3719C34.336 91.8169 34.0789 92.2224 33.6756 92.4104C33.1046 92.6767 32.4259 92.4296 32.1597 91.8587L30.481 88.2587Z" fill="white" stroke="#F4F4F4"/>
<path d="M34.3366 94.0533C34.3359 94.6258 33.5618 94.8035 33.3115 94.2886C33.1797 94.0175 33.2956 93.691 33.5688 93.5636C33.9268 93.3966 34.337 93.6583 34.3366 94.0533Z" fill="white" stroke="#F4F4F4"/>
<path d="M46.2857 122.629C46.1321 123.214 45.3303 123.287 45.0746 122.738C44.9531 122.478 45.0183 122.168 45.2346 121.979C45.7139 121.559 46.4474 122.013 46.2857 122.629Z" fill="white" stroke="#F4F4F4"/>
<path d="M42.0177 113.401C41.7352 112.505 41.6494 112.199 41.6836 111.905C41.6904 111.847 41.7007 111.789 41.7143 111.731C41.7828 111.444 41.9682 111.186 42.5405 110.44L43.5079 109.181L43.5238 109.16C44.2905 108.162 44.8858 107.387 45.2827 106.769C45.6705 106.166 45.9416 105.61 45.915 105.07C45.8722 104.204 45.3837 103.422 44.6242 103.004C44.1511 102.743 43.532 102.743 42.8199 102.826C42.0911 102.912 41.1333 103.107 39.8998 103.358L39.8743 103.364C38.9756 103.546 38.6654 103.6 38.3997 103.55C38.1227 103.498 37.866 103.368 37.6591 103.177C37.4608 102.993 37.3195 102.712 36.9319 101.881L36.4632 100.875C36.1734 100.254 35.9742 99.8249 35.8561 99.4745C35.7421 99.1361 35.7211 98.9178 35.7556 98.7199C35.79 98.5221 35.8837 98.3237 36.1055 98.0438C36.3351 97.7541 36.6678 97.4177 37.1507 96.931L39.8021 94.2587C40.2654 93.7918 41.052 93.9289 41.3299 94.525C41.6461 95.203 42.3231 95.6397 43.0712 95.6481L48.8502 95.7127C50.0455 95.7261 50.8869 95.7367 51.5066 95.8335C52.1132 95.9282 52.4054 96.0915 52.5886 96.3317C52.7719 96.572 52.852 96.897 52.7828 97.5071C52.7122 98.1302 52.4998 98.9445 52.1964 100.101L47.4294 118.27C47.3888 118.424 47.3747 118.477 47.3578 118.526C47.2851 118.738 47.1659 118.93 47.0092 119.09C46.9729 119.126 46.932 119.163 46.8117 119.268C46.2727 119.74 46.076 119.907 45.9233 119.984C45.2287 120.337 44.3797 120.099 43.9693 119.437C43.8791 119.292 43.7976 119.047 43.5821 118.364L42.0177 113.401Z" fill="white" stroke="#F4F4F4"/>
<path d="M40.3657 108.967C40.28 108.889 40.1783 108.755 40.0305 108.481C39.8835 108.21 39.713 107.845 39.4734 107.331C39.2823 106.921 39.1481 106.633 39.0566 106.403C38.9657 106.175 38.9312 106.038 38.9222 105.933C38.8736 105.368 39.1479 104.824 39.6309 104.527C39.7208 104.471 39.8511 104.418 40.0887 104.355C40.3279 104.292 40.6394 104.228 41.0825 104.138C41.9242 103.967 42.5342 103.843 42.9923 103.776C43.4655 103.708 43.6973 103.714 43.8184 103.748C44.5685 103.956 45.0351 104.703 44.8927 105.468C44.8697 105.591 44.7741 105.803 44.5048 106.198C44.244 106.58 43.865 107.074 43.3418 107.755C42.9965 108.205 42.7509 108.524 42.5485 108.758C42.3449 108.992 42.2165 109.102 42.1159 109.159C41.5523 109.48 40.8462 109.403 40.3657 108.967Z" fill="white" stroke="#F4F4F4"/>
<path d="M34.4995 68.9055C33.7607 69.3555 33.2266 69.6804 32.814 69.898C32.3897 70.1217 32.1643 70.1917 32.0299 70.1987C31.3085 70.2364 30.6628 69.7545 30.4935 69.0522C30.462 68.9214 30.465 68.6853 30.5587 68.2149C30.6498 67.7575 30.8094 67.153 31.0304 66.3167C31.1507 65.8616 31.2354 65.5421 31.3162 65.2976C31.3964 65.0553 31.4615 64.9234 31.5271 64.8329C31.8376 64.4048 32.3505 64.1719 32.8771 64.2197C32.9884 64.2299 33.1306 64.2676 33.3658 64.3667C33.6031 64.4667 33.8994 64.6132 34.3212 64.822C34.9143 65.1157 35.3374 65.3254 35.6486 65.5052C35.9631 65.6868 36.1115 65.8097 36.1905 65.9102C36.5885 66.4162 36.6192 67.1198 36.2668 67.6585C36.1968 67.7655 36.0597 67.9009 35.7623 68.1093C35.4679 68.3155 35.0648 68.5613 34.4995 68.9055Z" fill="white" stroke="#F4F4F4"/>
<path d="M37.3791 68.9639L37.541 68.5L37.3791 68.9639C37.5795 69.0338 37.7627 69.1455 37.9167 69.2915C38.1141 69.4787 38.2533 69.8115 38.2895 70.5376C38.3254 71.2582 38.2569 72.2371 38.16 73.6042C38.0648 74.9461 37.9959 75.9061 37.861 76.6018C37.7253 77.302 37.5437 77.6085 37.3242 77.7666C37.1535 77.8896 36.9587 77.9754 36.7526 78.0182C36.4878 78.0732 36.1391 78.0001 35.5311 77.6272C34.927 77.2568 34.1726 76.6592 33.1187 75.8229C32.2909 75.166 31.7062 74.7009 31.3109 74.3015C30.9194 73.9058 30.7804 73.6387 30.75 73.3949C30.727 73.2099 30.7386 73.0223 30.7843 72.8416C30.8446 72.6034 31.0155 72.3555 31.4529 72.0113C31.8945 71.6637 32.5322 71.2744 33.4348 70.7247C34.6053 70.0119 35.4439 69.5023 36.1008 69.2038C36.7626 68.9031 37.1223 68.8742 37.3791 68.9639Z" fill="white" stroke="#F4F4F4"/>
<path d="M33.4849 62.4297C33.6612 62.3475 33.8698 62.3809 34.0116 62.514C34.4105 62.8886 33.9653 63.5299 33.4748 63.2871C33.1174 63.1102 33.1234 62.5982 33.4849 62.4297Z" fill="white" stroke="#F4F4F4"/>
<path d="M35.3842 62.4311C35.0818 62.1472 35.1618 61.6477 35.5377 61.4724C35.8312 61.3355 36.18 61.4625 36.3168 61.756C36.5896 62.341 35.8547 62.873 35.3842 62.4311Z" fill="white" stroke="#F4F4F4"/>
<path d="M38.1416 63.3031C37.9459 62.8834 37.809 62.5894 37.7166 62.3535C37.6252 62.1205 37.5914 61.9783 37.5841 61.8649C37.5528 61.381 37.7574 60.9119 38.1333 60.6055C38.2214 60.5337 38.3486 60.4617 38.5816 60.3701C38.8173 60.2774 39.1258 60.1777 39.5666 60.0355C41.5584 59.3932 43.0364 58.9166 44.0936 58.6241C44.6226 58.4778 45.031 58.3819 45.3373 58.3337C45.6648 58.2822 45.8013 58.2986 45.8335 58.3089C46.633 58.5643 47.0673 59.4261 46.797 60.2208C46.7862 60.2527 46.7182 60.3722 46.4819 60.6048C46.261 60.8223 45.9409 61.0936 45.5086 61.4317C44.6445 62.1076 43.3822 63.0121 41.681 64.2309C41.2835 64.5157 41.0044 64.7154 40.7777 64.8568C40.5531 64.9969 40.4131 65.0582 40.2992 65.0857C39.8102 65.2035 39.2946 65.0683 38.9263 64.7257C38.8405 64.646 38.7486 64.5238 38.6216 64.2916C38.4934 64.0571 38.3482 63.7462 38.1416 63.3031Z" fill="white" stroke="#F4F4F4"/>
<path d="M50.5399 68.9023C50.3195 69.0156 50.0513 69.0539 49.595 68.9883C49.1244 68.9207 48.5264 68.7547 47.6671 68.5148L47.3255 68.4194C45.5653 67.9279 44.3005 67.5734 43.4426 67.1933C42.5786 66.8104 42.2968 66.4743 42.2331 66.1132C42.1693 65.7522 42.3191 65.3399 42.9998 64.6844C43.6757 64.0336 44.7428 63.2675 46.2284 62.2032L46.7374 61.8385C48.9015 60.288 50.4836 59.1558 51.671 58.5155C52.2643 58.1955 52.7187 58.0215 53.0692 57.9671C53.4023 57.9155 53.6113 57.975 53.773 58.0977C53.9347 58.2204 54.0483 58.4057 54.0883 58.7403C54.1303 59.0926 54.085 59.577 53.9366 60.2346C53.6397 61.5506 52.9753 63.3791 52.0647 65.8807L51.8973 66.3408C51.5921 67.1792 51.3789 67.762 51.16 68.184C50.9477 68.5933 50.7604 68.789 50.5399 68.9023Z" fill="white" stroke="#F4F4F4"/>
<mask id="path-61-inside-1_416_475" fill="white">
<path d="M58.3646 64.1024C57.0594 65.1606 56.4069 65.6897 56.0352 65.8036C54.7773 66.1891 53.4963 65.276 53.4504 63.9612C53.4369 63.5727 53.7242 62.7832 54.2989 61.2043C54.7878 59.861 55.0323 59.1894 55.2776 58.9084C56.1036 57.9624 57.587 58.0029 58.3602 58.9927C58.5898 59.2866 58.7972 59.9706 59.212 61.3385C59.3227 61.7036 59.3781 61.8861 59.399 62.0601C59.4664 62.6205 59.2938 63.1833 58.9238 63.6097C58.809 63.742 58.6609 63.8621 58.3646 64.1024Z"/>
</mask>
<path d="M58.3646 64.1024C57.0594 65.1606 56.4069 65.6897 56.0352 65.8036C54.7773 66.1891 53.4963 65.276 53.4504 63.9612C53.4369 63.5727 53.7242 62.7832 54.2989 61.2043C54.7878 59.861 55.0323 59.1894 55.2776 58.9084C56.1036 57.9624 57.587 58.0029 58.3602 58.9927C58.5898 59.2866 58.7972 59.9706 59.212 61.3385C59.3227 61.7036 59.3781 61.8861 59.399 62.0601C59.4664 62.6205 59.2938 63.1833 58.9238 63.6097C58.809 63.742 58.6609 63.8621 58.3646 64.1024Z" fill="white"/>
<path d="M59.399 62.0601L58.4062 62.1795L59.399 62.0601ZM58.9238 63.6097L59.6791 64.2651L58.9238 63.6097ZM58.3602 58.9927L59.1482 58.3771L58.3602 58.9927ZM55.2776 58.9084L54.5243 58.2507L55.2776 58.9084ZM56.0352 65.8036L55.7422 64.8475L56.0352 65.8036ZM53.4504 63.9612L54.4498 63.9263L53.4504 63.9612ZM58.2551 61.6287C58.3768 62.0302 58.3982 62.1134 58.4062 62.1795L60.3918 61.9407C60.3579 61.6588 60.2687 61.377 60.169 61.0483L58.2551 61.6287ZM58.9944 64.8791C59.2611 64.6628 59.4931 64.4795 59.6791 64.2651L58.1686 62.9543C58.125 63.0045 58.0606 63.0614 57.7347 63.3256L58.9944 64.8791ZM58.4062 62.1795C58.4398 62.4597 58.3536 62.7411 58.1686 62.9543L59.6791 64.2651C60.2341 63.6256 60.4929 62.7813 60.3918 61.9407L58.4062 62.1795ZM60.169 61.0483C59.9643 60.3733 59.8016 59.8361 59.6606 59.4328C59.5296 59.0581 59.3758 58.6684 59.1482 58.3771L57.5721 59.6083C57.5632 59.5969 57.5816 59.618 57.623 59.708C57.6627 59.7947 57.7114 59.9177 57.7727 60.0929C57.8965 60.447 58.0449 60.9358 58.2551 61.6287L60.169 61.0483ZM55.2386 61.5463C55.4862 60.8659 55.6612 60.3859 55.8041 60.0391C55.8748 59.8676 55.9302 59.7473 55.9746 59.663C56.0208 59.5753 56.0403 59.5553 56.0308 59.5662L54.5243 58.2507C54.2812 58.5292 54.1063 58.91 53.955 59.2769C53.7922 59.672 53.6005 60.1994 53.3592 60.8623L55.2386 61.5463ZM59.1482 58.3771C57.9885 56.8925 55.7634 56.8317 54.5243 58.2507L56.0308 59.5662C56.4438 59.0932 57.1855 59.1134 57.5721 59.6083L59.1482 58.3771ZM57.7347 63.3256C57.0753 63.8603 56.6041 64.2421 56.2509 64.5064C55.8627 64.7967 55.7377 64.8489 55.7422 64.8475L56.3282 66.7597C56.7044 66.6445 57.0915 66.3752 57.4488 66.1079C57.8411 65.8145 58.3487 65.4027 58.9944 64.8791L57.7347 63.3256ZM53.3592 60.8623C53.0749 61.6434 52.8511 62.2576 52.7017 62.7241C52.5656 63.149 52.4373 63.6028 52.451 63.996L54.4498 63.9263C54.45 63.931 54.4586 63.7958 54.6064 63.3341C54.741 62.9141 54.9482 62.3441 55.2386 61.5463L53.3592 60.8623ZM55.7422 64.8475C55.1133 65.0403 54.4728 64.5837 54.4498 63.9263L52.451 63.996C52.5199 65.9683 54.4414 67.338 56.3282 66.7597L55.7422 64.8475Z" fill="#F4F4F4" mask="url(#path-61-inside-1_416_475)"/>
<path d="M43.649 68.431C45.2336 68.8735 46.3684 69.1917 47.1478 69.5338C47.9296 69.877 48.2051 70.1819 48.288 70.5122L48.773 70.3904L48.288 70.5122C48.2981 70.5525 48.3066 70.5932 48.3133 70.6342L48.8067 70.553L48.3133 70.6342C48.3686 70.9702 48.237 71.3595 47.6562 71.9854C47.0772 72.6092 46.1625 73.3525 44.8846 74.3886C43.4001 75.5923 42.3282 76.46 41.4873 76.9685C40.6331 77.4851 40.1841 77.5264 39.8617 77.3762C39.8218 77.3576 39.7826 77.3372 39.7445 77.3151C39.4366 77.1371 39.213 76.7456 39.1465 75.7495C39.0811 74.769 39.1774 73.3933 39.3126 71.4869C39.3906 70.3864 39.4465 69.6132 39.5668 69.0436C39.6844 68.4861 39.8464 68.2151 40.0707 68.0455C40.0975 68.0252 40.125 68.0058 40.1532 67.9874C40.3883 67.8333 40.6979 67.7718 41.2626 67.8486C41.8394 67.9269 42.5864 68.1343 43.649 68.431Z" fill="white" stroke="#F4F4F4"/>
</g>
<defs>
<filter id="filter0_i_416_475" x="1.65636" y="0.44104" width="152.177" height="178.92" filterUnits="userSpaceOnUse" color-interpolation-filters="sRGB">
<feFlood flood-opacity="0" result="BackgroundImageFix"/>
<feBlend mode="normal" in="SourceGraphic" in2="BackgroundImageFix" result="shape"/>
<feColorMatrix in="SourceAlpha" type="matrix" values="0 0 0 0 0 0 0 0 0 0 0 0 0 0 0 0 0 0 127 0" result="hardAlpha"/>
<feOffset/>
<feGaussianBlur stdDeviation="0.5"/>
<feComposite in2="hardAlpha" operator="arithmetic" k2="-1" k3="1"/>
<feColorMatrix type="matrix" values="0 0 0 0 0 0 0 0 0 0 0 0 0 0 0 0 0 0 0.25 0"/>
<feBlend mode="normal" in2="shape" result="effect1_innerShadow_416_475"/>
</filter>
</defs>
</svg>
