<?xml version="1.0" encoding="UTF-8" standalone="no"?>
<!-- Created with Inkscape (http://www.inkscape.org/) -->

<svg
   width="32"
   height="32"
   viewBox="0 0 32 32"
   version="1.1"
   id="svg1"
   xmlns="http://www.w3.org/2000/svg"
   xmlns:svg="http://www.w3.org/2000/svg">
  <defs
     id="defs1" />
  <path
     id="rect2"
     style="fill:#000000;fill-opacity:0.998428;stroke-width:0;stroke-linecap:round"
     d="M 4.2167969,4 V 4.75 26.25 27 H 18.537109 V 26.25 H 4.9667969 V 4.75 H 17.585938 v 4.9101562 0.7499998 h 5.59375 v 7.513672 h 0.75 V 9.65625 h -0.002 L 18.271484,4 h -0.002 z M 18.335938,5.125 22.871094,9.6601562 H 18.335938 Z M 7.0722656,12.978516 v 0.75 H 21.072266 v -0.75 z m 0,3.318359 v 0.75 H 21.072266 v -0.75 z m 12.6484374,2.626953 c -0.617187,0 -1.107422,0.214844 -1.470703,0.644531 -0.363281,0.429687 -0.544922,1.007813 -0.544922,1.734375 0,0.734375 0.179688,1.316407 0.539063,1.746094 0.363281,0.425781 0.855469,0.638672 1.476562,0.638672 0.621094,0 1.113282,-0.212891 1.476563,-0.638672 0.367187,-0.425781 0.550781,-1.007813 0.550781,-1.746094 0,-0.730468 -0.183594,-1.308594 -0.550781,-1.734375 -0.367187,-0.429687 -0.859375,-0.644531 -1.476563,-0.644531 z m 5.291016,0 L 19.539062,28 h 0.9375 l 5.472657,-9.076172 z M 7.0449219,19.613281 v 0.75 h 9.6621091 v -0.75 z m 12.6757811,0.05469 c 0.335938,0 0.601563,0.146484 0.796875,0.439453 0.195313,0.292968 0.292969,0.691407 0.292969,1.195312 0,0.515625 -0.09766,0.91797 -0.292969,1.207032 -0.191406,0.289062 -0.457031,0.433593 -0.796875,0.433593 -0.339843,0 -0.605468,-0.144531 -0.796875,-0.433593 -0.191406,-0.289062 -0.287109,-0.691407 -0.287109,-1.207032 0,-0.507812 0.0957,-0.90625 0.287109,-1.195312 0.195313,-0.292969 0.460938,-0.439453 0.796875,-0.439453 z m -12.6757811,3.26367 v 0.75 h 9.6621091 v -0.75 z m 18.7226561,0.304687 c -0.621093,0 -1.115235,0.214844 -1.482422,0.644531 -0.363281,0.425781 -0.544922,1.005861 -0.544922,1.740235 0,0.730468 0.181641,1.310547 0.544922,1.740234 C 24.648437,27.787109 25.142579,28 25.767578,28 c 0.613281,0 1.101563,-0.212891 1.464844,-0.638672 0.367187,-0.429687 0.550781,-1.009766 0.550781,-1.740234 0,-0.730468 -0.181641,-1.310548 -0.544922,-1.740235 C 26.875,23.451172 26.384766,23.236328 25.767578,23.236328 Z m 0,0.744141 c 0.332031,0 0.59375,0.146484 0.785156,0.439453 0.195312,0.289062 0.292969,0.689454 0.292969,1.201172 0,0.507812 -0.09766,0.908203 -0.292969,1.201172 -0.191406,0.289062 -0.453125,0.433593 -0.785156,0.433593 -0.339843,0 -0.607422,-0.144531 -0.802734,-0.433593 -0.191406,-0.292969 -0.28711,-0.69336 -0.28711,-1.201172 0,-0.515624 0.0957,-0.917969 0.28711,-1.207032 0.195312,-0.289062 0.462891,-0.433593 0.802734,-0.433593 z" />
</svg>
