<?xml version="1.0" encoding="UTF-8" standalone="no"?>
<!-- Created with Inkscape (http://www.inkscape.org/) -->

<svg
   width="32"
   height="32"
   viewBox="0 0 32 32"
   version="1.1"
   id="svg1"
   xmlns="http://www.w3.org/2000/svg"
   xmlns:svg="http://www.w3.org/2000/svg">
  <defs
     id="defs1" />
  <path
     id="rect1"
     style="fill:#000000;fill-opacity:0.998428;stroke-width:0;stroke-linecap:round;stroke-dasharray:none"
     d="m 11.750977,3.9999999 v 0.75 3.2851562 h -8.5996097 -0.75 v 5.6249999 0.75 13.375 h 0.00195 V 28 H 29.598633 V 27.25 8.0351561 H 20.250977 V 4.1542967 3.9999999 Z m 0.75,0.75 h 7 v 3.2851562 h -7 z M 3.1513673,8.7851561 H 28.848633 v 4.8749999 h -1.5 V 12.457 h -0.537109 -3.8125 -0.75 v 1.203156 H 9.750977 V 12.457 h -0.537109 -3.8125007 -0.75 v 1.203156 h -1.5 z m 2.25,4.4218439 H 9.000977 v 1.656281 H 5.4013673 Z m 17.5976567,0 h 3.599609 v 1.656 H 22.999024 Z M 3.1513673,14.410156 h 1.5 v 1.203125 h 0.75 3.8496097 0.5 V 14.410156 H 22.249024 V 15.613 h 0.75 3.849609 0.5 v -1.202844 h 1.5 V 27.25 H 3.1513673 Z m 12.3496097,3.419922 v 2.460937 h -2.5 v 1 h 2.5 v 2.539063 h 1 v -2.539063 h 2.5 v -1 h -2.5 v -2.460937 z" />
</svg>
