<?xml version="1.0" encoding="UTF-8" standalone="no"?>
<svg
   version="1.1"
   id="Layer_1"
   x="0px"
   y="0px"
   viewBox="-37.573 -40.9767 1994.573 1786.7219"
   enable-background="new -37.573 -40.9767 1994.573 1786.7219"
   xml:space="preserve"
   sodipodi:docname="logo.svg"
   inkscape:version="1.1.2 (0a00cf5339, 2022-02-04)"
   xmlns:inkscape="http://www.inkscape.org/namespaces/inkscape"
   xmlns:sodipodi="http://sodipodi.sourceforge.net/DTD/sodipodi-0.dtd"
   xmlns="http://www.w3.org/2000/svg"
   xmlns:svg="http://www.w3.org/2000/svg"><defs
   id="defs898" /><sodipodi:namedview
   id="namedview896"
   pagecolor="#ffffff"
   bordercolor="#000000"
   borderopacity="0.25"
   inkscape:pageshadow="2"
   inkscape:pageopacity="0.0"
   inkscape:pagecheckerboard="0"
   showgrid="false"
   inkscape:zoom="0.16"
   inkscape:cx="887.5"
   inkscape:cy="996.875"
   inkscape:window-width="1366"
   inkscape:window-height="699"
   inkscape:window-x="0"
   inkscape:window-y="0"
   inkscape:window-maximized="1"
   inkscape:current-layer="Layer_1"><inkscape:grid
     type="xygrid"
     id="grid4455" /></sodipodi:namedview>
<g
   id="g893"
   style="fill:#f4710a;fill-opacity:1"
   transform="translate(2.7776739,-10.164568)">
	<path
   id="path4460"
   style="fill:#f4710a;fill-opacity:1"
   d="m 910.25,48.966797 c -1.68375,-0.5225 -3.47242,-0.485703 -5.10742,0.529297 -5.63,3.22 -10.08867,8.180022 -15.88867,11.169922 -9.37,5.58 -20.94118,7.330703 -31.45118,4.220703 -12.02,-2.75 -23.39054,-9.870547 -36.06054,-8.560547 -11.56,2.5 -17.66977,14.550392 -28.75977,18.15039 -11.72,3.71 -24.15969,0.800313 -36.17969,2.070313 -6.79,0.5 -13.37992,3.598984 -17.66992,8.958984 -9.01,10.95 -11.94008,25.419921 -20.08008,36.919921 -2.69,3.73 -5.76046,7.90125 -10.48046,9.03125 -5.05,0.75 -8.13938,-4.16062 -11.10938,-7.39062 -1.44,-1.37 -3.20945,-4.30047 -5.43945,-2.73047 -2.48,3.27 -3.46031,7.35054 -5.07032,11.06054 -3.50999,8.95 -8.48078,17.82993 -16.55078,23.41993 -4.5,3.18 -10.16914,4.49968 -15.61914,3.67968 -11.89,-1.81 -21.74101,-9.58875 -33.29101,-12.46875 -4.34,-1.31 -9.06969,1.28836 -10.42969,5.56836 -4.9,12.54 1.45078,25.59086 1.05078,38.38086 0.32,8.7 -6.03984,17.52094 -14.83984,18.96094 -12.17,2.25 -23.77117,-3.60078 -35.70117,-4.80078 -2.68,-0.13 -6.08922,-0.54063 -7.94922,1.85937 -2.12,2.87 -1.5493,6.69 -1.2793,10 1.85,12.66 6.34883,25.05954 5.54883,38.01953 -0.55,7.75 -2.80914,16.14071 -9.11914,21.22071 -3.73,3.17 -9.34008,3.34062 -13.58008,1.14062 -8.39,-4.22 -14.13133,-12.19086 -22.36133,-16.63086 -2.06,-1.29 -4.73812,-0.20961 -5.32812,2.15039 -3.49,10.05 -2.43024,21.25954 -6.99024,31.01954 -3,6.22 -9.73008,9.62 -16.33008,10.5 -14.55,2.04 -29.08086,-1.59993 -43.63086,-1.66993 -3.52,0.18 -7.63953,0.23969 -10.26953,2.92969 -1.99,2.99 -1.65062,7.00078 -0.64062,10.30078 4.67,14.73 10.19953,29.44024 11.26953,44.99024 0.19,4.92 0.23172,10.05992 -1.73828,14.66992 -1.62,3.67 -5.28141,6.10898 -9.19141,6.70898 -8.91,1.4 -18.00039,-0.54828 -26.90039,1.01172 -4.52,0.65 -8.78844,2.90977 -11.64844,6.50977 -5.52,6.7 -6.63148,15.73937 -7.27148,24.10937 -0.67,20.8 5.06,41.2603 4,62.07032 -0.22,4.97 -0.7582,10.33062 -3.9082,14.39062 -2.27,7.58 -8.88032,12.58891 -13.57032,18.62891 -5.59,6.46 -9.53125,14.32953 -11.03125,22.76953 -2.69,16.78 0.78133,34.26062 8.86133,49.14062 6.86,13.17 17.75844,23.60914 29.14844,32.86914 13.71,10.76 28.79164,19.57086 43.93164,28.13086 2.86,1.87 6.62844,3.56914 7.64844,7.11914 -0.53,4.93 -4.13938,8.80039 -6.60938,12.90039 -13.82,20.03 -27.11906,40.53985 -37.53906,62.58985 -10.66,22.23 -18.27148,45.84156 -23.77148,69.85156 -4.72,21.5 -7.86852,43.47883 -7.47852,65.54883 -0.13,9.68 0.67828,19.41984 2.98828,28.83984 1.57,6.12 4.26125,12.51008 9.78125,16.08008 4.37,2.97 9.97024,2.80062 14.99024,2.14063 10.69,-1.55 21.00962,-4.86063 31.3496,-7.89063 20.78,-6.39 41.49922,-13.02016 62.19922,-19.66016 4.71,-1.47 9.34125,-3.31007 14.28125,-3.83007 -3.44,9.31 -9.76086,17.20054 -14.13086,26.06054 -6.75,11.48 -13.82945,22.77916 -20.93945,34.03906 -27.63,43.98001 -58.88062,86.05068 -80.39062,133.56058 -12.04,26.8001 -20.63938,55.0102 -27.35938,83.5703 -3.97,18.3599 -13.20953,34.9903 -23.76953,50.3203 -11.11,16.36 -23.29008,31.9594 -35.58008,47.4394 -23.34,29.3301 -47.0814,58.3397 -70.1914,87.8497 -45.87,58.6099 -90.35844,118.8205 -125.14844,184.8105 -20.350004,38.49 -38.570471,78.2199 -52.480471,119.5098 -1.98,7.04 -5.09039,13.9804 -5.15039,21.4004 4.01,-2.99 6.24039,-7.5604 8.90039,-11.6504 9.84,-15.87 19.189219,-32.0292 29.199219,-47.7891 21.040002,-33.5 43.900472,-65.811 67.480472,-97.541 22.81,-30.6801 46.42968,-60.7694 70.92968,-90.1094 31.33,-37.51 64.19977,-73.6694 98.00977,-108.9394 4.41,-3.9 7.86094,-9.2807 13.46094,-11.5606 3.28,-1.37 5.76039,1.9591 7.40039,4.2891 4.54,7.0901 7.75914,14.9112 11.61914,22.3613 25.42,52.1399 55.07992,102.3798 90.66992,148.2598 25.29,32.7401 52.61922,63.9101 81.94922,93.0801 13.14,12.27 26.17109,24.8789 41.37109,34.6289 5.32,3.36 11.01953,6.7908 17.51953,6.8808 1.62,15.86 4.28985,31.7303 9.83985,46.7403 9.57,27.1699 29.32109,50.4493 54.37109,64.6093 18.4699,10.5699 39.34844,16.4013 60.39844,18.7813 5.36,0.89 10.81039,0.7783 16.15039,1.8183 13,-0.1999 26.02125,-0.1996 39.03125,-0.01 4.75,-0.89 9.58867,-1.0391 14.38867,-1.6192 12.67,-1.05 25.15055,-3.7507 37.56055,-6.4707 6.8,-1.48 13.30015,-3.9691 19.91015,-6.1191 12.69002,-3.74 24.40063,-9.9811 36.14063,-15.9512 8.66,-4.6899 16.6493,-10.4797 24.2793,-16.6797 6.9,-5.37 12.73002,-11.9305 18.91992,-18.0605 25.0601,-28.1599 40.53945,-63.4989 50.43945,-99.5488 12.67,-46.4799 17.1307,-94.7199 19.7207,-142.67 0.06,-10.34 0.77938,-20.6504 1.10938,-30.9804 0,-27.94 0.61064,-55.9006 -0.85938,-83.8106 -2.03998,-73.32 -8.93937,-146.5286 -20.60937,-218.9687 -1.43,-9.75 -2.93102,-19.5109 -5.04102,-29.1309 2.4299,3.2001 5.15993,6.26 8.66993,8.3301 8.96,5.83 20.53996,5.5204 30.50004,2.7305 17.53,-5.4601 31.7896,-17.6911 45.0996,-29.8711 12.6999,-12.0401 24.2111,-25.2386 35.5312,-38.5586 23.26,-27.88996 44.6385,-57.3598 63.7285,-88.2598 23.33,-37.76 42.3216,-78.17156 56.8516,-120.10156 5.55,-16.48 10.599,-33.20891 13.5391,-50.37891 1.41,-9.75 2.7907,-19.98101 -0.3692,-29.54101 -1.13,-3.45 -3.5899,-7.12954 -7.5097,-7.51954 -4.0301,-0.31 -7.66,1.98983 -10.67,4.41993 -6.78,5.71 -11.8904,13.08937 -16.4804,20.60937 -17.34,28.77 -24.5996,63.16102 -46.8496,89.04102 -11.6603,13.94 -24.7416,26.59984 -37.4317,39.58984 -15.64,16.04 -31.2001,32.14984 -46.4101,48.58984 -23.38,25.41 -46.5589,51.13047 -67.04888,78.98047 -10.88999,14.94005 -20.75062,31.03905 -25.64062,49.03905 -2.11,-11.99 -5.14023,-23.7804 -7.74023,-35.6504 -5.11,-21.75994 -10.60844,-43.44818 -17.64844,-64.65818 -1.61,-4.2 -2.59,-8.93109 -6,-12.12109 -1.61,5.6 -1.24008,11.48976 -1.33008,17.25976 1.4,37.06 4.22945,74.04081 6.68945,111.05081 3.33,47.66 6.74946,95.3202 9.93946,142.9902 2.61,42.61 5.31,85.23 6.25,127.9199 1.27,26.31 0.76945,52.6698 0.68945,79.0098 -0.8701,28.3101 -2.52,56.6102 -6,84.7402 -5.48,41.73 -14.63961,83.7298 -34.34961,121.2598 -13.87,26.6901 -34.88891,50.5199 -62.37891,63.5898 -20.11,9.7101 -42.50039,13.591 -64.65039,14.711 -23.27,0.9199 -46.73054,-1.1411 -69.31054,-6.9512 -15.22,-4.0899 -30.39039,-10.0803 -42.40039,-20.5703 -6.43,-5.71 -11.8893,-13.239 -13.0293,-21.959 -0.8499,-6.8702 2.69969,-13.4597 7.42969,-18.1797 9.6199,-9.83 21.90031,-16.3708 33.57031,-23.3808 17.63,-10.2399 34.96015,-21.1808 50.41015,-34.5508 24.36001,-20.72 43.23063,-47.3096 56.89063,-76.0996 18.66,-39.03 28.93953,-81.4793 35.76953,-124.0293 7.23,-48.8499 10.73031,-98.2106 11.57031,-147.5606 1.3,-25 0.56891,-50.0503 0.62891,-75.0703 -0.62,-11.2899 -0.80898,-22.5888 -0.95898,-33.8887 -2.39,-68.07 -7.74047,-136.0898 -17.23047,-203.5898 -3.86,-26.19 -7.86094,-52.43102 -14.71094,-78.04102 -3.73,-13.75 -8.41977,-27.55 -16.75977,-39.25 -6.35,-8.7 -13.38,-17.0589 -21.75,-23.8789 10.47,-5.42 21.74024,-9.4018 33.49024,-10.8418 6.52,-1.25 13.18953,-0.58875 19.76953,-1.21875 1.43,-1.28 -0.26844,-2.47992 -1.14844,-3.41992 -4.35,-3.78 -9.29156,-6.78992 -14.10156,-9.91992 -25.76,-16.17 -54.30891,-28.33071 -84.37891,-33.47071 -22.8,-3.92 -45.95976,-4.80898 -69.00976,-6.20898 -7.41,-0.71 -15.05092,-0.98078 -22.04102,-3.80078 -1.87,-0.6999 -3.50859,-1.98945 -4.55859,-3.68945 -0.83,-3.47 1.79953,-6.3311 4.01953,-8.6211 7,-6.96 15.81953,-11.65937 24.26953,-16.60937 14.86,-7.47 30.69914,-12.77104 46.61914,-17.46094 7.0277,-2.0589 37.45431,-7.69388 38.48047,-17.53906 -3.79,-4.62 -10.20857,-5.62 -15.63867,-7.25 -18.45,-4.08 -37.97094,-5.35914 -56.46094,-0.86914 -18.65,4.63 -33.46078,17.44968 -49.05078,27.92968 -15.51,10.63 -33.34883,16.92952 -50.29883,24.76954 -4.05,2.06998 -8.48016,3.98937 -11.41016,7.60937 -1.58,1.85 -1.12945,4.55961 0.31055,6.34961 3.98,5.1899 9.92844,8.26109 15.39844,11.62109 11.06,6.57 22.17156,13.44985 31.10156,22.83985 4.88,5.35 9.29985,11.96953 9.08985,19.51953 0.28,6.59 -3.31094,12.46031 -6.71094,17.82031 -9.57,12.47 -22.55024,21.6907 -35.24024,30.7207 -16.46,11.4 -33.46914,21.94993 -50.36914,32.66993 -19.04,11.96 -37.84968,24.29906 -57.17968,35.78906 -13.73,8.01 -27.65993,15.92101 -42.66993,21.29101 -9.54,3.2 -20.1007,5.49891 -29.9707,2.37891 -7.13,-2.2 -12.66914,-8.13961 -15.11914,-15.09961 -5.04,-13.14 -3.51172,-27.54953 -0.76172,-41.01953 4.01,-18.27 11.53055,-35.54047 19.81055,-52.23047 9.91,-19.68 21.05992,-38.70031 32.41992,-57.57031 10.17,-16.71 20.17086,-33.55961 31.38086,-49.59961 7.6,-10.55 15.31875,-21.36961 25.71875,-29.34961 6.24,-4.87 14.46133,-7.77094 22.36133,-5.96094 13.28,2.55 23.14015,12.79141 35.66015,17.19141 2.77,0.81 5.91979,1.7882 8.67969,0.4082 2.12,-2.82 0.22922,-6.27 -1.05078,-9 -6.42,-12.26 -15.41906,-22.98969 -21.53906,-35.42969 -1.51,-3.28 -3.00992,-7.07992 -1.66992,-10.66992 1.78,-2.37 5.03976,-2.65984 7.75976,-3.08984 9.3001,-0.82 18.60979,0.51133 27.92969,0.11133 6.76,-0.07 14.3307,-0.97164 19.2207,-6.18164 5.43,-5.77 5.62985,-14.09961 7.58985,-21.34961 2.89,-11.25 11.38882,-20.87914 11.29882,-32.86914 0.19,-4.11 -2.71898,-9.02032 0.29102,-12.57032 7.89,-5.86 18.20914,-6.21961 27.61914,-7.34961 11.55,-1.06 24.34047,-3.57132 32.23047,-12.86132 3.6201,-3.92 4.06969,-9.79868 2.17969,-14.63868 -4.17,-11.48 -13.09032,-20.26031 -19.32032,-30.57031 -1.35,-2.59 -3.32906,-5.73969 -2.03906,-8.67969 2,-2.64 5.89992,-2.57132 8.91992,-3.11132 12.66,-0.59 25.65047,0.45984 37.98047,-3.16016 10.62,-3.2 19.19844,-10.56875 27.39844,-17.71875 7.84,-6.74 16.64055,-12.93086 21.81055,-22.13086 7.95,-14.33 6.27062,-31.78961 13.64062,-46.34961 3.73,-7.7 11.60906,-12.22078 19.53906,-14.55078 18.01,-5.24 37.12079,-4.19891 55.30078,-8.62891 6.14,-1.65 12.64891,-4.17039 16.37891,-9.65039 4.5,-6.1 4.99086,-13.99914 8.38086,-20.61914 4.07,-6.7 12.78914,-6.30148 19.61914,-7.27148 12.49,-0.87 26.19,-4.55961 33.75,-15.34961 10.8,-15.21 14.02156,-34.10922 22.60156,-50.44922 1.4,-2.45 3.04953,-5.18078 5.76953,-6.30078 3.78001,0.4 5.79008,4.19101 8.08008,6.79101 3.75,4.92 8.30071,10.45946 14.97071,10.93946 7.97,-0.12 14.35859,-5.62078 20.30859,-10.30078 4.8,-3.55 8.8502,-8.32961 14.4902,-10.59961 -1.56,10.82 -5.4401,21.19984 -6.6601,32.08984 -0.88,6.44 -1.7792,13.88094 2.3008,19.46094 2.57,3.52 7.4604,2.69914 11.2304,2.36914 11.03,-2.26 20.989,-7.84867 31.709,-11.13867 2.97,-0.74 6.2407,-1.83024 9.2207,-0.49024 2.12,0.57 2.6402,3.05945 2.9102,4.93946 0.77,10.25999 -5.2407,20.00906 -2.8907,30.28906 2.06,8.19 9.2295,13.66164 16.1895,17.68164 10.3299,5.79 21.3911,10.12851 32.2813,14.72851 20.5398,8.39 41.0889,16.85157 60.789,27.10157 35.68,18.24 69.6107,39.7389 102.4707,62.6289 62.33,43.58 118.1686,95.51045 173.1387,147.81055 53.45,51.56 105.5701,104.51945 156.0801,158.93945 52.06,56.18 102.6304,113.85047 149.8203,174.23047 26.0901,33.42 51.2396,67.57041 75.7695,102.15037 22.0801,31.0101 43.5008,62.4801 65.4609,93.5801 11.63,16.2001 23.2299,32.5187 36.8399,47.1387 3.88,3.69 7.6809,8.5104 13.4609,8.9004 0.89,-2.98 0.7589,-6.1396 -0.1211,-9.0996 -2.08,-7.4601 -5.2602,-14.5504 -8.4902,-21.5704 -14.8399,-31.21 -32.5798,-60.9398 -50.6699,-90.3398 -42.61,-68.75 -89.7702,-134.63086 -140.1602,-197.88086 -46.2201,-58.13 -94.7697,-114.36938 -144.6797,-169.35938 -49.8199,-54.75 -101.1696,-108.23023 -156.2597,-157.74023 -56.5499,-51.01 -117.3703,-97.21906 -181.1602,-138.78906 -30.9901,-19.99 -62.6094,-39.19055 -95.9394,-55.06055 -17.8299,-8.53 -36.3197,-15.55945 -55.0098,-21.93945 -3.51,-1.25 -7.3303,-2.26094 -9.8203,-5.21094 5.2299,-3.85 11.6805,-5.28008 17.5605,-7.83008 7.62,-3.15 14.6303,-7.78961 20.4903,-13.59961 11.12,-10.68 21.1386,-22.5493 29.4687,-35.5293 3.37,-5.81 7.2912,-12.12086 6.4512,-19.13086 -0.1801,-2.73 -3.0202,-4.45898 -5.5801,-3.95898 -4.75,0.69 -8.5315,3.96898 -12.2715,6.70898 -10.66,8.52 -21.309,17.25071 -33.539,23.47071 -11.03,5.77 -22.6997,10.66937 -35.0098,12.85937 -5.47,0.71 -11.6396,1.16024 -16.3496,-2.25976 -4.9401,-3.57 -5.8411,-10.36 -5.1211,-16 1.63,-12.32 7.5803,-23.54102 14.3203,-33.79102 13.8201,-20.44 32.28,-37.01851 49.25,-54.72851 2.7001,-2.94 5.8909,-5.70086 7.1309,-9.63086 -4.45,0.76 -8.1715,3.44109 -11.8516,5.87109 -12.38,8.37 -23.4091,18.54016 -34.1191,28.91016 -18.6,18.53 -35.9299,38.3382 -51.5899,59.4082 -2.4,2.99 -4.3713,6.55016 -7.8613,8.41016 -0.08,-5.71 0.9901,-11.32961 2.3301,-16.84961 4.47,-18.58 10.35,-36.91899 19.08,-53.95899 6.6599,-13.59 15.5512,-26.07992 26.3711,-36.66992 3.6001,-4.15 8.5191,-7.35 10.7891,-12.5 -8.1701,0.54 -15.3796,4.99844 -22.3496,8.89844 -15.36,8.87 -26.6506,22.93093 -37.0606,36.96094 -5.9,7.66999 -11.2303,16.00968 -18.8203,22.17968 -3.24,2.62 -8.0689,4.35086 -11.87888,1.88086 -4.92998,-3.33 -7.51109,-8.9807 -9.87109,-14.2207 -7.21,-17.45 -10.41898,-36.36016 -10.95898,-55.16016 0.51,-9.64 1.41078,-19.320466 0.80078,-28.980466 -0.06,-3.61 -3.0511,-6.650157 -6.6211,-6.910156 -9.29,-1.180002 -19.2307,1.201093 -27.9707,-3.128907 -11.75,-5.75 -18.64961,-17.400156 -27.84961,-26.160156 -1.22,-1.225 -2.79867,-2.307578 -4.48242,-2.830078 z m 64.52539,448.365233 c -1.92299,0.0555 -3.84648,0.17172 -5.77148,0.35547 -11.38,1.08 -21.94024,6.71875 -29.74024,14.96875 -12.3,12.75 -21.28164,28.52977 -26.93164,45.25977 -3.9,12.31 -6.27844,25.89 -2.39844,38.5 2.61,9.02 10.87914,15.00148 19.36914,18.02148 15.96,5.72 33.27985,7.18953 50.08985,5.51953 12.06,-1.22 23.71962,-6.25055 32.59962,-14.56055 9.34,-8.68 15.8517,-19.77953 22.5117,-30.51953 7.63,-12.22 14.3088,-25.21054 24.2188,-35.81054 3.97,-4.75 9.7097,-8.69961 11.0097,-15.09961 -0.78,-4.99 -6.0802,-7.11938 -10.0801,-9.10938 -14.37,-6.04 -29.65,-9.56133 -44.83,-12.86133 -13.1863,-2.51125 -26.58599,-5.05261 -40.04691,-4.66406 z M 761.01367,785.94727 c 0.62,12.78 7.20899,24.09992 11.95899,35.66992 11.43,25.28 19.00109,52.16047 23.62109,79.48047 8.59,50.25 12.33953,101.14994 16.26953,151.91994 1.52,23.22 3.25891,46.4199 4.37891,69.6699 0.97,8.39 0.48047,16.8695 1.48047,25.2695 0.2,13.68 1.47054,27.3196 1.31054,41.0196 1.22,22.64 0.80047,45.3202 0.73047,67.9902 -0.25,7.66 -0.91984,15.3103 -0.83984,22.9902 -2.11,44.66 -7.61024,89.6689 -22.24024,132.1289 -6.8,19.1199 -15.41046,37.9108 -28.23047,53.8008 -8.5,10.14 -18.87945,19.6407 -31.93945,23.2207 -7.8,2.28 -16.94133,1.6593 -23.36133,-3.7207 -6.94,-5.9501 -10.78898,-14.5503 -14.20898,-22.8203 -6.89,-17.38 -12.59133,-35.2692 -16.61133,-53.5391 -4.92,-22.9501 -7.38898,-46.3899 -8.20898,-69.83 -1.56,-51.15 3.58945,-102.1514 9.68945,-152.8614 5.09,-41.9299 11.14109,-83.7282 17.37109,-125.4882 7.09,-48.47 14.9086,-96.84075 20.8086,-145.47075 1.73,-14.41 3.2207,-28.85008 4.2207,-43.33007 0.2,-8.71001 1.15961,-17.4211 0.34961,-26.1211 -0.56,-6.74 -0.62008,-13.93937 -4.33008,-19.85937 -1.73,0.12 -3.66023,0.27007 -4.74023,1.83007 -4.67,5.46 -7.21844,12.33079 -10.14844,18.80079 -8.46,20.84 -15.06148,42.37875 -21.27148,63.96875 -13.5,47.3 -23.94883,95.41148 -32.79883,143.77148 -25.17,137.1499 -39.98008,275.8983 -54.58008,414.4883 -2.47,22.87 -4.76086,45.7706 -6.38086,68.7207 -1.3,21.09 -2.31047,42.3001 -0.73047,63.4101 -4.52,-6.72 -10.81875,-11.9092 -16.71875,-17.3593 -25.08,-22.26 -49.01062,-46.1214 -68.39062,-73.6114 -23.48,-32.8299 -42.93899,-68.3689 -60.20899,-104.7988 -17.33,-37.0701 -32.17023,-75.4602 -41.99023,-115.2402 -5.35,-22.9599 -9.76969,-46.4003 -9.17969,-70.0703 -0.37,-25.5601 5.84836,-50.6793 13.56836,-74.8692 14.76,-45.01 34.30102,-88.4108 57.29101,-129.8008 24.96,-44.03992 54.37985,-85.88082 90.08985,-121.88082 17.91,-17.41 38.0907,-32.92828 61.2207,-42.73828 29.89,-13.05 62.63836,-18.35992 91.81836,-33.16992 18.07,-8.61 34.85164,-19.71041 50.93164,-31.57031 z m 385.76953,61 c -2.0499,7.32 -6.5504,13.56953 -9.9805,20.26953 -20.58,36.1699 -44.6695,70.48005 -72.8496,101.16015 -12.5,13.47 -25.4505,26.64043 -39.8105,38.15035 -4.77,3.53 -9.6503,7.4193 -15.5703,8.6993 -2.16,0.66 -4.2803,-1.1108 -4.2403,-3.3008 -0.25,-6.46 3.651,-12.06908 6.961,-17.28908 20.7901,-29.99 44.3694,-57.99953 69.9394,-84.01953 15.5399,-16.43 31.5299,-32.42977 47.9199,-48.00977 6,-5.08 10.8109,-11.59015 17.6309,-15.66015 z"
   transform="translate(-37.573,-40.9767)" />
	
</g><g
   inkscape:groupmode="layer"
   id="layer1"
   inkscape:label="Layer 1" />
</svg>
